<?xml version="1.0" encoding="UTF-8"?>
<svg viewBox="0 0 512 512" xmlns="http://www.w3.org/2000/svg">
 <rect x="-51.2" y="-51.2" width="614.4" height="614.4" fill="#676767"/>
 <path d="m232.82 206.15c-1.8008 0-3.4375-0.74219-4.6367-1.9258-1.1836-1.1836-1.9258-2.8203-1.9258-4.6367v-31.273c0-1.8008 0.74219-3.4375 1.9258-4.6367 1.1836-1.1836 2.8203-1.9258 4.6367-1.9258 1.8008 0 3.4375 0.74219 4.6367 1.9258 1.1836 1.1836 1.9258 2.8203 1.9258 4.6367v31.273c0 1.8008-0.74219 3.4375-1.9258 4.6367-1.1836 1.1836-2.8203 1.9258-4.6367 1.9258zm-52.383 84.211c0 1.1445-0.93359 2.0781-2.0781 2.0781h-29.535c0.62891 7.1055 3.8047 13.516 8.5898 18.301 5.3789 5.3789 12.785 8.7031 20.934 8.7031 8.1484 0 15.566-3.3359 20.934-8.7031 5.3789-5.3789 8.7031-12.785 8.7031-20.934v-41.336c0-8.1484-3.3359-15.566-8.7031-20.934-5.3789-5.3789-12.785-8.7031-20.934-8.7031-8.1484 0-15.566 3.3359-20.934 8.7031-4.7734 4.7734-7.9336 11.148-8.5781 18.211h29.535c1.1445 0 2.0781 0.93359 2.0781 2.0781s-0.93359 2.0781-2.0781 2.0781h-29.648v10.039h29.648c1.1445 0 2.0781 0.93359 2.0781 2.0781s-0.93359 2.0781-2.0781 2.0781h-29.648v10.039h29.648c1.1445 0 2.0781 0.93359 2.0781 2.0781 0 1.1445-0.93359 2.0781-2.0781 2.0781h-29.648v10.039h29.648c1.1445 0 2.0781 0.93359 2.0781 2.0781zm194.11-158.25c-2.3789-2.3789-5.6562-3.8555-9.2695-3.8555h-192.89c-3.6133 0-6.8906 1.4727-9.2695 3.8555-2.3789 2.3789-3.8555 5.6562-3.8555 9.2695v68.742c0 1.1445 0.93359 2.0781 2.0781 2.0781 1.1445 0 2.0781-0.93359 2.0781-2.0781l-0.011718-68.742c0-2.4688 1.0078-4.7109 2.6445-6.3477 1.625-1.625 3.8789-2.6445 6.3477-2.6445h192.88c2.4688 0 4.7109 1.0078 6.3477 2.6445 1.625 1.625 2.6445 3.8789 2.6445 6.3477v84.527c0 2.4688-1.0078 4.7109-2.6445 6.3477-1.625 1.625-3.8789 2.6445-6.3477 2.6445h-148.21c-1.1445 0-2.0781 0.93359-2.0781 2.0781s0.93359 2.0781 2.0781 2.0781h148.21c3.6133 0 6.8906-1.4727 9.2695-3.8555 2.3789-2.3789 3.8555-5.6562 3.8555-9.2695v-84.555c0-3.6133-1.4727-6.8906-3.8555-9.2695zm-190.19 67.281c1.8008 0 3.4375-0.74219 4.6367-1.9258 1.1836-1.1836 1.9258-2.8203 1.9258-4.6367v-17.746c0-1.8008-0.74219-3.4375-1.9258-4.6367-1.1836-1.1836-2.8203-1.9258-4.6367-1.9258-1.8008 0-3.4375 0.74219-4.6367 1.9258-1.1836 1.1836-1.9258 2.8203-1.9258 4.6367v17.746c0 1.8008 0.74219 3.4375 1.9258 4.6367 1.1836 1.1836 2.8203 1.9258 4.6367 1.9258zm29.02 10.227c1.1836-1.1836 1.9258-2.8203 1.9258-4.6367v-42.082c0-1.8008-0.74219-3.4375-1.9258-4.6367-1.1836-1.1836-2.8203-1.9258-4.6367-1.9258-1.8008 0-3.4375 0.74219-4.6367 1.9258-1.1836 1.1836-1.9258 2.8203-1.9258 4.6367v42.082c0 1.8008 0.74219 3.4375 1.9258 4.6367 1.1836 1.1836 2.8203 1.9258 4.6367 1.9258 1.8008 0 3.4375-0.74219 4.6367-1.9258zm47.988 0c1.1836-1.1836 1.9258-2.8203 1.9258-4.6367v-42.082c0-1.8008-0.74219-3.4375-1.9258-4.6367-1.1836-1.1836-2.8203-1.9258-4.6367-1.9258-1.8008 0-3.4375 0.74219-4.6367 1.9258-1.1836 1.1836-1.9258 2.8203-1.9258 4.6367v42.082c0 1.8008 0.74219 3.4375 1.9258 4.6367 1.1836 1.1836 2.8203 1.9258 4.6367 1.9258 1.8008 0 3.4375-0.74219 4.6367-1.9258zm72.773-11.539c1.1836-1.1836 1.9258-2.8203 1.9258-4.6367v-18.98c0-1.8008-0.74219-3.4375-1.9258-4.6367-1.1836-1.1836-2.8203-1.9258-4.6367-1.9258-1.8008 0-3.4375 0.74219-4.6367 1.9258-1.1836 1.1836-1.9258 2.8203-1.9258 4.6367v18.98c0 1.8008 0.74219 3.4375 1.9258 4.6367 1.1836 1.1836 2.8203 1.9258 4.6367 1.9258 1.8008 0 3.4375-0.74219 4.6367-1.9258zm-24.926 12.027c1.1836-1.1836 1.9258-2.8203 1.9258-4.6367v-43.062c0-1.8008-0.74219-3.4375-1.9258-4.6367-1.1836-1.1836-2.8203-1.9258-4.6367-1.9258-1.8008 0-3.4375 0.74219-4.6367 1.9258-1.1836 1.1836-1.9258 2.8203-1.9258 4.6367v43.062c0 1.8008 0.74219 3.4375 1.9258 4.6367 1.1836 1.1836 2.8203 1.9258 4.6367 1.9258 1.8008 0 3.4375-0.74219 4.6367-1.9258zm-23.918 15.969c1.1836-1.1836 1.9258-2.8203 1.9258-4.6367v-74.98c0-1.8008-0.74219-3.4375-1.9258-4.6367-1.1836-1.1836-2.8203-1.9258-4.6367-1.9258-1.8008 0-3.4375 0.74219-4.6367 1.9258-1.1836 1.1836-1.9258 2.8203-1.9258 4.6367v74.98c0 1.8008 0.74219 3.4375 1.9258 4.6367 1.1836 1.1836 2.8203 1.9258 4.6367 1.9258 1.8008 0 3.4375-0.74219 4.6367-1.9258zm73.004-21.121c1.1836-1.1836 1.9258-2.8203 1.9258-4.6367v-32.758c0-1.8008-0.74219-3.4375-1.9258-4.6367-1.1836-1.1836-2.8203-1.9258-4.6367-1.9258-1.8008 0-3.4375 0.74219-4.6367 1.9258-1.1836 1.1836-1.9258 2.8203-1.9258 4.6367v32.758c0 1.8008 0.74219 3.4375 1.9258 4.6367 1.1836 1.1836 2.8203 1.9258 4.6367 1.9258 1.8008 0 3.4375-0.74219 4.6367-1.9258zm-137.27 80.859c-1.1445 0-2.0898 0.93359-2.0898 2.0898v4.6992c0 22.383-18.199 40.582-40.582 40.582-22.383 0-40.582-18.199-40.582-40.582v-4.6992c0-1.1445-0.93359-2.0898-2.0898-2.0898-1.1445 0-2.0898 0.93359-2.0898 2.0898v4.6992c0 22.758 17.078 41.566 39.094 44.359-0.011719 0.13672-0.050781 0.26562-0.050781 0.40234v34.438c0 0.28906-0.22656 0.51562-0.51562 0.51562h-14.105c-1.5742 0-2.9961 0.64063-4.0312 1.6758-1.0312 1.0312-1.6758 2.4688-1.6758 4.0312 0 1.5742 0.64062 2.9961 1.6758 4.0312 1.0312 1.0312 2.4688 1.6758 4.0312 1.6758h40.668c1.5742 0 2.9961-0.64062 4.0312-1.6758 1.0312-1.0312 1.6758-2.4688 1.6758-4.0312 0-1.5742-0.64062-2.9961-1.6758-4.0312-1.0312-1.0312-2.4688-1.6758-4.0312-1.6758h-14.105c-0.28906 0-0.51562-0.22656-0.51562-0.51562v-34.438c0-0.13672-0.039062-0.26563-0.050781-0.40234 22.004-2.7969 39.094-21.602 39.094-44.359v-4.6992c0-1.1445-0.93359-2.0898-2.0898-2.0898z" fill="#d2d2d2"/>
</svg>
