<svg width="1284" height="1440" viewBox="0 0 1284 1440" fill="none" xmlns="http://www.w3.org/2000/svg">
<rect x="4" width="1280" height="1440" fill="#D9D9D9"/>
<rect x="4" width="1280" height="99" fill="#333333"/>
<path d="M30.1328 67V32.92H41.4608C46.9008 32.92 51.0768 34.408 53.9888 37.384C56.9328 40.328 58.4048 44.536 58.4048 50.008C58.4048 55.448 56.9648 59.64 54.0848 62.584C51.2048 65.528 47.0928 67 41.7488 67H30.1328ZM36.3728 61.576H41.4608C45.0128 61.576 47.6528 60.616 49.3808 58.696C51.1088 56.776 51.9728 53.88 51.9728 50.008C51.9728 46.072 51.1088 43.144 49.3808 41.224C47.6528 39.304 45.0128 38.344 41.4608 38.344H36.3728V61.576ZM74.9026 67.576C72.3746 67.576 70.1506 67.032 68.2306 65.944C66.3426 64.824 64.8706 63.256 63.8146 61.24C62.7906 59.224 62.2786 56.872 62.2786 54.184C62.2786 51.464 62.7906 49.112 63.8146 47.128C64.8706 45.112 66.3426 43.56 68.2306 42.472C70.1506 41.352 72.3746 40.792 74.9026 40.792C77.4306 40.792 79.6386 41.352 81.5266 42.472C83.4146 43.56 84.8706 45.112 85.8946 47.128C86.9506 49.112 87.4786 51.464 87.4786 54.184C87.4786 56.872 86.9506 59.224 85.8946 61.24C84.8706 63.256 83.4146 64.824 81.5266 65.944C79.6386 67.032 77.4306 67.576 74.9026 67.576ZM74.9026 62.584C76.8866 62.584 78.4066 61.848 79.4626 60.376C80.5506 58.904 81.0946 56.84 81.0946 54.184C81.0946 51.56 80.5506 49.512 79.4626 48.04C78.4066 46.536 76.8866 45.784 74.9026 45.784C72.9186 45.784 71.3826 46.536 70.2946 48.04C69.2066 49.512 68.6626 51.56 68.6626 54.184C68.6626 56.84 69.2066 58.904 70.2946 60.376C71.3826 61.848 72.9186 62.584 74.9026 62.584ZM102.876 67.576C100.316 67.576 98.0917 67.032 96.2037 65.944C94.3157 64.824 92.8437 63.256 91.7877 61.24C90.7637 59.224 90.2517 56.872 90.2517 54.184C90.2517 51.496 90.7637 49.16 91.7877 47.176C92.8437 45.16 94.3157 43.592 96.2037 42.472C98.0917 41.352 100.316 40.792 102.876 40.792C105.052 40.792 106.988 41.176 108.684 41.944C110.38 42.712 111.756 43.816 112.812 45.256C113.9 46.664 114.572 48.392 114.828 50.44L108.492 50.776C108.236 49.144 107.596 47.912 106.572 47.08C105.58 46.216 104.348 45.784 102.876 45.784C100.892 45.784 99.3557 46.536 98.2677 48.04C97.1797 49.512 96.6357 51.56 96.6357 54.184C96.6357 56.84 97.1797 58.904 98.2677 60.376C99.3557 61.848 100.892 62.584 102.876 62.584C104.38 62.584 105.628 62.152 106.62 61.288C107.644 60.424 108.268 59.08 108.492 57.256L114.828 57.544C114.572 59.592 113.916 61.368 112.86 62.872C111.804 64.376 110.428 65.544 108.732 66.376C107.036 67.176 105.084 67.576 102.876 67.576ZM127.083 67.576C124.491 67.576 122.427 66.728 120.891 65.032C119.387 63.304 118.635 60.92 118.635 57.88V41.368H124.779V56.344C124.779 58.488 125.131 60.072 125.835 61.096C126.571 62.088 127.675 62.584 129.147 62.584C130.811 62.584 132.091 62.04 132.987 60.952C133.915 59.832 134.379 58.216 134.379 56.104V41.368H140.523V67H134.907L134.763 59.944L135.531 60.184C135.147 62.616 134.235 64.456 132.795 65.704C131.355 66.952 129.451 67.576 127.083 67.576ZM156.743 67.576C154.215 67.576 152.087 67.208 150.359 66.472C148.663 65.736 147.351 64.712 146.423 63.4C145.495 62.088 144.967 60.6 144.839 58.936L151.127 58.648C151.351 59.992 151.911 61.032 152.807 61.768C153.703 62.504 155.031 62.872 156.791 62.872C158.231 62.872 159.351 62.648 160.151 62.2C160.983 61.72 161.399 60.984 161.399 59.992C161.399 59.416 161.255 58.936 160.967 58.552C160.679 58.168 160.135 57.832 159.335 57.544C158.535 57.256 157.351 56.968 155.783 56.68C153.159 56.232 151.095 55.688 149.591 55.048C148.087 54.376 147.015 53.544 146.375 52.552C145.767 51.56 145.463 50.328 145.463 48.856C145.463 46.456 146.375 44.52 148.199 43.048C150.055 41.544 152.759 40.792 156.311 40.792C158.615 40.792 160.551 41.176 162.119 41.944C163.687 42.68 164.903 43.704 165.767 45.016C166.663 46.296 167.223 47.768 167.447 49.432L161.255 49.72C161.095 48.856 160.807 48.104 160.391 47.464C159.975 46.824 159.415 46.344 158.711 46.024C158.007 45.672 157.175 45.496 156.215 45.496C154.775 45.496 153.687 45.784 152.951 46.36C152.215 46.936 151.847 47.704 151.847 48.664C151.847 49.336 152.007 49.896 152.327 50.344C152.679 50.792 153.239 51.16 154.007 51.448C154.775 51.704 155.799 51.944 157.079 52.168C159.767 52.584 161.879 53.128 163.415 53.8C164.983 54.44 166.087 55.272 166.727 56.296C167.399 57.288 167.735 58.488 167.735 59.896C167.735 61.528 167.271 62.92 166.343 64.072C165.447 65.224 164.167 66.104 162.503 66.712C160.871 67.288 158.951 67.576 156.743 67.576ZM183.138 67.576C180.578 67.576 178.354 67.032 176.466 65.944C174.578 64.824 173.122 63.256 172.098 61.24C171.074 59.224 170.562 56.872 170.562 54.184C170.562 51.496 171.074 49.16 172.098 47.176C173.122 45.16 174.562 43.592 176.418 42.472C178.306 41.352 180.498 40.792 182.994 40.792C185.426 40.792 187.554 41.336 189.378 42.424C191.234 43.512 192.658 45.08 193.65 47.128C194.642 49.176 195.138 51.64 195.138 54.52V55.912H176.946C177.074 58.152 177.682 59.848 178.77 61C179.89 62.12 181.362 62.68 183.186 62.68C184.562 62.68 185.698 62.376 186.594 61.768C187.522 61.128 188.162 60.248 188.514 59.128L194.802 59.512C194.098 62.008 192.706 63.976 190.626 65.416C188.578 66.856 186.082 67.576 183.138 67.576ZM176.946 51.784H188.802C188.674 49.704 188.082 48.168 187.026 47.176C185.97 46.152 184.626 45.64 182.994 45.64C181.362 45.64 180.002 46.168 178.914 47.224C177.858 48.28 177.202 49.8 176.946 51.784ZM207.275 67.576C204.587 67.576 202.427 66.968 200.795 65.752C199.163 64.504 198.347 62.776 198.347 60.568C198.347 58.36 199.035 56.632 200.411 55.384C201.787 54.136 203.883 53.24 206.699 52.696L215.195 51.016C215.195 49.192 214.779 47.832 213.947 46.936C213.115 46.008 211.883 45.544 210.251 45.544C208.779 45.544 207.611 45.896 206.747 46.6C205.915 47.272 205.339 48.248 205.019 49.528L198.779 49.24C199.291 46.52 200.539 44.44 202.523 43C204.507 41.528 207.083 40.792 210.251 40.792C213.899 40.792 216.651 41.72 218.507 43.576C220.395 45.4 221.339 48.024 221.339 51.448V60.76C221.339 61.432 221.451 61.896 221.675 62.152C221.931 62.408 222.299 62.536 222.779 62.536H223.595V67C223.403 67.064 223.083 67.112 222.635 67.144C222.219 67.176 221.787 67.192 221.339 67.192C220.283 67.192 219.339 67.032 218.507 66.712C217.675 66.36 217.035 65.768 216.587 64.936C216.139 64.072 215.915 62.904 215.915 61.432L216.443 61.816C216.187 62.936 215.627 63.944 214.763 64.84C213.931 65.704 212.875 66.376 211.595 66.856C210.315 67.336 208.875 67.576 207.275 67.576ZM208.523 63.112C209.899 63.112 211.083 62.84 212.075 62.296C213.067 61.752 213.835 61 214.379 60.04C214.923 59.08 215.195 57.944 215.195 56.632V55.192L208.571 56.536C207.195 56.824 206.203 57.256 205.595 57.832C205.019 58.376 204.731 59.096 204.731 59.992C204.731 60.984 205.051 61.752 205.691 62.296C206.363 62.84 207.307 63.112 208.523 63.112ZM227.105 67V41.368H232.865L233.105 48.472L232.577 48.376C232.961 45.912 233.681 44.136 234.737 43.048C235.825 41.928 237.297 41.368 239.153 41.368H241.505V46.648H239.105C237.793 46.648 236.705 46.84 235.841 47.224C234.977 47.608 234.321 48.216 233.873 49.048C233.457 49.848 233.249 50.904 233.249 52.216V67H227.105ZM255.48 67.576C252.92 67.576 250.696 67.032 248.808 65.944C246.92 64.824 245.448 63.256 244.392 61.24C243.368 59.224 242.856 56.872 242.856 54.184C242.856 51.496 243.368 49.16 244.392 47.176C245.448 45.16 246.92 43.592 248.808 42.472C250.696 41.352 252.92 40.792 255.48 40.792C257.656 40.792 259.592 41.176 261.288 41.944C262.984 42.712 264.36 43.816 265.416 45.256C266.504 46.664 267.176 48.392 267.432 50.44L261.096 50.776C260.84 49.144 260.2 47.912 259.176 47.08C258.184 46.216 256.952 45.784 255.48 45.784C253.496 45.784 251.96 46.536 250.872 48.04C249.784 49.512 249.24 51.56 249.24 54.184C249.24 56.84 249.784 58.904 250.872 60.376C251.96 61.848 253.496 62.584 255.48 62.584C256.984 62.584 258.232 62.152 259.224 61.288C260.248 60.424 260.872 59.08 261.096 57.256L267.432 57.544C267.176 59.592 266.52 61.368 265.464 62.872C264.408 64.376 263.032 65.544 261.336 66.376C259.64 67.176 257.688 67.576 255.48 67.576ZM271.239 67V32.92H277.383V47.224H276.615C276.871 45.752 277.383 44.552 278.151 43.624C278.919 42.664 279.863 41.96 280.983 41.512C282.103 41.032 283.335 40.792 284.679 40.792C286.567 40.792 288.151 41.208 289.431 42.04C290.743 42.84 291.719 43.976 292.359 45.448C293.031 46.92 293.367 48.616 293.367 50.536V67H287.223V52.024C287.223 49.944 286.871 48.392 286.167 47.368C285.463 46.312 284.359 45.784 282.855 45.784C281.191 45.784 279.863 46.328 278.871 47.416C277.879 48.504 277.383 50.088 277.383 52.168V67H271.239Z" fill="#F5F5F5"/>
<g filter="url(#filter0_dd_26_1011)">
<rect x="3.5" y="586.5" width="37" height="37" rx="18.5" stroke="#E5E5E5" shape-rendering="crispEdges"/>
<path fill-rule="evenodd" clip-rule="evenodd" d="M21.4692 598.637C21.7621 598.344 22.2369 598.344 22.5298 598.637C22.8223 598.93 22.8225 599.404 22.5298 599.697L17.9761 604.25H27.8335C28.2474 604.25 28.5835 604.586 28.5835 605C28.5834 605.414 28.2474 605.75 27.8335 605.75H17.9761L22.5298 610.304C22.8223 610.596 22.8225 611.071 22.5298 611.364C22.237 611.656 21.762 611.656 21.4692 611.364L15.6362 605.53C15.5933 605.487 15.5578 605.438 15.5269 605.387C15.4582 605.273 15.4165 605.142 15.4165 605C15.4165 604.793 15.5005 604.605 15.6362 604.47L21.4692 598.637Z" fill="#171717"/>
</g>
<g filter="url(#filter1_dd_26_1011)">
<rect x="56" y="205" width="536" height="800" rx="10" fill="white" shape-rendering="crispEdges"/>
<rect x="55.5" y="204.5" width="537" height="801" rx="10.5" stroke="#E5E5E5" shape-rendering="crispEdges"/>
<path d="M323.2 616V601.39H318.64V598.42H320.47C321.33 598.42 322.02 598.31 322.54 598.09C323.06 597.87 323.43 597.49 323.65 596.95C323.89 596.39 324.01 595.64 324.01 594.7H327.1V616H323.2Z" fill="black"/>
</g>
<g filter="url(#filter2_dd_26_1011)">
<rect x="607.5" y="586.5" width="37" height="37" rx="18.5" stroke="#E5E5E5" shape-rendering="crispEdges"/>
<path fill-rule="evenodd" clip-rule="evenodd" d="M625.469 598.636C625.762 598.343 626.237 598.343 626.53 598.636L632.358 604.464C632.363 604.469 632.367 604.474 632.372 604.479C632.416 604.525 632.451 604.576 632.481 604.629C632.497 604.656 632.513 604.683 632.525 604.712C632.532 604.73 632.536 604.75 632.542 604.768C632.566 604.841 632.583 604.918 632.583 604.999C632.583 605.083 632.565 605.161 632.541 605.236C632.535 605.252 632.531 605.269 632.525 605.285C632.504 605.336 632.477 605.385 632.445 605.43C632.423 605.461 632.399 605.489 632.373 605.517C632.367 605.522 632.363 605.528 632.358 605.534L626.53 611.364C626.237 611.656 625.762 611.656 625.469 611.364C625.176 611.071 625.177 610.596 625.469 610.303L630.022 605.749H620.167C619.752 605.749 619.417 605.414 619.417 604.999C619.417 604.585 619.752 604.249 620.167 604.249H630.022L625.469 599.697C625.176 599.404 625.177 598.929 625.469 598.636Z" fill="#171717"/>
</g>
<rect x="673" y="205" width="577" height="800" fill="white"/>
<path d="M673 213C673 208.582 676.582 205 681 205H1242C1246.42 205 1250 208.582 1250 213V257C1250 261.418 1246.42 265 1242 265H681C676.582 265 673 261.418 673 257V213Z" fill="#525252"/>
<path d="M674.92 243.5V226.46H686.32V229.172H676.336L678.04 227.42V235.244L676.336 233.828H685.888V236.516H676.336L678.04 235.1V243.5H674.92ZM692.088 243.788C690.792 243.788 689.76 243.364 688.992 242.516C688.24 241.652 687.864 240.46 687.864 238.94V230.684H690.936V238.172C690.936 239.244 691.112 240.036 691.464 240.548C691.832 241.044 692.384 241.292 693.12 241.292C693.952 241.292 694.592 241.02 695.04 240.476C695.504 239.916 695.736 239.108 695.736 238.052V230.684H698.808V243.5H696L695.928 239.972L696.312 240.092C696.12 241.308 695.664 242.228 694.944 242.852C694.224 243.476 693.272 243.788 692.088 243.788ZM704.776 243.5C703.848 243.5 703.104 243.26 702.544 242.78C701.984 242.3 701.704 241.532 701.704 240.476V226.46H704.776V240.164C704.776 240.484 704.856 240.724 705.016 240.884C705.192 241.044 705.432 241.124 705.736 241.124H706.672V243.5H704.776ZM711.187 243.5C710.259 243.5 709.515 243.26 708.955 242.78C708.395 242.3 708.115 241.532 708.115 240.476V226.46H711.187V240.164C711.187 240.484 711.267 240.724 711.427 240.884C711.603 241.044 711.843 241.124 712.147 241.124H713.083V243.5H711.187ZM720.192 243.5V226.46H724.392L729.096 239.66L733.8 226.46H738V243.5H734.88V231.74L730.584 243.476H727.608L723.312 231.74V243.5H720.192ZM744.614 243.788C743.27 243.788 742.19 243.484 741.374 242.876C740.558 242.252 740.15 241.388 740.15 240.284C740.15 239.18 740.494 238.316 741.182 237.692C741.87 237.068 742.918 236.62 744.326 236.348L748.574 235.508C748.574 234.596 748.366 233.916 747.95 233.468C747.534 233.004 746.918 232.772 746.102 232.772C745.366 232.772 744.782 232.948 744.35 233.3C743.934 233.636 743.646 234.124 743.486 234.764L740.366 234.62C740.622 233.26 741.246 232.22 742.238 231.5C743.23 230.764 744.518 230.396 746.102 230.396C747.926 230.396 749.302 230.86 750.23 231.788C751.174 232.7 751.646 234.012 751.646 235.724V240.38C751.646 240.716 751.702 240.948 751.814 241.076C751.942 241.204 752.126 241.268 752.366 241.268H752.774V243.5C752.678 243.532 752.518 243.556 752.294 243.572C752.086 243.588 751.87 243.596 751.646 243.596C751.118 243.596 750.646 243.516 750.23 243.356C749.814 243.18 749.494 242.884 749.27 242.468C749.046 242.036 748.934 241.452 748.934 240.716L749.198 240.908C749.07 241.468 748.79 241.972 748.358 242.42C747.942 242.852 747.414 243.188 746.774 243.428C746.134 243.668 745.414 243.788 744.614 243.788ZM745.238 241.556C745.926 241.556 746.518 241.42 747.014 241.148C747.51 240.876 747.894 240.5 748.166 240.02C748.438 239.54 748.574 238.972 748.574 238.316V237.596L745.262 238.268C744.574 238.412 744.078 238.628 743.774 238.916C743.486 239.188 743.342 239.548 743.342 239.996C743.342 240.492 743.502 240.876 743.822 241.148C744.158 241.42 744.63 241.556 745.238 241.556ZM754.289 243.5V230.684H757.169L757.289 234.236L757.025 234.188C757.217 232.956 757.577 232.068 758.105 231.524C758.649 230.964 759.385 230.684 760.313 230.684H761.489V233.324H760.289C759.633 233.324 759.089 233.42 758.657 233.612C758.225 233.804 757.897 234.108 757.673 234.524C757.465 234.924 757.361 235.452 757.361 236.108V243.5H754.289ZM762.996 243.5V226.46H766.068V236.468L771.324 230.684H775.116L770.1 236.012L775.284 243.5H771.828L768.084 237.836L766.068 239.972V243.5H762.996ZM780.6 243.788C779.512 243.788 778.568 243.516 777.768 242.972C776.984 242.428 776.376 241.652 775.944 240.644C775.512 239.636 775.296 238.452 775.296 237.092C775.296 235.732 775.512 234.548 775.944 233.54C776.376 232.532 776.992 231.756 777.792 231.212C778.592 230.668 779.528 230.396 780.6 230.396C781.496 230.396 782.28 230.58 782.952 230.948C783.64 231.316 784.16 231.836 784.512 232.508V226.46H787.584V243.5H784.656L784.584 241.604C784.232 242.292 783.704 242.828 783 243.212C782.296 243.596 781.496 243.788 780.6 243.788ZM781.536 241.292C782.176 241.292 782.712 241.132 783.144 240.812C783.592 240.492 783.928 240.02 784.152 239.396C784.392 238.756 784.512 237.988 784.512 237.092C784.512 236.18 784.392 235.412 784.152 234.788C783.928 234.164 783.592 233.692 783.144 233.372C782.712 233.052 782.176 232.892 781.536 232.892C780.608 232.892 779.864 233.268 779.304 234.02C778.76 234.756 778.488 235.78 778.488 237.092C778.488 238.372 778.76 239.396 779.304 240.164C779.864 240.916 780.608 241.292 781.536 241.292ZM795.8 243.788C794.536 243.788 793.424 243.516 792.464 242.972C791.52 242.412 790.784 241.628 790.256 240.62C789.744 239.612 789.488 238.436 789.488 237.092C789.488 235.732 789.744 234.556 790.256 233.564C790.784 232.556 791.52 231.78 792.464 231.236C793.424 230.676 794.536 230.396 795.8 230.396C797.064 230.396 798.168 230.676 799.112 231.236C800.056 231.78 800.784 232.556 801.296 233.564C801.824 234.556 802.088 235.732 802.088 237.092C802.088 238.436 801.824 239.612 801.296 240.62C800.784 241.628 800.056 242.412 799.112 242.972C798.168 243.516 797.064 243.788 795.8 243.788ZM795.8 241.292C796.792 241.292 797.552 240.924 798.08 240.188C798.624 239.452 798.896 238.42 798.896 237.092C798.896 235.78 798.624 234.756 798.08 234.02C797.552 233.268 796.792 232.892 795.8 232.892C794.808 232.892 794.04 233.268 793.496 234.02C792.952 234.756 792.68 235.78 792.68 237.092C792.68 238.42 792.952 239.452 793.496 240.188C794.04 240.924 794.808 241.292 795.8 241.292ZM806.221 243.5L802.357 230.684H805.501L807.997 240.02L810.565 230.684H813.253L815.845 240.02L818.341 230.684H821.485L817.621 243.5H814.453L811.909 234.908L809.389 243.5H806.221ZM822.647 243.5V230.684H825.431L825.551 234.284L825.191 234.14C825.319 233.244 825.583 232.524 825.983 231.98C826.383 231.436 826.871 231.036 827.447 230.78C828.023 230.524 828.655 230.396 829.343 230.396C830.287 230.396 831.079 230.604 831.719 231.02C832.375 231.436 832.871 232.012 833.207 232.748C833.543 233.468 833.711 234.308 833.711 235.268V243.5H830.639V236.252C830.639 235.532 830.567 234.924 830.423 234.428C830.279 233.932 830.039 233.556 829.703 233.3C829.383 233.028 828.951 232.892 828.407 232.892C827.591 232.892 826.935 233.18 826.439 233.756C825.959 234.332 825.719 235.164 825.719 236.252V243.5H822.647Z" fill="#FAFAFA"/>
<rect width="16" height="16" transform="translate(1234 227)" fill="white"/>
<path d="M1246 237L1242 233L1238 237" stroke="#525252" stroke-width="1.5" stroke-linecap="round" stroke-linejoin="round"/>
<path d="M673 848C673 843.582 676.582 840 681 840H1242C1246.42 840 1250 843.582 1250 848V887C1250 891.418 1246.42 895 1242 895H681C676.582 895 673 891.418 673 887V848Z" fill="#E9E9E9"/>
<path d="M680.44 874.82C679.147 874.82 678.007 874.527 677.02 873.94C676.033 873.34 675.26 872.493 674.7 871.4C674.14 870.293 673.86 868.967 673.86 867.42C673.86 865.9 674.133 864.587 674.68 863.48C675.227 862.36 675.993 861.5 676.98 860.9C677.967 860.287 679.127 859.98 680.46 859.98C682.273 859.98 683.68 860.433 684.68 861.34C685.68 862.233 686.333 863.487 686.64 865.1L683.92 865.24C683.747 864.307 683.373 863.573 682.8 863.04C682.227 862.507 681.447 862.24 680.46 862.24C679.66 862.24 678.967 862.453 678.38 862.88C677.793 863.307 677.34 863.907 677.02 864.68C676.7 865.453 676.54 866.367 676.54 867.42C676.54 868.487 676.7 869.407 677.02 870.18C677.353 870.94 677.813 871.527 678.4 871.94C678.987 872.353 679.667 872.56 680.44 872.56C681.493 872.56 682.307 872.273 682.88 871.7C683.467 871.113 683.84 870.313 684 869.3L686.72 869.44C686.533 870.547 686.173 871.507 685.64 872.32C685.107 873.12 684.4 873.74 683.52 874.18C682.653 874.607 681.627 874.82 680.44 874.82ZM688.336 874.5V860.3H690.896V866.26H690.576C690.683 865.647 690.896 865.147 691.216 864.76C691.536 864.36 691.929 864.067 692.396 863.88C692.863 863.68 693.376 863.58 693.936 863.58C694.723 863.58 695.383 863.753 695.916 864.1C696.463 864.433 696.869 864.907 697.136 865.52C697.416 866.133 697.556 866.84 697.556 867.64V874.5H694.996V868.26C694.996 867.393 694.849 866.747 694.556 866.32C694.263 865.88 693.803 865.66 693.176 865.66C692.483 865.66 691.929 865.887 691.516 866.34C691.103 866.793 690.896 867.453 690.896 868.32V874.5H688.336ZM703.214 874.74C702.134 874.74 701.274 874.387 700.634 873.68C700.007 872.96 699.694 871.967 699.694 870.7V863.82H702.254V870.06C702.254 870.953 702.4 871.613 702.694 872.04C703 872.453 703.46 872.66 704.074 872.66C704.767 872.66 705.3 872.433 705.674 871.98C706.06 871.513 706.254 870.84 706.254 869.96V863.82H708.814V874.5H706.474L706.414 871.56L706.734 871.66C706.574 872.673 706.194 873.44 705.594 873.96C704.994 874.48 704.2 874.74 703.214 874.74ZM711.227 874.5V863.82H713.547L713.647 866.82L713.347 866.7C713.454 865.953 713.674 865.353 714.007 864.9C714.341 864.447 714.747 864.113 715.227 863.9C715.707 863.687 716.234 863.58 716.807 863.58C717.594 863.58 718.254 863.753 718.787 864.1C719.334 864.447 719.747 864.927 720.027 865.54C720.307 866.14 720.447 866.84 720.447 867.64V874.5H717.887V868.46C717.887 867.86 717.827 867.353 717.707 866.94C717.587 866.527 717.387 866.213 717.107 866C716.841 865.773 716.481 865.66 716.027 865.66C715.347 865.66 714.801 865.9 714.387 866.38C713.987 866.86 713.787 867.553 713.787 868.46V874.5H711.227ZM722.663 874.5V860.3H725.223V868.64L729.603 863.82H732.763L728.583 868.26L732.903 874.5H730.023L726.903 869.78L725.223 871.56V874.5H722.663ZM741.548 874.5V864.76H738.508V862.78H739.728C740.302 862.78 740.762 862.707 741.108 862.56C741.455 862.413 741.702 862.16 741.848 861.8C742.008 861.427 742.088 860.927 742.088 860.3H744.148V874.5H741.548Z" fill="#171717"/>
<path d="M1238 865.5L1242 869.5L1246 865.5" stroke="#525252" stroke-width="1.5" stroke-linecap="round" stroke-linejoin="round"/>
<rect x="673" y="894" width="577" height="1" fill="#E5E5E5"/>
<path d="M673 903C673 898.582 676.582 895 681 895H1242C1246.42 895 1250 898.582 1250 903V942C1250 946.418 1246.42 950 1242 950H681C676.582 950 673 946.418 673 942V903Z" fill="#E9E9E9"/>
<path d="M680.44 929.82C679.147 929.82 678.007 929.527 677.02 928.94C676.033 928.34 675.26 927.493 674.7 926.4C674.14 925.293 673.86 923.967 673.86 922.42C673.86 920.9 674.133 919.587 674.68 918.48C675.227 917.36 675.993 916.5 676.98 915.9C677.967 915.287 679.127 914.98 680.46 914.98C682.273 914.98 683.68 915.433 684.68 916.34C685.68 917.233 686.333 918.487 686.64 920.1L683.92 920.24C683.747 919.307 683.373 918.573 682.8 918.04C682.227 917.507 681.447 917.24 680.46 917.24C679.66 917.24 678.967 917.453 678.38 917.88C677.793 918.307 677.34 918.907 677.02 919.68C676.7 920.453 676.54 921.367 676.54 922.42C676.54 923.487 676.7 924.407 677.02 925.18C677.353 925.94 677.813 926.527 678.4 926.94C678.987 927.353 679.667 927.56 680.44 927.56C681.493 927.56 682.307 927.273 682.88 926.7C683.467 926.113 683.84 925.313 684 924.3L686.72 924.44C686.533 925.547 686.173 926.507 685.64 927.32C685.107 928.12 684.4 928.74 683.52 929.18C682.653 929.607 681.627 929.82 680.44 929.82ZM688.336 929.5V915.3H690.896V921.26H690.576C690.683 920.647 690.896 920.147 691.216 919.76C691.536 919.36 691.929 919.067 692.396 918.88C692.863 918.68 693.376 918.58 693.936 918.58C694.723 918.58 695.383 918.753 695.916 919.1C696.463 919.433 696.869 919.907 697.136 920.52C697.416 921.133 697.556 921.84 697.556 922.64V929.5H694.996V923.26C694.996 922.393 694.849 921.747 694.556 921.32C694.263 920.88 693.803 920.66 693.176 920.66C692.483 920.66 691.929 920.887 691.516 921.34C691.103 921.793 690.896 922.453 690.896 923.32V929.5H688.336ZM703.214 929.74C702.134 929.74 701.274 929.387 700.634 928.68C700.007 927.96 699.694 926.967 699.694 925.7V918.82H702.254V925.06C702.254 925.953 702.4 926.613 702.694 927.04C703 927.453 703.46 927.66 704.074 927.66C704.767 927.66 705.3 927.433 705.674 926.98C706.06 926.513 706.254 925.84 706.254 924.96V918.82H708.814V929.5H706.474L706.414 926.56L706.734 926.66C706.574 927.673 706.194 928.44 705.594 928.96C704.994 929.48 704.2 929.74 703.214 929.74ZM711.227 929.5V918.82H713.547L713.647 921.82L713.347 921.7C713.454 920.953 713.674 920.353 714.007 919.9C714.341 919.447 714.747 919.113 715.227 918.9C715.707 918.687 716.234 918.58 716.807 918.58C717.594 918.58 718.254 918.753 718.787 919.1C719.334 919.447 719.747 919.927 720.027 920.54C720.307 921.14 720.447 921.84 720.447 922.64V929.5H717.887V923.46C717.887 922.86 717.827 922.353 717.707 921.94C717.587 921.527 717.387 921.213 717.107 921C716.841 920.773 716.481 920.66 716.027 920.66C715.347 920.66 714.801 920.9 714.387 921.38C713.987 921.86 713.787 922.553 713.787 923.46V929.5H711.227ZM722.663 929.5V915.3H725.223V923.64L729.603 918.82H732.763L728.583 923.26L732.903 929.5H730.023L726.903 924.78L725.223 926.56V929.5H722.663ZM738.928 929.5C738.928 928.353 739.088 927.353 739.408 926.5C739.728 925.633 740.268 924.847 741.028 924.14C741.788 923.42 742.815 922.72 744.108 922.04C744.748 921.693 745.262 921.387 745.648 921.12C746.035 920.853 746.315 920.58 746.488 920.3C746.662 920.007 746.748 919.66 746.748 919.26C746.748 918.86 746.662 918.513 746.488 918.22C746.315 917.913 746.055 917.673 745.708 917.5C745.375 917.327 744.955 917.24 744.448 917.24C743.635 917.24 742.988 917.473 742.508 917.94C742.042 918.393 741.755 919.047 741.648 919.9L738.968 919.74C739.102 918.26 739.642 917.1 740.588 916.26C741.548 915.407 742.835 914.98 744.448 914.98C745.488 914.98 746.382 915.16 747.128 915.52C747.875 915.867 748.442 916.36 748.828 917C749.228 917.64 749.428 918.38 749.428 919.22C749.428 919.94 749.302 920.56 749.048 921.08C748.808 921.6 748.408 922.08 747.848 922.52C747.302 922.947 746.562 923.407 745.628 923.9C744.455 924.527 743.575 925.133 742.988 925.72C742.402 926.293 742.088 926.8 742.048 927.24H749.428V929.5H738.928Z" fill="#171717"/>
<path d="M1238 920.5L1242 924.5L1246 920.5" stroke="#525252" stroke-width="1.5" stroke-linecap="round" stroke-linejoin="round"/>
<rect x="673" y="949" width="577" height="1" fill="#E5E5E5"/>
<path d="M673 958C673 953.582 676.582 950 681 950H1242C1246.42 950 1250 953.582 1250 958V997C1250 1001.42 1246.42 1005 1242 1005H681C676.582 1005 673 1001.42 673 997V958Z" fill="#E9E9E9"/>
<path d="M680.44 984.82C679.147 984.82 678.007 984.527 677.02 983.94C676.033 983.34 675.26 982.493 674.7 981.4C674.14 980.293 673.86 978.967 673.86 977.42C673.86 975.9 674.133 974.587 674.68 973.48C675.227 972.36 675.993 971.5 676.98 970.9C677.967 970.287 679.127 969.98 680.46 969.98C682.273 969.98 683.68 970.433 684.68 971.34C685.68 972.233 686.333 973.487 686.64 975.1L683.92 975.24C683.747 974.307 683.373 973.573 682.8 973.04C682.227 972.507 681.447 972.24 680.46 972.24C679.66 972.24 678.967 972.453 678.38 972.88C677.793 973.307 677.34 973.907 677.02 974.68C676.7 975.453 676.54 976.367 676.54 977.42C676.54 978.487 676.7 979.407 677.02 980.18C677.353 980.94 677.813 981.527 678.4 981.94C678.987 982.353 679.667 982.56 680.44 982.56C681.493 982.56 682.307 982.273 682.88 981.7C683.467 981.113 683.84 980.313 684 979.3L686.72 979.44C686.533 980.547 686.173 981.507 685.64 982.32C685.107 983.12 684.4 983.74 683.52 984.18C682.653 984.607 681.627 984.82 680.44 984.82ZM688.336 984.5V970.3H690.896V976.26H690.576C690.683 975.647 690.896 975.147 691.216 974.76C691.536 974.36 691.929 974.067 692.396 973.88C692.863 973.68 693.376 973.58 693.936 973.58C694.723 973.58 695.383 973.753 695.916 974.1C696.463 974.433 696.869 974.907 697.136 975.52C697.416 976.133 697.556 976.84 697.556 977.64V984.5H694.996V978.26C694.996 977.393 694.849 976.747 694.556 976.32C694.263 975.88 693.803 975.66 693.176 975.66C692.483 975.66 691.929 975.887 691.516 976.34C691.103 976.793 690.896 977.453 690.896 978.32V984.5H688.336ZM703.214 984.74C702.134 984.74 701.274 984.387 700.634 983.68C700.007 982.96 699.694 981.967 699.694 980.7V973.82H702.254V980.06C702.254 980.953 702.4 981.613 702.694 982.04C703 982.453 703.46 982.66 704.074 982.66C704.767 982.66 705.3 982.433 705.674 981.98C706.06 981.513 706.254 980.84 706.254 979.96V973.82H708.814V984.5H706.474L706.414 981.56L706.734 981.66C706.574 982.673 706.194 983.44 705.594 983.96C704.994 984.48 704.2 984.74 703.214 984.74ZM711.227 984.5V973.82H713.547L713.647 976.82L713.347 976.7C713.454 975.953 713.674 975.353 714.007 974.9C714.341 974.447 714.747 974.113 715.227 973.9C715.707 973.687 716.234 973.58 716.807 973.58C717.594 973.58 718.254 973.753 718.787 974.1C719.334 974.447 719.747 974.927 720.027 975.54C720.307 976.14 720.447 976.84 720.447 977.64V984.5H717.887V978.46C717.887 977.86 717.827 977.353 717.707 976.94C717.587 976.527 717.387 976.213 717.107 976C716.841 975.773 716.481 975.66 716.027 975.66C715.347 975.66 714.801 975.9 714.387 976.38C713.987 976.86 713.787 977.553 713.787 978.46V984.5H711.227ZM722.663 984.5V970.3H725.223V978.64L729.603 973.82H732.763L728.583 978.26L732.903 984.5H730.023L726.903 979.78L725.223 981.56V984.5H722.663ZM744.068 984.82C742.375 984.82 741.068 984.433 740.148 983.66C739.228 982.873 738.735 981.82 738.668 980.5L741.328 980.38C741.408 981.14 741.688 981.693 742.168 982.04C742.662 982.387 743.295 982.56 744.068 982.56C744.588 982.56 745.062 982.487 745.488 982.34C745.915 982.18 746.255 981.94 746.508 981.62C746.762 981.3 746.888 980.887 746.888 980.38C746.888 979.607 746.628 979.033 746.108 978.66C745.588 978.287 744.895 978.1 744.028 978.1H742.788V976.04H744.028C744.708 976.04 745.275 975.9 745.728 975.62C746.195 975.327 746.428 974.84 746.428 974.16C746.428 973.547 746.235 973.073 745.848 972.74C745.475 972.407 744.888 972.24 744.088 972.24C743.302 972.24 742.708 972.4 742.308 972.72C741.908 973.04 741.668 973.46 741.588 973.98L738.928 973.84C739.075 972.667 739.588 971.733 740.468 971.04C741.362 970.333 742.568 969.98 744.088 969.98C745.155 969.98 746.062 970.14 746.808 970.46C747.555 970.78 748.122 971.233 748.508 971.82C748.908 972.407 749.108 973.107 749.108 973.92C749.108 974.773 748.828 975.473 748.268 976.02C747.708 976.567 746.908 976.933 745.868 977.12V976.78C747.028 976.94 747.935 977.353 748.588 978.02C749.242 978.673 749.568 979.507 749.568 980.52C749.568 981.427 749.342 982.2 748.888 982.84C748.435 983.48 747.795 983.973 746.968 984.32C746.142 984.653 745.175 984.82 744.068 984.82Z" fill="#171717"/>
<path d="M1238 975.5L1242 979.5L1246 975.5" stroke="#525252" stroke-width="1.5" stroke-linecap="round" stroke-linejoin="round"/>
<rect x="673" y="1004" width="577" height="1" fill="#E5E5E5"/>
<rect x="997" y="217" width="118.5" height="36" rx="8" fill="#F5F5F5"/>
<path d="M1016.44 228.917C1016.45 228.918 1016.46 228.918 1016.46 228.918C1016.5 228.921 1016.54 228.927 1016.58 228.935C1016.61 228.943 1016.65 228.953 1016.68 228.965C1016.69 228.969 1016.7 228.971 1016.71 228.975C1016.74 228.989 1016.77 229.008 1016.81 229.028C1016.82 229.034 1016.83 229.039 1016.84 229.045C1016.88 229.072 1016.91 229.102 1016.95 229.136L1019.61 231.803C1019.91 232.096 1019.91 232.571 1019.61 232.864C1019.32 233.156 1018.85 233.156 1018.55 232.864L1017.17 231.477V240.333C1017.17 240.747 1016.83 241.083 1016.42 241.083C1016 241.083 1015.67 240.747 1015.67 240.333V231.477L1014.28 232.864C1013.99 233.156 1013.51 233.156 1013.22 232.864C1012.93 232.571 1012.93 232.096 1013.22 231.803L1015.89 229.136L1015.94 229.084C1015.95 229.077 1015.96 229.072 1015.97 229.065C1015.99 229.052 1016.01 229.04 1016.03 229.028C1016.05 229.014 1016.07 229.002 1016.1 228.991C1016.11 228.982 1016.13 228.973 1016.15 228.965C1016.18 228.956 1016.2 228.948 1016.23 228.942C1016.25 228.936 1016.28 228.929 1016.3 228.925C1016.31 228.924 1016.32 228.922 1016.33 228.921C1016.36 228.918 1016.39 228.917 1016.42 228.917C1016.42 228.917 1016.43 228.917 1016.44 228.917ZM1023.08 228.917C1023.5 228.917 1023.83 229.252 1023.83 229.667V238.521L1025.22 237.136C1025.51 236.843 1025.99 236.844 1026.28 237.136C1026.57 237.429 1026.57 237.904 1026.28 238.197L1023.61 240.864C1023.56 240.92 1023.49 240.961 1023.42 240.996C1023.41 241.005 1023.39 241.017 1023.37 241.025C1023.35 241.032 1023.33 241.036 1023.31 241.042C1023.24 241.066 1023.16 241.083 1023.08 241.083C1023 241.083 1022.91 241.064 1022.83 241.037C1022.82 241.033 1022.81 241.031 1022.8 241.026C1022.77 241.014 1022.75 240.999 1022.72 240.984C1022.66 240.951 1022.6 240.914 1022.55 240.864L1019.89 238.197C1019.59 237.904 1019.59 237.429 1019.89 237.136C1020.18 236.843 1020.65 236.843 1020.95 237.136L1022.33 238.523V229.667C1022.33 229.252 1022.67 228.917 1023.08 228.917Z" fill="#171717"/>
<path d="M1038.42 239.668C1037.79 239.668 1037.23 239.509 1036.76 239.192C1036.29 238.875 1035.93 238.427 1035.68 237.848C1035.44 237.26 1035.32 236.569 1035.32 235.776C1035.32 234.983 1035.44 234.297 1035.69 233.718C1035.95 233.13 1036.31 232.677 1036.77 232.36C1037.24 232.043 1037.79 231.884 1038.42 231.884C1038.94 231.884 1039.39 231.991 1039.8 232.206C1040.2 232.421 1040.5 232.719 1040.71 233.102V229.56H1042.19V239.5H1040.8L1040.76 238.38C1040.56 238.781 1040.24 239.099 1039.82 239.332C1039.41 239.556 1038.95 239.668 1038.42 239.668ZM1038.82 238.38C1039.22 238.38 1039.56 238.277 1039.84 238.072C1040.12 237.867 1040.33 237.568 1040.48 237.176C1040.63 236.784 1040.71 236.317 1040.71 235.776C1040.71 235.216 1040.63 234.745 1040.48 234.362C1040.33 233.97 1040.12 233.676 1039.84 233.48C1039.56 233.275 1039.22 233.172 1038.82 233.172C1038.22 233.172 1037.74 233.405 1037.39 233.872C1037.03 234.329 1036.86 234.964 1036.86 235.776C1036.86 236.579 1037.03 237.213 1037.39 237.68C1037.74 238.147 1038.22 238.38 1038.82 238.38ZM1047.3 239.668C1046.59 239.668 1045.97 239.509 1045.43 239.192C1044.9 238.875 1044.49 238.422 1044.2 237.834C1043.91 237.246 1043.77 236.56 1043.77 235.776C1043.77 234.983 1043.91 234.297 1044.2 233.718C1044.49 233.139 1044.9 232.691 1045.43 232.374C1045.97 232.047 1046.59 231.884 1047.3 231.884C1048 231.884 1048.63 232.047 1049.16 232.374C1049.69 232.691 1050.1 233.139 1050.39 233.718C1050.68 234.297 1050.82 234.983 1050.82 235.776C1050.82 236.56 1050.68 237.246 1050.39 237.834C1050.1 238.422 1049.69 238.875 1049.16 239.192C1048.63 239.509 1048 239.668 1047.3 239.668ZM1047.3 238.38C1047.93 238.38 1048.42 238.151 1048.77 237.694C1049.11 237.227 1049.28 236.588 1049.28 235.776C1049.28 234.964 1049.11 234.329 1048.77 233.872C1048.42 233.405 1047.93 233.172 1047.3 233.172C1046.67 233.172 1046.18 233.405 1045.83 233.872C1045.48 234.329 1045.31 234.964 1045.31 235.776C1045.31 236.588 1045.48 237.227 1045.83 237.694C1046.18 238.151 1046.67 238.38 1047.3 238.38ZM1053.69 239.5L1051.42 232.052H1052.97L1054.57 237.876L1056.21 232.052H1057.61L1059.24 237.876L1060.85 232.052H1062.41L1060.14 239.5H1058.47L1056.91 234.18L1055.34 239.5H1053.69ZM1063.51 239.5V232.052H1064.87L1064.92 234.04L1064.74 233.942C1064.83 233.457 1064.98 233.065 1065.22 232.766C1065.45 232.467 1065.74 232.248 1066.07 232.108C1066.41 231.959 1066.77 231.884 1067.16 231.884C1067.72 231.884 1068.19 232.01 1068.55 232.262C1068.92 232.505 1069.2 232.841 1069.39 233.27C1069.59 233.69 1069.68 234.171 1069.68 234.712V239.5H1068.2V235.16C1068.2 234.721 1068.15 234.353 1068.06 234.054C1067.97 233.755 1067.81 233.527 1067.6 233.368C1067.38 233.209 1067.1 233.13 1066.76 233.13C1066.24 233.13 1065.81 233.303 1065.48 233.648C1065.16 233.993 1064.99 234.497 1064.99 235.16V239.5H1063.51ZM1073.3 239.5C1072.81 239.5 1072.42 239.374 1072.12 239.122C1071.82 238.87 1071.67 238.469 1071.67 237.918V229.56H1073.16V237.778C1073.16 237.946 1073.2 238.072 1073.28 238.156C1073.38 238.24 1073.51 238.282 1073.68 238.282H1074.26V239.5H1073.3ZM1078.66 239.668C1077.96 239.668 1077.33 239.509 1076.8 239.192C1076.27 238.875 1075.86 238.422 1075.57 237.834C1075.28 237.246 1075.14 236.56 1075.14 235.776C1075.14 234.983 1075.28 234.297 1075.57 233.718C1075.86 233.139 1076.27 232.691 1076.8 232.374C1077.33 232.047 1077.96 231.884 1078.66 231.884C1079.37 231.884 1079.99 232.047 1080.53 232.374C1081.06 232.691 1081.47 233.139 1081.76 233.718C1082.05 234.297 1082.19 234.983 1082.19 235.776C1082.19 236.56 1082.05 237.246 1081.76 237.834C1081.47 238.422 1081.06 238.875 1080.53 239.192C1079.99 239.509 1079.37 239.668 1078.66 239.668ZM1078.66 238.38C1079.3 238.38 1079.79 238.151 1080.13 237.694C1080.48 237.227 1080.65 236.588 1080.65 235.776C1080.65 234.964 1080.48 234.329 1080.13 233.872C1079.79 233.405 1079.3 233.172 1078.66 233.172C1078.04 233.172 1077.55 233.405 1077.19 233.872C1076.85 234.329 1076.68 234.964 1076.68 235.776C1076.68 236.588 1076.85 237.227 1077.19 237.694C1077.55 238.151 1078.04 238.38 1078.66 238.38ZM1086 239.668C1085.22 239.668 1084.6 239.491 1084.14 239.136C1083.68 238.781 1083.45 238.282 1083.45 237.638C1083.45 236.994 1083.64 236.495 1084.03 236.14C1084.42 235.776 1085.02 235.515 1085.83 235.356L1088.39 234.866C1088.39 234.287 1088.26 233.858 1087.99 233.578C1087.72 233.289 1087.32 233.144 1086.78 233.144C1086.31 233.144 1085.93 233.251 1085.66 233.466C1085.39 233.671 1085.21 233.979 1085.1 234.39L1083.58 234.292C1083.72 233.545 1084.06 232.957 1084.61 232.528C1085.17 232.099 1085.9 231.884 1086.78 231.884C1087.79 231.884 1088.56 232.155 1089.08 232.696C1089.61 233.228 1089.88 233.979 1089.88 234.95V237.848C1089.88 238.025 1089.91 238.151 1089.96 238.226C1090.03 238.291 1090.13 238.324 1090.27 238.324H1090.54V239.5C1090.49 239.509 1090.41 239.519 1090.31 239.528C1090.21 239.537 1090.1 239.542 1089.99 239.542C1089.67 239.542 1089.4 239.491 1089.16 239.388C1088.94 239.285 1088.77 239.117 1088.66 238.884C1088.55 238.641 1088.49 238.319 1088.49 237.918L1088.65 237.988C1088.57 238.315 1088.41 238.604 1088.16 238.856C1087.91 239.108 1087.6 239.309 1087.22 239.458C1086.84 239.598 1086.44 239.668 1086 239.668ZM1086.24 238.492C1086.69 238.492 1087.07 238.408 1087.39 238.24C1087.7 238.063 1087.95 237.82 1088.13 237.512C1088.3 237.204 1088.39 236.854 1088.39 236.462V235.986L1086.21 236.406C1085.76 236.49 1085.44 236.625 1085.26 236.812C1085.08 236.989 1084.99 237.218 1084.99 237.498C1084.99 237.815 1085.1 238.063 1085.31 238.24C1085.54 238.408 1085.85 238.492 1086.24 238.492ZM1094.45 239.668C1093.81 239.668 1093.26 239.509 1092.78 239.192C1092.32 238.875 1091.96 238.427 1091.71 237.848C1091.46 237.26 1091.34 236.569 1091.34 235.776C1091.34 234.983 1091.47 234.297 1091.72 233.718C1091.97 233.13 1092.33 232.677 1092.8 232.36C1093.26 232.043 1093.81 231.884 1094.45 231.884C1094.96 231.884 1095.42 231.991 1095.82 232.206C1096.22 232.421 1096.53 232.719 1096.73 233.102V229.56H1098.22V239.5H1096.83L1096.79 238.38C1096.58 238.781 1096.27 239.099 1095.85 239.332C1095.44 239.556 1094.97 239.668 1094.45 239.668ZM1094.84 238.38C1095.24 238.38 1095.58 238.277 1095.86 238.072C1096.14 237.867 1096.36 237.568 1096.51 237.176C1096.66 236.784 1096.73 236.317 1096.73 235.776C1096.73 235.216 1096.66 234.745 1096.51 234.362C1096.36 233.97 1096.14 233.676 1095.86 233.48C1095.58 233.275 1095.24 233.172 1094.84 233.172C1094.24 233.172 1093.77 233.405 1093.41 233.872C1093.06 234.329 1092.88 234.964 1092.88 235.776C1092.88 236.579 1093.06 237.213 1093.41 237.68C1093.77 238.147 1094.24 238.38 1094.84 238.38Z" fill="#171717"/>
<rect x="1135" y="216" width="82.833" height="36" rx="8" fill="#F5F5F5"/>
<path d="M1159.75 227.25C1160.3 227.25 1160.83 227.47 1161.22 227.86C1161.61 228.251 1161.83 228.781 1161.83 229.333V240C1161.83 240.267 1161.69 240.514 1161.46 240.648C1161.23 240.782 1160.94 240.784 1160.71 240.651L1156.42 238.196L1152.12 240.651C1151.89 240.784 1151.61 240.782 1151.37 240.648C1151.14 240.514 1151 240.267 1151 240V229.333C1151 228.781 1151.22 228.251 1151.61 227.86C1152 227.47 1152.53 227.25 1153.08 227.25H1159.75ZM1153.08 228.75C1152.93 228.75 1152.78 228.812 1152.67 228.921C1152.56 229.03 1152.5 229.178 1152.5 229.333V238.707L1156.04 236.683L1156.13 236.639C1156.34 236.552 1156.59 236.567 1156.79 236.683L1160.33 238.707V229.333C1160.33 229.178 1160.27 229.03 1160.16 228.921C1160.05 228.812 1159.9 228.75 1159.75 228.75H1153.08Z" fill="#171717"/>
<path d="M1173.98 238.668C1173.27 238.668 1172.65 238.509 1172.12 238.192C1171.58 237.875 1171.17 237.422 1170.88 236.834C1170.59 236.246 1170.45 235.56 1170.45 234.776C1170.45 233.992 1170.59 233.311 1170.88 232.732C1171.17 232.144 1171.58 231.691 1172.12 231.374C1172.65 231.047 1173.27 230.884 1173.98 230.884C1174.58 230.884 1175.12 230.991 1175.59 231.206C1176.06 231.411 1176.45 231.715 1176.74 232.116C1177.03 232.517 1177.23 233.007 1177.31 233.586L1175.76 233.67C1175.68 233.185 1175.49 232.816 1175.17 232.564C1174.85 232.303 1174.45 232.172 1173.98 232.172C1173.35 232.172 1172.86 232.405 1172.51 232.872C1172.16 233.329 1171.99 233.964 1171.99 234.776C1171.99 235.588 1172.16 236.227 1172.51 236.694C1172.86 237.151 1173.35 237.38 1173.98 237.38C1174.45 237.38 1174.85 237.249 1175.17 236.988C1175.49 236.717 1175.68 236.311 1175.76 235.77L1177.31 235.854C1177.23 236.423 1177.03 236.918 1176.74 237.338C1176.45 237.758 1176.06 238.085 1175.59 238.318C1175.12 238.551 1174.58 238.668 1173.98 238.668ZM1181.8 238.668C1181.09 238.668 1180.47 238.509 1179.94 238.192C1179.41 237.875 1179 237.422 1178.71 236.834C1178.42 236.246 1178.27 235.56 1178.27 234.776C1178.27 233.983 1178.42 233.297 1178.71 232.718C1179 232.139 1179.41 231.691 1179.94 231.374C1180.47 231.047 1181.09 230.884 1181.8 230.884C1182.51 230.884 1183.13 231.047 1183.66 231.374C1184.19 231.691 1184.6 232.139 1184.89 232.718C1185.18 233.297 1185.33 233.983 1185.33 234.776C1185.33 235.56 1185.18 236.246 1184.89 236.834C1184.6 237.422 1184.19 237.875 1183.66 238.192C1183.13 238.509 1182.51 238.668 1181.8 238.668ZM1181.8 237.38C1182.43 237.38 1182.92 237.151 1183.27 236.694C1183.62 236.227 1183.79 235.588 1183.79 234.776C1183.79 233.964 1183.62 233.329 1183.27 232.872C1182.92 232.405 1182.43 232.172 1181.8 232.172C1181.17 232.172 1180.68 232.405 1180.33 232.872C1179.98 233.329 1179.81 233.964 1179.81 234.776C1179.81 235.588 1179.98 236.227 1180.33 236.694C1180.68 237.151 1181.17 237.38 1181.8 237.38ZM1186.9 240.6V231.052H1188.3L1188.34 232.648L1188.17 232.564C1188.36 232.013 1188.67 231.598 1189.1 231.318C1189.52 231.029 1190.02 230.884 1190.58 230.884C1191.31 230.884 1191.9 231.066 1192.37 231.43C1192.85 231.785 1193.2 232.256 1193.42 232.844C1193.65 233.432 1193.77 234.076 1193.77 234.776C1193.77 235.476 1193.65 236.12 1193.42 236.708C1193.2 237.296 1192.85 237.772 1192.37 238.136C1191.9 238.491 1191.31 238.668 1190.58 238.668C1190.21 238.668 1189.86 238.603 1189.53 238.472C1189.2 238.341 1188.92 238.159 1188.69 237.926C1188.47 237.683 1188.31 237.399 1188.21 237.072L1188.38 236.904V240.6H1186.9ZM1190.31 237.38C1190.91 237.38 1191.38 237.151 1191.71 236.694C1192.06 236.237 1192.23 235.597 1192.23 234.776C1192.23 233.955 1192.06 233.315 1191.71 232.858C1191.38 232.401 1190.91 232.172 1190.31 232.172C1189.92 232.172 1189.58 232.27 1189.29 232.466C1189 232.653 1188.78 232.942 1188.62 233.334C1188.46 233.726 1188.38 234.207 1188.38 234.776C1188.38 235.345 1188.46 235.826 1188.61 236.218C1188.76 236.61 1188.99 236.904 1189.28 237.1C1189.58 237.287 1189.92 237.38 1190.31 237.38ZM1195.54 240.6V239.382H1196.45C1196.7 239.382 1196.88 239.345 1197.01 239.27C1197.13 239.195 1197.22 239.069 1197.29 238.892L1197.52 238.276H1197.06L1194.37 231.052H1195.94L1197.99 236.904L1199.93 231.052H1201.51L1198.55 239.368C1198.4 239.797 1198.17 240.11 1197.87 240.306C1197.58 240.502 1197.18 240.6 1196.66 240.6H1195.54Z" fill="#171717"/>
<path d="M347.704 1061.19C346.893 1061.19 346.184 1061.01 345.576 1060.65C344.968 1060.29 344.499 1059.77 344.168 1059.1C343.837 1058.42 343.672 1057.64 343.672 1056.74C343.672 1055.84 343.837 1055.05 344.168 1054.39C344.499 1053.73 344.968 1053.22 345.576 1052.86C346.184 1052.48 346.893 1052.3 347.704 1052.3C348.515 1052.3 349.224 1052.48 349.832 1052.86C350.44 1053.22 350.909 1053.73 351.24 1054.39C351.571 1055.05 351.736 1055.84 351.736 1056.74C351.736 1057.64 351.571 1058.42 351.24 1059.1C350.909 1059.77 350.44 1060.29 349.832 1060.65C349.224 1061.01 348.515 1061.19 347.704 1061.19ZM347.704 1059.72C348.429 1059.72 348.989 1059.46 349.384 1058.94C349.779 1058.4 349.976 1057.67 349.976 1056.74C349.976 1055.82 349.779 1055.09 349.384 1054.57C348.989 1054.03 348.429 1053.77 347.704 1053.77C346.989 1053.77 346.429 1054.03 346.024 1054.57C345.629 1055.09 345.432 1055.82 345.432 1056.74C345.432 1057.67 345.629 1058.4 346.024 1058.94C346.429 1059.46 346.989 1059.72 347.704 1059.72ZM353.986 1061V1051.94C353.986 1051.24 354.183 1050.68 354.578 1050.26C354.973 1049.85 355.591 1049.64 356.434 1049.64H357.938V1051.03H356.658C356.327 1051.03 356.082 1051.12 355.922 1051.3C355.762 1051.47 355.682 1051.72 355.682 1052.04V1061H353.986ZM352.802 1053.98V1052.6H357.81V1053.98H352.802ZM365.43 1061V1052.9H363.03V1051.51H364.006C364.433 1051.51 364.78 1051.46 365.046 1051.35C365.313 1051.23 365.505 1051.04 365.622 1050.78C365.74 1050.5 365.798 1050.12 365.798 1049.64H367.158V1061H365.43ZM373.85 1061.26C372.538 1061.26 371.525 1060.95 370.81 1060.34C370.106 1059.74 369.728 1058.94 369.674 1057.94L371.45 1057.85C371.514 1058.5 371.76 1058.97 372.186 1059.26C372.624 1059.53 373.178 1059.67 373.85 1059.67C374.298 1059.67 374.709 1059.61 375.082 1059.5C375.466 1059.37 375.77 1059.17 375.994 1058.89C376.229 1058.6 376.346 1058.23 376.346 1057.77C376.346 1057.09 376.117 1056.58 375.658 1056.26C375.2 1055.93 374.592 1055.77 373.834 1055.77H372.89V1054.26H373.834C374.442 1054.26 374.949 1054.14 375.354 1053.9C375.76 1053.65 375.962 1053.22 375.962 1052.62C375.962 1052.08 375.792 1051.68 375.45 1051.4C375.109 1051.11 374.586 1050.97 373.882 1050.97C373.2 1050.97 372.682 1051.1 372.33 1051.37C371.978 1051.63 371.77 1052 371.706 1052.46L369.93 1052.36C370.037 1051.46 370.426 1050.74 371.098 1050.2C371.781 1049.66 372.709 1049.38 373.882 1049.38C374.693 1049.38 375.386 1049.51 375.962 1049.77C376.538 1050.01 376.981 1050.37 377.29 1050.84C377.6 1051.31 377.754 1051.86 377.754 1052.49C377.754 1053.18 377.53 1053.75 377.082 1054.18C376.645 1054.62 376 1054.92 375.146 1055.08V1054.79C376.074 1054.91 376.805 1055.24 377.338 1055.78C377.872 1056.32 378.138 1057 378.138 1057.83C378.138 1058.55 377.957 1059.17 377.594 1059.69C377.232 1060.2 376.73 1060.59 376.09 1060.86C375.45 1061.12 374.704 1061.26 373.85 1061.26ZM379.85 1061C379.85 1060.15 379.978 1059.38 380.234 1058.71C380.49 1058.04 380.928 1057.42 381.546 1056.84C382.165 1056.26 383.018 1055.69 384.106 1055.11C384.629 1054.85 385.045 1054.6 385.354 1054.38C385.674 1054.14 385.904 1053.9 386.042 1053.66C386.181 1053.41 386.25 1053.11 386.25 1052.76C386.25 1052.4 386.17 1052.09 386.01 1051.83C385.861 1051.57 385.637 1051.36 385.338 1051.21C385.04 1051.05 384.661 1050.97 384.202 1050.97C383.477 1050.97 382.901 1051.17 382.474 1051.56C382.058 1051.94 381.797 1052.5 381.69 1053.22L379.898 1053.11C380.026 1051.97 380.458 1051.06 381.194 1050.39C381.941 1049.72 382.944 1049.38 384.202 1049.38C385.013 1049.38 385.701 1049.53 386.266 1049.82C386.842 1050.09 387.28 1050.48 387.578 1050.98C387.888 1051.49 388.042 1052.07 388.042 1052.73C388.042 1053.3 387.946 1053.8 387.754 1054.22C387.562 1054.63 387.242 1055.02 386.794 1055.38C386.346 1055.74 385.738 1056.11 384.97 1056.52C383.989 1057.04 383.248 1057.56 382.746 1058.07C382.245 1058.57 381.978 1059.02 381.946 1059.42H388.042V1061H379.85Z" fill="#333333"/>
<path d="M252.376 1060V1048.64H256.616C257.917 1048.64 258.931 1048.95 259.656 1049.58C260.381 1050.2 260.744 1051.07 260.744 1052.18C260.744 1052.91 260.579 1053.55 260.248 1054.1C259.917 1054.63 259.443 1055.04 258.824 1055.33C258.216 1055.61 257.48 1055.74 256.616 1055.74H254.104V1060H252.376ZM254.104 1054.18H256.568C257.347 1054.18 257.939 1054.01 258.344 1053.68C258.749 1053.34 258.952 1052.84 258.952 1052.18C258.952 1051.53 258.749 1051.04 258.344 1050.72C257.939 1050.39 257.347 1050.22 256.568 1050.22H254.104V1054.18ZM264.74 1060.19C263.855 1060.19 263.146 1059.99 262.612 1059.58C262.09 1059.18 261.828 1058.61 261.828 1057.87C261.828 1057.14 262.047 1056.57 262.484 1056.16C262.932 1055.74 263.62 1055.45 264.548 1055.26L267.476 1054.7C267.476 1054.04 267.322 1053.55 267.012 1053.23C266.703 1052.9 266.244 1052.74 265.636 1052.74C265.092 1052.74 264.666 1052.86 264.356 1053.1C264.047 1053.34 263.834 1053.69 263.716 1054.16L261.972 1054.05C262.132 1053.19 262.527 1052.52 263.156 1052.03C263.796 1051.54 264.623 1051.3 265.636 1051.3C266.788 1051.3 267.663 1051.61 268.26 1052.22C268.868 1052.83 269.172 1053.69 269.172 1054.8V1058.11C269.172 1058.31 269.204 1058.46 269.268 1058.54C269.343 1058.62 269.46 1058.66 269.62 1058.66H269.924V1060C269.871 1060.01 269.786 1060.02 269.668 1060.03C269.551 1060.04 269.428 1060.05 269.3 1060.05C268.938 1060.05 268.623 1059.99 268.356 1059.87C268.1 1059.75 267.908 1059.56 267.78 1059.3C267.652 1059.02 267.588 1058.65 267.588 1058.19L267.764 1058.27C267.679 1058.65 267.492 1058.98 267.204 1059.26C266.927 1059.55 266.57 1059.78 266.132 1059.95C265.706 1060.11 265.242 1060.19 264.74 1060.19ZM265.012 1058.85C265.524 1058.85 265.962 1058.75 266.324 1058.56C266.687 1058.36 266.97 1058.08 267.172 1057.73C267.375 1057.38 267.476 1056.98 267.476 1056.53V1055.98L264.98 1056.46C264.468 1056.56 264.106 1056.71 263.892 1056.93C263.69 1057.13 263.588 1057.39 263.588 1057.71C263.588 1058.07 263.711 1058.36 263.956 1058.56C264.212 1058.75 264.564 1058.85 265.012 1058.85ZM274.718 1062.59C274.046 1062.59 273.454 1062.49 272.942 1062.29C272.43 1062.09 272.008 1061.8 271.678 1061.42C271.347 1061.06 271.123 1060.63 271.006 1060.14L272.766 1060.03C272.883 1060.38 273.086 1060.66 273.374 1060.86C273.672 1061.08 274.12 1061.18 274.718 1061.18C275.422 1061.18 275.96 1061.03 276.334 1060.74C276.718 1060.44 276.91 1059.98 276.91 1059.38V1058.14C276.707 1058.58 276.382 1058.93 275.934 1059.18C275.486 1059.44 274.984 1059.57 274.43 1059.57C273.715 1059.57 273.08 1059.39 272.526 1059.04C271.971 1058.69 271.539 1058.2 271.23 1057.58C270.92 1056.97 270.766 1056.25 270.766 1055.44C270.766 1054.62 270.915 1053.9 271.214 1053.28C271.523 1052.66 271.95 1052.18 272.494 1051.82C273.048 1051.47 273.672 1051.3 274.366 1051.3C274.974 1051.3 275.507 1051.43 275.966 1051.71C276.435 1051.99 276.771 1052.36 276.974 1052.83V1051.49H278.606V1059.33C278.606 1060.03 278.446 1060.62 278.126 1061.1C277.816 1061.59 277.368 1061.96 276.782 1062.21C276.206 1062.46 275.518 1062.59 274.718 1062.59ZM274.702 1058.13C275.363 1058.13 275.891 1057.89 276.286 1057.41C276.691 1056.93 276.899 1056.27 276.91 1055.42C276.92 1054.87 276.835 1054.39 276.654 1054C276.472 1053.59 276.211 1053.29 275.87 1053.07C275.539 1052.85 275.15 1052.74 274.702 1052.74C274.008 1052.74 273.47 1052.98 273.086 1053.47C272.712 1053.95 272.526 1054.6 272.526 1055.42C272.526 1056.26 272.718 1056.92 273.102 1057.41C273.496 1057.89 274.03 1058.13 274.702 1058.13ZM284.36 1060.19C283.528 1060.19 282.808 1060.01 282.2 1059.65C281.603 1059.29 281.139 1058.77 280.808 1058.1C280.488 1057.42 280.328 1056.64 280.328 1055.74C280.328 1054.85 280.488 1054.07 280.808 1053.41C281.139 1052.74 281.603 1052.22 282.2 1051.86C282.798 1051.48 283.502 1051.3 284.312 1051.3C285.08 1051.3 285.758 1051.48 286.344 1051.84C286.931 1052.19 287.384 1052.7 287.704 1053.38C288.035 1054.05 288.2 1054.86 288.2 1055.81V1056.24H282.088C282.131 1057.07 282.35 1057.7 282.744 1058.11C283.15 1058.53 283.694 1058.74 284.376 1058.74C284.878 1058.74 285.294 1058.62 285.624 1058.38C285.955 1058.15 286.184 1057.83 286.312 1057.44L288.072 1057.55C287.848 1058.34 287.406 1058.98 286.744 1059.47C286.094 1059.95 285.299 1060.19 284.36 1060.19ZM282.088 1054.96H286.408C286.355 1054.2 286.136 1053.64 285.752 1053.28C285.379 1052.92 284.899 1052.74 284.312 1052.74C283.704 1052.74 283.203 1052.93 282.808 1053.31C282.424 1053.69 282.184 1054.23 282.088 1054.96Z" fill="#171717"/>
<g filter="url(#filter3_d_26_1011)">
<rect x="293" y="1036" width="42" height="36" rx="8" fill="white"/>
<rect x="292.5" y="1035.5" width="43" height="37" rx="8.5" stroke="#D4D4D4"/>
<g clip-path="url(#clip0_26_1011)">
<path d="M308.024 1060V1051.9H305.624V1050.51H306.6C307.027 1050.51 307.373 1050.46 307.64 1050.35C307.907 1050.23 308.099 1050.04 308.216 1049.78C308.333 1049.5 308.392 1049.12 308.392 1048.64H309.752V1060H308.024ZM312.288 1060C312.288 1059.15 312.416 1058.38 312.672 1057.71C312.928 1057.04 313.365 1056.42 313.984 1055.84C314.602 1055.26 315.456 1054.69 316.544 1054.11C317.066 1053.85 317.482 1053.6 317.792 1053.38C318.112 1053.14 318.341 1052.9 318.48 1052.66C318.618 1052.41 318.688 1052.11 318.688 1051.76C318.688 1051.4 318.608 1051.09 318.448 1050.83C318.298 1050.57 318.074 1050.36 317.776 1050.21C317.477 1050.05 317.098 1049.97 316.64 1049.97C315.914 1049.97 315.338 1050.17 314.912 1050.56C314.496 1050.94 314.234 1051.5 314.128 1052.22L312.336 1052.11C312.464 1050.97 312.896 1050.06 313.632 1049.39C314.378 1048.72 315.381 1048.38 316.64 1048.38C317.45 1048.38 318.138 1048.53 318.704 1048.82C319.28 1049.09 319.717 1049.48 320.016 1049.98C320.325 1050.49 320.48 1051.07 320.48 1051.73C320.48 1052.3 320.384 1052.8 320.192 1053.22C320 1053.63 319.68 1054.02 319.232 1054.38C318.784 1054.74 318.176 1055.11 317.408 1055.52C316.426 1056.04 315.685 1056.56 315.184 1057.07C314.682 1057.57 314.416 1058.02 314.384 1058.42H320.48V1060H312.288Z" fill="#171717"/>
</g>
</g>
<rect x="57" y="129" width="163.5" height="40" rx="8" fill="#171717"/>
<path d="M85.2197 144.47C85.5126 144.177 85.9874 144.177 86.2803 144.47C86.5731 144.763 86.5731 145.237 86.2803 145.53L82.8105 149L86.2803 152.47C86.5731 152.763 86.5731 153.237 86.2803 153.53C85.9874 153.823 85.5126 153.823 85.2197 153.53L81.2197 149.53C80.9268 149.237 80.9268 148.763 81.2197 148.47L85.2197 144.47Z" fill="white"/>
<path d="M95.9492 153.5V143.56H99.5192C100.714 143.56 101.615 143.775 102.221 144.204C102.828 144.633 103.131 145.315 103.131 146.248C103.131 146.668 103.043 147.037 102.865 147.354C102.688 147.671 102.427 147.923 102.081 148.11C101.745 148.287 101.344 148.381 100.877 148.39L100.863 148.334C101.713 148.353 102.371 148.586 102.837 149.034C103.313 149.473 103.551 150.051 103.551 150.77C103.551 151.675 103.248 152.357 102.641 152.814C102.035 153.271 101.171 153.5 100.051 153.5H95.9492ZM97.4612 152.142H100.009C100.635 152.142 101.12 152.016 101.465 151.764C101.82 151.503 101.997 151.125 101.997 150.63C101.997 150.145 101.82 149.767 101.465 149.496C101.12 149.225 100.635 149.09 100.009 149.09H97.4612V152.142ZM97.4612 147.802H99.4912C100.154 147.802 100.667 147.676 101.031 147.424C101.395 147.172 101.577 146.817 101.577 146.36C101.577 145.875 101.4 145.515 101.045 145.282C100.7 145.039 100.182 144.918 99.4912 144.918H97.4612V147.802ZM107.481 153.668C106.706 153.668 106.085 153.491 105.619 153.136C105.161 152.781 104.933 152.282 104.933 151.638C104.933 150.994 105.124 150.495 105.507 150.14C105.899 149.776 106.501 149.515 107.313 149.356L109.875 148.866C109.875 148.287 109.739 147.858 109.469 147.578C109.198 147.289 108.797 147.144 108.265 147.144C107.789 147.144 107.415 147.251 107.145 147.466C106.874 147.671 106.687 147.979 106.585 148.39L105.059 148.292C105.199 147.545 105.544 146.957 106.095 146.528C106.655 146.099 107.378 145.884 108.265 145.884C109.273 145.884 110.038 146.155 110.561 146.696C111.093 147.228 111.359 147.979 111.359 148.95V151.848C111.359 152.025 111.387 152.151 111.443 152.226C111.508 152.291 111.611 152.324 111.751 152.324H112.017V153.5C111.97 153.509 111.895 153.519 111.793 153.528C111.69 153.537 111.583 153.542 111.471 153.542C111.153 153.542 110.878 153.491 110.645 153.388C110.421 153.285 110.253 153.117 110.141 152.884C110.029 152.641 109.973 152.319 109.973 151.918L110.127 151.988C110.052 152.315 109.889 152.604 109.637 152.856C109.394 153.108 109.081 153.309 108.699 153.458C108.325 153.598 107.919 153.668 107.481 153.668ZM107.719 152.492C108.167 152.492 108.549 152.408 108.867 152.24C109.184 152.063 109.431 151.82 109.609 151.512C109.786 151.204 109.875 150.854 109.875 150.462V149.986L107.691 150.406C107.243 150.49 106.925 150.625 106.739 150.812C106.561 150.989 106.473 151.218 106.473 151.498C106.473 151.815 106.58 152.063 106.795 152.24C107.019 152.408 107.327 152.492 107.719 152.492ZM116.351 153.668C115.642 153.668 115.021 153.509 114.489 153.192C113.957 152.875 113.546 152.422 113.257 151.834C112.968 151.246 112.823 150.56 112.823 149.776C112.823 148.992 112.968 148.311 113.257 147.732C113.546 147.144 113.957 146.691 114.489 146.374C115.021 146.047 115.642 145.884 116.351 145.884C116.958 145.884 117.494 145.991 117.961 146.206C118.437 146.411 118.82 146.715 119.109 147.116C119.408 147.517 119.599 148.007 119.683 148.586L118.129 148.67C118.054 148.185 117.858 147.816 117.541 147.564C117.224 147.303 116.827 147.172 116.351 147.172C115.726 147.172 115.236 147.405 114.881 147.872C114.536 148.329 114.363 148.964 114.363 149.776C114.363 150.588 114.536 151.227 114.881 151.694C115.236 152.151 115.726 152.38 116.351 152.38C116.827 152.38 117.224 152.249 117.541 151.988C117.858 151.717 118.054 151.311 118.129 150.77L119.683 150.854C119.599 151.423 119.408 151.918 119.109 152.338C118.82 152.758 118.437 153.085 117.961 153.318C117.494 153.551 116.958 153.668 116.351 153.668ZM121.107 153.5V143.56H122.591V149.734L125.937 146.052H127.813L124.901 149.188L127.925 153.5H126.217L123.907 150.112L122.591 151.512V153.5H121.107ZM135.352 153.5V144.946H132.3V143.56H139.916V144.946H136.864V153.5H135.352ZM143.154 153.668C142.445 153.668 141.824 153.509 141.292 153.192C140.76 152.875 140.35 152.422 140.06 151.834C139.771 151.246 139.626 150.56 139.626 149.776C139.626 148.983 139.771 148.297 140.06 147.718C140.35 147.139 140.76 146.691 141.292 146.374C141.824 146.047 142.445 145.884 143.154 145.884C143.864 145.884 144.484 146.047 145.016 146.374C145.548 146.691 145.959 147.139 146.248 147.718C146.538 148.297 146.682 148.983 146.682 149.776C146.682 150.56 146.538 151.246 146.248 151.834C145.959 152.422 145.548 152.875 145.016 153.192C144.484 153.509 143.864 153.668 143.154 153.668ZM143.154 152.38C143.789 152.38 144.279 152.151 144.624 151.694C144.97 151.227 145.142 150.588 145.142 149.776C145.142 148.964 144.97 148.329 144.624 147.872C144.279 147.405 143.789 147.172 143.154 147.172C142.529 147.172 142.039 147.405 141.684 147.872C141.339 148.329 141.166 148.964 141.166 149.776C141.166 150.588 141.339 151.227 141.684 151.694C142.039 152.151 142.529 152.38 143.154 152.38ZM152.017 153.5V143.56H153.529V152.94L152.731 152.114H158.373V153.5H152.017ZM159.48 153.5V146.052H160.964V153.5H159.48ZM159.452 144.974V143.49H160.992V144.974H159.452ZM166.596 153.668C166.083 153.668 165.625 153.556 165.224 153.332C164.832 153.099 164.529 152.781 164.314 152.38L164.272 153.5H162.886V143.56H164.37V147.102C164.566 146.775 164.855 146.491 165.238 146.248C165.63 146.005 166.083 145.884 166.596 145.884C167.24 145.884 167.8 146.043 168.276 146.36C168.752 146.677 169.116 147.13 169.368 147.718C169.629 148.297 169.76 148.983 169.76 149.776C169.76 150.569 169.629 151.26 169.368 151.848C169.116 152.427 168.752 152.875 168.276 153.192C167.8 153.509 167.24 153.668 166.596 153.668ZM166.358 152.38C166.927 152.38 167.38 152.151 167.716 151.694C168.052 151.227 168.22 150.588 168.22 149.776C168.22 148.964 168.052 148.329 167.716 147.872C167.38 147.405 166.932 147.172 166.372 147.172C165.952 147.172 165.593 147.275 165.294 147.48C164.995 147.685 164.767 147.984 164.608 148.376C164.449 148.759 164.37 149.225 164.37 149.776C164.37 150.308 164.449 150.77 164.608 151.162C164.767 151.554 164.995 151.857 165.294 152.072C165.593 152.277 165.947 152.38 166.358 152.38ZM171.337 153.5V146.052H172.695L172.751 148.026L172.625 147.984C172.727 147.312 172.933 146.822 173.241 146.514C173.558 146.206 173.983 146.052 174.515 146.052H175.229V147.382H174.515C174.141 147.382 173.829 147.443 173.577 147.564C173.325 147.685 173.133 147.872 173.003 148.124C172.881 148.376 172.821 148.703 172.821 149.104V153.5H171.337ZM178.469 153.668C177.695 153.668 177.074 153.491 176.607 153.136C176.15 152.781 175.921 152.282 175.921 151.638C175.921 150.994 176.113 150.495 176.495 150.14C176.887 149.776 177.489 149.515 178.301 149.356L180.863 148.866C180.863 148.287 180.728 147.858 180.457 147.578C180.187 147.289 179.785 147.144 179.253 147.144C178.777 147.144 178.404 147.251 178.133 147.466C177.863 147.671 177.676 147.979 177.573 148.39L176.047 148.292C176.187 147.545 176.533 146.957 177.083 146.528C177.643 146.099 178.367 145.884 179.253 145.884C180.261 145.884 181.027 146.155 181.549 146.696C182.081 147.228 182.347 147.979 182.347 148.95V151.848C182.347 152.025 182.375 152.151 182.431 152.226C182.497 152.291 182.599 152.324 182.739 152.324H183.005V153.5C182.959 153.509 182.884 153.519 182.781 153.528C182.679 153.537 182.571 153.542 182.459 153.542C182.142 153.542 181.867 153.491 181.633 153.388C181.409 153.285 181.241 153.117 181.129 152.884C181.017 152.641 180.961 152.319 180.961 151.918L181.115 151.988C181.041 152.315 180.877 152.604 180.625 152.856C180.383 153.108 180.07 153.309 179.687 153.458C179.314 153.598 178.908 153.668 178.469 153.668ZM178.707 152.492C179.155 152.492 179.538 152.408 179.855 152.24C180.173 152.063 180.42 151.82 180.597 151.512C180.775 151.204 180.863 150.854 180.863 150.462V149.986L178.679 150.406C178.231 150.49 177.914 150.625 177.727 150.812C177.55 150.989 177.461 151.218 177.461 151.498C177.461 151.815 177.569 152.063 177.783 152.24C178.007 152.408 178.315 152.492 178.707 152.492ZM184.328 153.5V146.052H185.686L185.742 148.026L185.616 147.984C185.719 147.312 185.924 146.822 186.232 146.514C186.55 146.206 186.974 146.052 187.506 146.052H188.22V147.382H187.506C187.133 147.382 186.82 147.443 186.568 147.564C186.316 147.685 186.125 147.872 185.994 148.124C185.873 148.376 185.812 148.703 185.812 149.104V153.5H184.328ZM189.986 155.6V154.382H190.896C191.148 154.382 191.335 154.345 191.456 154.27C191.578 154.195 191.671 154.069 191.736 153.892L191.974 153.276H191.512L188.824 146.052H190.392L192.436 151.904L194.382 146.052H195.964L192.996 154.368C192.847 154.797 192.623 155.11 192.324 155.306C192.035 155.502 191.629 155.6 191.106 155.6H189.986Z" fill="white"/>
<defs>
<filter id="filter0_dd_26_1011" x="0" y="584" width="44" height="44" filterUnits="userSpaceOnUse" color-interpolation-filters="sRGB">
<feFlood flood-opacity="0" result="BackgroundImageFix"/>
<feColorMatrix in="SourceAlpha" type="matrix" values="0 0 0 0 0 0 0 0 0 0 0 0 0 0 0 0 0 0 127 0" result="hardAlpha"/>
<feMorphology radius="1" operator="erode" in="SourceAlpha" result="effect1_dropShadow_26_1011"/>
<feOffset dy="1"/>
<feGaussianBlur stdDeviation="1"/>
<feComposite in2="hardAlpha" operator="out"/>
<feColorMatrix type="matrix" values="0 0 0 0 0 0 0 0 0 0 0 0 0 0 0 0 0 0 0.1 0"/>
<feBlend mode="normal" in2="BackgroundImageFix" result="effect1_dropShadow_26_1011"/>
<feColorMatrix in="SourceAlpha" type="matrix" values="0 0 0 0 0 0 0 0 0 0 0 0 0 0 0 0 0 0 127 0" result="hardAlpha"/>
<feOffset dy="1"/>
<feGaussianBlur stdDeviation="1.5"/>
<feComposite in2="hardAlpha" operator="out"/>
<feColorMatrix type="matrix" values="0 0 0 0 0 0 0 0 0 0 0 0 0 0 0 0 0 0 0.1 0"/>
<feBlend mode="normal" in2="effect1_dropShadow_26_1011" result="effect2_dropShadow_26_1011"/>
<feBlend mode="normal" in="SourceGraphic" in2="effect2_dropShadow_26_1011" result="shape"/>
</filter>
<filter id="filter1_dd_26_1011" x="52" y="202" width="544" height="808" filterUnits="userSpaceOnUse" color-interpolation-filters="sRGB">
<feFlood flood-opacity="0" result="BackgroundImageFix"/>
<feColorMatrix in="SourceAlpha" type="matrix" values="0 0 0 0 0 0 0 0 0 0 0 0 0 0 0 0 0 0 127 0" result="hardAlpha"/>
<feMorphology radius="1" operator="erode" in="SourceAlpha" result="effect1_dropShadow_26_1011"/>
<feOffset dy="1"/>
<feGaussianBlur stdDeviation="1"/>
<feComposite in2="hardAlpha" operator="out"/>
<feColorMatrix type="matrix" values="0 0 0 0 0 0 0 0 0 0 0 0 0 0 0 0 0 0 0.1 0"/>
<feBlend mode="normal" in2="BackgroundImageFix" result="effect1_dropShadow_26_1011"/>
<feColorMatrix in="SourceAlpha" type="matrix" values="0 0 0 0 0 0 0 0 0 0 0 0 0 0 0 0 0 0 127 0" result="hardAlpha"/>
<feOffset dy="1"/>
<feGaussianBlur stdDeviation="1.5"/>
<feComposite in2="hardAlpha" operator="out"/>
<feColorMatrix type="matrix" values="0 0 0 0 0 0 0 0 0 0 0 0 0 0 0 0 0 0 0.1 0"/>
<feBlend mode="normal" in2="effect1_dropShadow_26_1011" result="effect2_dropShadow_26_1011"/>
<feBlend mode="normal" in="SourceGraphic" in2="effect2_dropShadow_26_1011" result="shape"/>
</filter>
<filter id="filter2_dd_26_1011" x="604" y="584" width="44" height="44" filterUnits="userSpaceOnUse" color-interpolation-filters="sRGB">
<feFlood flood-opacity="0" result="BackgroundImageFix"/>
<feColorMatrix in="SourceAlpha" type="matrix" values="0 0 0 0 0 0 0 0 0 0 0 0 0 0 0 0 0 0 127 0" result="hardAlpha"/>
<feMorphology radius="1" operator="erode" in="SourceAlpha" result="effect1_dropShadow_26_1011"/>
<feOffset dy="1"/>
<feGaussianBlur stdDeviation="1"/>
<feComposite in2="hardAlpha" operator="out"/>
<feColorMatrix type="matrix" values="0 0 0 0 0 0 0 0 0 0 0 0 0 0 0 0 0 0 0.1 0"/>
<feBlend mode="normal" in2="BackgroundImageFix" result="effect1_dropShadow_26_1011"/>
<feColorMatrix in="SourceAlpha" type="matrix" values="0 0 0 0 0 0 0 0 0 0 0 0 0 0 0 0 0 0 127 0" result="hardAlpha"/>
<feOffset dy="1"/>
<feGaussianBlur stdDeviation="1.5"/>
<feComposite in2="hardAlpha" operator="out"/>
<feColorMatrix type="matrix" values="0 0 0 0 0 0 0 0 0 0 0 0 0 0 0 0 0 0 0.1 0"/>
<feBlend mode="normal" in2="effect1_dropShadow_26_1011" result="effect2_dropShadow_26_1011"/>
<feBlend mode="normal" in="SourceGraphic" in2="effect2_dropShadow_26_1011" result="shape"/>
</filter>
<filter id="filter3_d_26_1011" x="290" y="1034" width="48" height="42" filterUnits="userSpaceOnUse" color-interpolation-filters="sRGB">
<feFlood flood-opacity="0" result="BackgroundImageFix"/>
<feColorMatrix in="SourceAlpha" type="matrix" values="0 0 0 0 0 0 0 0 0 0 0 0 0 0 0 0 0 0 127 0" result="hardAlpha"/>
<feOffset dy="1"/>
<feGaussianBlur stdDeviation="1"/>
<feComposite in2="hardAlpha" operator="out"/>
<feColorMatrix type="matrix" values="0 0 0 0 0 0 0 0 0 0 0 0 0 0 0 0 0 0 0.05 0"/>
<feBlend mode="normal" in2="BackgroundImageFix" result="effect1_dropShadow_26_1011"/>
<feBlend mode="normal" in="SourceGraphic" in2="effect1_dropShadow_26_1011" result="shape"/>
</filter>
<clipPath id="clip0_26_1011">
<rect width="18" height="21" fill="white" transform="translate(305 1043.5)"/>
</clipPath>
</defs>
</svg>
