<svg xmlns="http://www.w3.org/2000/svg" viewBox="0 0 1200 1400" width="1200" height="1400">
  <defs>
    <style>
      .text-primary { fill: #212121; font-family: -apple-system, BlinkMacSystemFont, 'Segoe UI', sans-serif; }
      .text-secondary { fill: #757575; font-family: -apple-system, BlinkMacSystemFont, 'Segoe UI', sans-serif; }
      .text-inverse { fill: #FFFFFF; font-family: -apple-system, BlinkMacSystemFont, 'Segoe UI', sans-serif; }
      .label { fill: #757575; font-family: 'SF Mono', 'Monaco', 'Consolas', monospace; font-size: 11px; }
      .section-label { fill: #424242; font-family: -apple-system, BlinkMacSystemFont, 'Segoe UI', sans-serif; font-size: 11px; font-weight: 600; letter-spacing: 0.5px; }
      .token-label { fill: #9E9E9E; font-family: 'SF Mono', 'Monaco', 'Consolas', monospace; font-size: 10px; }
    </style>
  </defs>

  <!-- Background -->
  <rect width="1200" height="1400" fill="#FAFAFA"/>

  <!-- Title -->
  <text x="48" y="48" class="text-primary" font-size="28" font-weight="700">Wireframe Icon Set — Generic Template</text>
  <text x="48" y="76" class="text-secondary" font-size="14">Inline SVG primitives. No external assets. Copy-paste into any wireframe.</text>

  <line x1="48" y1="100" x2="1152" y2="100" stroke="#E0E0E0" stroke-width="1"/>

  <!-- ==================== NAVIGATION ICONS ==================== -->
  <text x="48" y="140" class="text-primary" font-size="20" font-weight="600">Navigation</text>

  <g transform="translate(48, 164)">
    <!-- Back Arrow -->
    <g transform="translate(0, 0)">
      <rect width="72" height="72" rx="8" fill="#FFFFFF" stroke="#E0E0E0" stroke-width="1"/>
      <g transform="translate(24, 24)">
        <path d="M16 0 L0 12 L16 24" fill="none" stroke="#424242" stroke-width="2" stroke-linecap="round" stroke-linejoin="round"/>
      </g>
      <text x="36" y="92" text-anchor="middle" class="token-label">Back</text>
    </g>

    <!-- Forward Arrow -->
    <g transform="translate(100, 0)">
      <rect width="72" height="72" rx="8" fill="#FFFFFF" stroke="#E0E0E0" stroke-width="1"/>
      <g transform="translate(26, 24)">
        <path d="M0 0 L16 12 L0 24" fill="none" stroke="#424242" stroke-width="2" stroke-linecap="round" stroke-linejoin="round"/>
      </g>
      <text x="36" y="92" text-anchor="middle" class="token-label">Forward</text>
    </g>

    <!-- Close (X) -->
    <g transform="translate(200, 0)">
      <rect width="72" height="72" rx="8" fill="#FFFFFF" stroke="#E0E0E0" stroke-width="1"/>
      <g transform="translate(24, 24)">
        <line x1="0" y1="0" x2="24" y2="24" stroke="#424242" stroke-width="2" stroke-linecap="round"/>
        <line x1="24" y1="0" x2="0" y2="24" stroke="#424242" stroke-width="2" stroke-linecap="round"/>
      </g>
      <text x="36" y="92" text-anchor="middle" class="token-label">Close</text>
    </g>

    <!-- Hamburger Menu -->
    <g transform="translate(300, 0)">
      <rect width="72" height="72" rx="8" fill="#FFFFFF" stroke="#E0E0E0" stroke-width="1"/>
      <g transform="translate(20, 24)">
        <line x1="0" y1="4" x2="32" y2="4" stroke="#424242" stroke-width="2" stroke-linecap="round"/>
        <line x1="0" y1="12" x2="32" y2="12" stroke="#424242" stroke-width="2" stroke-linecap="round"/>
        <line x1="0" y1="20" x2="32" y2="20" stroke="#424242" stroke-width="2" stroke-linecap="round"/>
      </g>
      <text x="36" y="92" text-anchor="middle" class="token-label">Menu</text>
    </g>

    <!-- Chevron Down -->
    <g transform="translate(400, 0)">
      <rect width="72" height="72" rx="8" fill="#FFFFFF" stroke="#E0E0E0" stroke-width="1"/>
      <g transform="translate(22, 28)">
        <path d="M0 0 L14 12 L28 0" fill="none" stroke="#424242" stroke-width="2" stroke-linecap="round" stroke-linejoin="round"/>
      </g>
      <text x="36" y="92" text-anchor="middle" class="token-label">Chevron ↓</text>
    </g>

    <!-- Chevron Up -->
    <g transform="translate(500, 0)">
      <rect width="72" height="72" rx="8" fill="#FFFFFF" stroke="#E0E0E0" stroke-width="1"/>
      <g transform="translate(22, 32)">
        <path d="M0 12 L14 0 L28 12" fill="none" stroke="#424242" stroke-width="2" stroke-linecap="round" stroke-linejoin="round"/>
      </g>
      <text x="36" y="92" text-anchor="middle" class="token-label">Chevron ↑</text>
    </g>

    <!-- More (Horizontal) -->
    <g transform="translate(600, 0)">
      <rect width="72" height="72" rx="8" fill="#FFFFFF" stroke="#E0E0E0" stroke-width="1"/>
      <g transform="translate(20, 34)">
        <circle cx="4" cy="0" r="3" fill="#424242"/>
        <circle cx="16" cy="0" r="3" fill="#424242"/>
        <circle cx="28" cy="0" r="3" fill="#424242"/>
      </g>
      <text x="36" y="92" text-anchor="middle" class="token-label">More ···</text>
    </g>

    <!-- More (Vertical) -->
    <g transform="translate(700, 0)">
      <rect width="72" height="72" rx="8" fill="#FFFFFF" stroke="#E0E0E0" stroke-width="1"/>
      <g transform="translate(34, 20)">
        <circle cx="0" cy="4" r="3" fill="#424242"/>
        <circle cx="0" cy="16" r="3" fill="#424242"/>
        <circle cx="0" cy="28" r="3" fill="#424242"/>
      </g>
      <text x="36" y="92" text-anchor="middle" class="token-label">More ⋮</text>
    </g>

    <!-- Home -->
    <g transform="translate(800, 0)">
      <rect width="72" height="72" rx="8" fill="#FFFFFF" stroke="#E0E0E0" stroke-width="1"/>
      <g transform="translate(24, 22)">
        <path d="M0 14 L12 2 L24 14" fill="none" stroke="#424242" stroke-width="2" stroke-linecap="round" stroke-linejoin="round"/>
        <rect x="4" y="14" width="16" height="12" rx="1" fill="none" stroke="#424242" stroke-width="2"/>
      </g>
      <text x="36" y="92" text-anchor="middle" class="token-label">Home</text>
    </g>

    <!-- External Link -->
    <g transform="translate(900, 0)">
      <rect width="72" height="72" rx="8" fill="#FFFFFF" stroke="#E0E0E0" stroke-width="1"/>
      <g transform="translate(22, 22)">
        <rect x="0" y="6" width="20" height="20" rx="3" fill="none" stroke="#424242" stroke-width="2"/>
        <path d="M12 0 L28 0 L28 16" fill="none" stroke="#424242" stroke-width="2" stroke-linecap="round"/>
        <line x1="28" y1="0" x2="14" y2="14" stroke="#424242" stroke-width="2" stroke-linecap="round"/>
      </g>
      <text x="36" y="92" text-anchor="middle" class="token-label">External</text>
    </g>
  </g>

  <!-- ==================== ACTION ICONS ==================== -->
  <text x="48" y="300" class="text-primary" font-size="20" font-weight="600">Actions</text>

  <g transform="translate(48, 324)">
    <!-- Plus -->
    <g transform="translate(0, 0)">
      <rect width="72" height="72" rx="8" fill="#FFFFFF" stroke="#E0E0E0" stroke-width="1"/>
      <g transform="translate(24, 24)">
        <line x1="12" y1="0" x2="12" y2="24" stroke="#424242" stroke-width="2" stroke-linecap="round"/>
        <line x1="0" y1="12" x2="24" y2="12" stroke="#424242" stroke-width="2" stroke-linecap="round"/>
      </g>
      <text x="36" y="92" text-anchor="middle" class="token-label">Add</text>
    </g>

    <!-- Edit (Pencil) -->
    <g transform="translate(100, 0)">
      <rect width="72" height="72" rx="8" fill="#FFFFFF" stroke="#E0E0E0" stroke-width="1"/>
      <g transform="translate(24, 22)">
        <path d="M0 24 L0 18 L18 0 L24 6 L6 24 Z" fill="none" stroke="#424242" stroke-width="2" stroke-linejoin="round"/>
      </g>
      <text x="36" y="92" text-anchor="middle" class="token-label">Edit</text>
    </g>

    <!-- Delete (Trash) -->
    <g transform="translate(200, 0)">
      <rect width="72" height="72" rx="8" fill="#FFFFFF" stroke="#E0E0E0" stroke-width="1"/>
      <g transform="translate(24, 22)">
        <rect x="2" y="6" width="20" height="20" rx="2" fill="none" stroke="#424242" stroke-width="2"/>
        <line x1="0" y1="6" x2="24" y2="6" stroke="#424242" stroke-width="2" stroke-linecap="round"/>
        <line x1="8" y1="2" x2="16" y2="2" stroke="#424242" stroke-width="2" stroke-linecap="round"/>
        <line x1="9" y1="12" x2="9" y2="20" stroke="#424242" stroke-width="1.5"/>
        <line x1="15" y1="12" x2="15" y2="20" stroke="#424242" stroke-width="1.5"/>
      </g>
      <text x="36" y="92" text-anchor="middle" class="token-label">Delete</text>
    </g>

    <!-- Search -->
    <g transform="translate(300, 0)">
      <rect width="72" height="72" rx="8" fill="#FFFFFF" stroke="#E0E0E0" stroke-width="1"/>
      <g transform="translate(22, 22)">
        <circle cx="12" cy="12" r="10" fill="none" stroke="#424242" stroke-width="2"/>
        <line x1="19" y1="19" x2="28" y2="28" stroke="#424242" stroke-width="2" stroke-linecap="round"/>
      </g>
      <text x="36" y="92" text-anchor="middle" class="token-label">Search</text>
    </g>

    <!-- Filter -->
    <g transform="translate(400, 0)">
      <rect width="72" height="72" rx="8" fill="#FFFFFF" stroke="#E0E0E0" stroke-width="1"/>
      <g transform="translate(22, 24)">
        <path d="M0 0 L28 0 L18 12 L18 22 L10 26 L10 12 Z" fill="none" stroke="#424242" stroke-width="2" stroke-linejoin="round"/>
      </g>
      <text x="36" y="92" text-anchor="middle" class="token-label">Filter</text>
    </g>

    <!-- Download -->
    <g transform="translate(500, 0)">
      <rect width="72" height="72" rx="8" fill="#FFFFFF" stroke="#E0E0E0" stroke-width="1"/>
      <g transform="translate(24, 22)">
        <line x1="12" y1="0" x2="12" y2="18" stroke="#424242" stroke-width="2" stroke-linecap="round"/>
        <path d="M4 14 L12 22 L20 14" fill="none" stroke="#424242" stroke-width="2" stroke-linecap="round" stroke-linejoin="round"/>
        <line x1="0" y1="26" x2="24" y2="26" stroke="#424242" stroke-width="2" stroke-linecap="round"/>
      </g>
      <text x="36" y="92" text-anchor="middle" class="token-label">Download</text>
    </g>

    <!-- Upload -->
    <g transform="translate(600, 0)">
      <rect width="72" height="72" rx="8" fill="#FFFFFF" stroke="#E0E0E0" stroke-width="1"/>
      <g transform="translate(24, 22)">
        <line x1="12" y1="22" x2="12" y2="4" stroke="#424242" stroke-width="2" stroke-linecap="round"/>
        <path d="M4 8 L12 0 L20 8" fill="none" stroke="#424242" stroke-width="2" stroke-linecap="round" stroke-linejoin="round"/>
        <line x1="0" y1="26" x2="24" y2="26" stroke="#424242" stroke-width="2" stroke-linecap="round"/>
      </g>
      <text x="36" y="92" text-anchor="middle" class="token-label">Upload</text>
    </g>

    <!-- Share -->
    <g transform="translate(700, 0)">
      <rect width="72" height="72" rx="8" fill="#FFFFFF" stroke="#E0E0E0" stroke-width="1"/>
      <g transform="translate(22, 22)">
        <circle cx="24" cy="4" r="4" fill="none" stroke="#424242" stroke-width="2"/>
        <circle cx="4" cy="14" r="4" fill="none" stroke="#424242" stroke-width="2"/>
        <circle cx="24" cy="24" r="4" fill="none" stroke="#424242" stroke-width="2"/>
        <line x1="8" y1="12" x2="20" y2="6" stroke="#424242" stroke-width="1.5"/>
        <line x1="8" y1="16" x2="20" y2="22" stroke="#424242" stroke-width="1.5"/>
      </g>
      <text x="36" y="92" text-anchor="middle" class="token-label">Share</text>
    </g>

    <!-- Copy -->
    <g transform="translate(800, 0)">
      <rect width="72" height="72" rx="8" fill="#FFFFFF" stroke="#E0E0E0" stroke-width="1"/>
      <g transform="translate(22, 22)">
        <rect x="6" y="0" width="18" height="22" rx="2" fill="none" stroke="#424242" stroke-width="2"/>
        <rect x="0" y="6" width="18" height="22" rx="2" fill="#FFFFFF" stroke="#424242" stroke-width="2"/>
      </g>
      <text x="36" y="92" text-anchor="middle" class="token-label">Copy</text>
    </g>

    <!-- Settings / Gear -->
    <g transform="translate(900, 0)">
      <rect width="72" height="72" rx="8" fill="#FFFFFF" stroke="#E0E0E0" stroke-width="1"/>
      <g transform="translate(24, 24)">
        <circle cx="12" cy="12" r="10" fill="none" stroke="#424242" stroke-width="2"/>
        <circle cx="12" cy="12" r="4" fill="#424242"/>
        <!-- Gear teeth (simplified) -->
        <line x1="12" y1="0" x2="12" y2="-2" stroke="#424242" stroke-width="3" stroke-linecap="round"/>
        <line x1="12" y1="24" x2="12" y2="26" stroke="#424242" stroke-width="3" stroke-linecap="round"/>
        <line x1="0" y1="12" x2="-2" y2="12" stroke="#424242" stroke-width="3" stroke-linecap="round"/>
        <line x1="24" y1="12" x2="26" y2="12" stroke="#424242" stroke-width="3" stroke-linecap="round"/>
      </g>
      <text x="36" y="92" text-anchor="middle" class="token-label">Settings</text>
    </g>
  </g>

  <!-- ==================== STATUS ICONS ==================== -->
  <text x="48" y="460" class="text-primary" font-size="20" font-weight="600">Status &amp; Feedback</text>

  <g transform="translate(48, 484)">
    <!-- Check Circle -->
    <g transform="translate(0, 0)">
      <rect width="72" height="72" rx="8" fill="#FFFFFF" stroke="#E0E0E0" stroke-width="1"/>
      <g transform="translate(24, 24)">
        <circle cx="12" cy="12" r="12" fill="none" stroke="#2E7D32" stroke-width="2"/>
        <path d="M6 12 L10 16 L18 8" fill="none" stroke="#2E7D32" stroke-width="2" stroke-linecap="round" stroke-linejoin="round"/>
      </g>
      <text x="36" y="92" text-anchor="middle" class="token-label">Success</text>
    </g>

    <!-- Warning Triangle -->
    <g transform="translate(100, 0)">
      <rect width="72" height="72" rx="8" fill="#FFFFFF" stroke="#E0E0E0" stroke-width="1"/>
      <g transform="translate(22, 24)">
        <path d="M14 0 L28 24 L0 24 Z" fill="none" stroke="#E65100" stroke-width="2" stroke-linejoin="round"/>
        <line x1="14" y1="10" x2="14" y2="16" stroke="#E65100" stroke-width="2" stroke-linecap="round"/>
        <circle cx="14" cy="20" r="1.5" fill="#E65100"/>
      </g>
      <text x="36" y="92" text-anchor="middle" class="token-label">Warning</text>
    </g>

    <!-- Error X Circle -->
    <g transform="translate(200, 0)">
      <rect width="72" height="72" rx="8" fill="#FFFFFF" stroke="#E0E0E0" stroke-width="1"/>
      <g transform="translate(24, 24)">
        <circle cx="12" cy="12" r="12" fill="none" stroke="#B71C1C" stroke-width="2"/>
        <line x1="7" y1="7" x2="17" y2="17" stroke="#B71C1C" stroke-width="2" stroke-linecap="round"/>
        <line x1="17" y1="7" x2="7" y2="17" stroke="#B71C1C" stroke-width="2" stroke-linecap="round"/>
      </g>
      <text x="36" y="92" text-anchor="middle" class="token-label">Error</text>
    </g>

    <!-- Info Circle -->
    <g transform="translate(300, 0)">
      <rect width="72" height="72" rx="8" fill="#FFFFFF" stroke="#E0E0E0" stroke-width="1"/>
      <g transform="translate(24, 24)">
        <circle cx="12" cy="12" r="12" fill="none" stroke="#1565C0" stroke-width="2"/>
        <circle cx="12" cy="8" r="1.5" fill="#1565C0"/>
        <line x1="12" y1="12" x2="12" y2="20" stroke="#1565C0" stroke-width="2" stroke-linecap="round"/>
      </g>
      <text x="36" y="92" text-anchor="middle" class="token-label">Info</text>
    </g>

    <!-- Loading Spinner -->
    <g transform="translate(400, 0)">
      <rect width="72" height="72" rx="8" fill="#FFFFFF" stroke="#E0E0E0" stroke-width="1"/>
      <g transform="translate(24, 24)">
        <circle cx="12" cy="12" r="10" fill="none" stroke="#E0E0E0" stroke-width="2"/>
        <path d="M12 2 A10 10 0 0 1 22 12" fill="none" stroke="#424242" stroke-width="2" stroke-linecap="round"/>
      </g>
      <text x="36" y="92" text-anchor="middle" class="token-label">Loading</text>
    </g>

    <!-- Notification Bell -->
    <g transform="translate(500, 0)">
      <rect width="72" height="72" rx="8" fill="#FFFFFF" stroke="#E0E0E0" stroke-width="1"/>
      <g transform="translate(24, 22)">
        <path d="M4 18 C4 8 8 2 12 2 C16 2 20 8 20 18" fill="none" stroke="#424242" stroke-width="2"/>
        <line x1="2" y1="18" x2="22" y2="18" stroke="#424242" stroke-width="2" stroke-linecap="round"/>
        <circle cx="12" cy="24" r="2" fill="#424242"/>
      </g>
      <text x="36" y="92" text-anchor="middle" class="token-label">Notify</text>
    </g>

    <!-- Eye (Visibility) -->
    <g transform="translate(600, 0)">
      <rect width="72" height="72" rx="8" fill="#FFFFFF" stroke="#E0E0E0" stroke-width="1"/>
      <g transform="translate(22, 28)">
        <path d="M0 8 Q14 -6 28 8 Q14 22 0 8" fill="none" stroke="#424242" stroke-width="2"/>
        <circle cx="14" cy="8" r="4" fill="none" stroke="#424242" stroke-width="2"/>
      </g>
      <text x="36" y="92" text-anchor="middle" class="token-label">View</text>
    </g>

    <!-- Lock -->
    <g transform="translate(700, 0)">
      <rect width="72" height="72" rx="8" fill="#FFFFFF" stroke="#E0E0E0" stroke-width="1"/>
      <g transform="translate(24, 22)">
        <rect x="2" y="12" width="20" height="16" rx="3" fill="none" stroke="#424242" stroke-width="2"/>
        <path d="M6 12 V8 A6 6 0 0 1 18 8 V12" fill="none" stroke="#424242" stroke-width="2"/>
      </g>
      <text x="36" y="92" text-anchor="middle" class="token-label">Lock</text>
    </g>
  </g>

  <!-- ==================== CONTENT ICONS ==================== -->
  <text x="48" y="620" class="text-primary" font-size="20" font-weight="600">Content &amp; Data</text>

  <g transform="translate(48, 644)">
    <!-- User Avatar -->
    <g transform="translate(0, 0)">
      <rect width="72" height="72" rx="8" fill="#FFFFFF" stroke="#E0E0E0" stroke-width="1"/>
      <g transform="translate(24, 22)">
        <circle cx="12" cy="8" r="8" fill="none" stroke="#424242" stroke-width="2"/>
        <path d="M0 28 Q12 18 24 28" fill="none" stroke="#424242" stroke-width="2"/>
      </g>
      <text x="36" y="92" text-anchor="middle" class="token-label">User</text>
    </g>

    <!-- Users (Group) -->
    <g transform="translate(100, 0)">
      <rect width="72" height="72" rx="8" fill="#FFFFFF" stroke="#E0E0E0" stroke-width="1"/>
      <g transform="translate(18, 24)">
        <circle cx="12" cy="6" r="6" fill="none" stroke="#424242" stroke-width="2"/>
        <path d="M0 22 Q12 16 24 22" fill="none" stroke="#424242" stroke-width="2"/>
        <circle cx="26" cy="8" r="5" fill="none" stroke="#BDBDBD" stroke-width="1.5"/>
        <path d="M18 22 Q26 18 36 22" fill="none" stroke="#BDBDBD" stroke-width="1.5"/>
      </g>
      <text x="36" y="92" text-anchor="middle" class="token-label">Users</text>
    </g>

    <!-- Document -->
    <g transform="translate(200, 0)">
      <rect width="72" height="72" rx="8" fill="#FFFFFF" stroke="#E0E0E0" stroke-width="1"/>
      <g transform="translate(24, 20)">
        <rect x="0" y="0" width="20" height="28" rx="2" fill="none" stroke="#424242" stroke-width="2"/>
        <line x1="5" y1="8" x2="15" y2="8" stroke="#424242" stroke-width="1.5"/>
        <line x1="5" y1="14" x2="15" y2="14" stroke="#424242" stroke-width="1.5"/>
        <line x1="5" y1="20" x2="11" y2="20" stroke="#424242" stroke-width="1.5"/>
      </g>
      <text x="36" y="92" text-anchor="middle" class="token-label">Document</text>
    </g>

    <!-- Folder -->
    <g transform="translate(300, 0)">
      <rect width="72" height="72" rx="8" fill="#FFFFFF" stroke="#E0E0E0" stroke-width="1"/>
      <g transform="translate(22, 24)">
        <path d="M0 4 L0 24 L28 24 L28 8 L14 8 L12 4 Z" fill="none" stroke="#424242" stroke-width="2" stroke-linejoin="round"/>
      </g>
      <text x="36" y="92" text-anchor="middle" class="token-label">Folder</text>
    </g>

    <!-- Image Placeholder -->
    <g transform="translate(400, 0)">
      <rect width="72" height="72" rx="8" fill="#FFFFFF" stroke="#E0E0E0" stroke-width="1"/>
      <g transform="translate(22, 24)">
        <rect x="0" y="0" width="28" height="24" rx="2" fill="none" stroke="#424242" stroke-width="2"/>
        <circle cx="8" cy="8" r="3" fill="#424242"/>
        <path d="M0 20 L8 14 L14 18 L20 10 L28 18" fill="none" stroke="#424242" stroke-width="2" stroke-linejoin="round"/>
      </g>
      <text x="36" y="92" text-anchor="middle" class="token-label">Image</text>
    </g>

    <!-- Chart / Graph -->
    <g transform="translate(500, 0)">
      <rect width="72" height="72" rx="8" fill="#FFFFFF" stroke="#E0E0E0" stroke-width="1"/>
      <g transform="translate(22, 22)">
        <rect x="0" y="16" width="6" height="12" rx="1" fill="#424242"/>
        <rect x="10" y="8" width="6" height="20" rx="1" fill="#424242"/>
        <rect x="20" y="0" width="6" height="28" rx="1" fill="#424242"/>
      </g>
      <text x="36" y="92" text-anchor="middle" class="token-label">Chart</text>
    </g>

    <!-- Calendar -->
    <g transform="translate(600, 0)">
      <rect width="72" height="72" rx="8" fill="#FFFFFF" stroke="#E0E0E0" stroke-width="1"/>
      <g transform="translate(22, 22)">
        <rect x="0" y="4" width="28" height="24" rx="3" fill="none" stroke="#424242" stroke-width="2"/>
        <line x1="0" y1="12" x2="28" y2="12" stroke="#424242" stroke-width="2"/>
        <line x1="8" y1="0" x2="8" y2="8" stroke="#424242" stroke-width="2" stroke-linecap="round"/>
        <line x1="20" y1="0" x2="20" y2="8" stroke="#424242" stroke-width="2" stroke-linecap="round"/>
      </g>
      <text x="36" y="92" text-anchor="middle" class="token-label">Calendar</text>
    </g>

    <!-- Clock / Time -->
    <g transform="translate(700, 0)">
      <rect width="72" height="72" rx="8" fill="#FFFFFF" stroke="#E0E0E0" stroke-width="1"/>
      <g transform="translate(24, 24)">
        <circle cx="12" cy="12" r="12" fill="none" stroke="#424242" stroke-width="2"/>
        <line x1="12" y1="12" x2="12" y2="6" stroke="#424242" stroke-width="2" stroke-linecap="round"/>
        <line x1="12" y1="12" x2="18" y2="14" stroke="#424242" stroke-width="2" stroke-linecap="round"/>
      </g>
      <text x="36" y="92" text-anchor="middle" class="token-label">Time</text>
    </g>

    <!-- Mail -->
    <g transform="translate(800, 0)">
      <rect width="72" height="72" rx="8" fill="#FFFFFF" stroke="#E0E0E0" stroke-width="1"/>
      <g transform="translate(22, 26)">
        <rect x="0" y="0" width="28" height="20" rx="2" fill="none" stroke="#424242" stroke-width="2"/>
        <path d="M0 0 L14 10 L28 0" fill="none" stroke="#424242" stroke-width="2" stroke-linejoin="round"/>
      </g>
      <text x="36" y="92" text-anchor="middle" class="token-label">Mail</text>
    </g>

    <!-- Link -->
    <g transform="translate(900, 0)">
      <rect width="72" height="72" rx="8" fill="#FFFFFF" stroke="#E0E0E0" stroke-width="1"/>
      <g transform="translate(22, 26)">
        <path d="M10 6 L6 10 A6 6 0 0 0 14 18 L18 14" fill="none" stroke="#424242" stroke-width="2" stroke-linecap="round"/>
        <path d="M18 14 L22 10 A6 6 0 0 0 14 2 L10 6" fill="none" stroke="#424242" stroke-width="2" stroke-linecap="round"/>
      </g>
      <text x="36" y="92" text-anchor="middle" class="token-label">Link</text>
    </g>
  </g>

  <!-- ==================== TAB BAR ICONS ==================== -->
  <text x="48" y="780" class="text-primary" font-size="20" font-weight="600">Tab Bar Icons (14×14px)</text>
  <text x="48" y="804" class="text-secondary" font-size="13">Simplified icons for bottom navigation. Draw at 14px. Active = filled, Inactive = outlined.</text>

  <g transform="translate(48, 828)">
    <!-- Dashboard (Grid) - Active -->
    <g transform="translate(0, 0)">
      <rect width="72" height="72" rx="8" fill="#FFFFFF" stroke="#E0E0E0" stroke-width="1"/>
      <g transform="translate(29, 29)">
        <rect x="0" y="0" width="6" height="6" rx="1" fill="#424242"/>
        <rect x="8" y="0" width="6" height="6" rx="1" fill="#424242"/>
        <rect x="0" y="8" width="6" height="6" rx="1" fill="#424242"/>
        <rect x="8" y="8" width="6" height="6" rx="1" fill="#424242"/>
      </g>
      <text x="36" y="92" text-anchor="middle" class="token-label">Grid (active)</text>
    </g>

    <!-- Dashboard (Grid) - Inactive -->
    <g transform="translate(100, 0)">
      <rect width="72" height="72" rx="8" fill="#FFFFFF" stroke="#E0E0E0" stroke-width="1"/>
      <g transform="translate(29, 29)">
        <rect x="0" y="0" width="6" height="6" rx="1" fill="none" stroke="#757575" stroke-width="1.5"/>
        <rect x="8" y="0" width="6" height="6" rx="1" fill="none" stroke="#757575" stroke-width="1.5"/>
        <rect x="0" y="8" width="6" height="6" rx="1" fill="none" stroke="#757575" stroke-width="1.5"/>
        <rect x="8" y="8" width="6" height="6" rx="1" fill="none" stroke="#757575" stroke-width="1.5"/>
      </g>
      <text x="36" y="92" text-anchor="middle" class="token-label">Grid (off)</text>
    </g>

    <!-- List - Active -->
    <g transform="translate(220, 0)">
      <rect width="72" height="72" rx="8" fill="#FFFFFF" stroke="#E0E0E0" stroke-width="1"/>
      <g transform="translate(27, 29)">
        <rect x="0" y="1" width="2" height="2" rx="1" fill="#424242"/>
        <line x1="5" y1="2" x2="18" y2="2" stroke="#424242" stroke-width="2" stroke-linecap="round"/>
        <rect x="0" y="6" width="2" height="2" rx="1" fill="#424242"/>
        <line x1="5" y1="7" x2="18" y2="7" stroke="#424242" stroke-width="2" stroke-linecap="round"/>
        <rect x="0" y="11" width="2" height="2" rx="1" fill="#424242"/>
        <line x1="5" y1="12" x2="18" y2="12" stroke="#424242" stroke-width="2" stroke-linecap="round"/>
      </g>
      <text x="36" y="92" text-anchor="middle" class="token-label">List</text>
    </g>

    <!-- Document - Active -->
    <g transform="translate(340, 0)">
      <rect width="72" height="72" rx="8" fill="#FFFFFF" stroke="#E0E0E0" stroke-width="1"/>
      <g transform="translate(29, 29)">
        <rect x="0" y="0" width="12" height="14" rx="2" fill="none" stroke="#424242" stroke-width="1.5"/>
        <line x1="3" y1="4" x2="9" y2="4" stroke="#424242" stroke-width="1"/>
        <line x1="3" y1="7" x2="9" y2="7" stroke="#424242" stroke-width="1"/>
        <line x1="3" y1="10" x2="7" y2="10" stroke="#424242" stroke-width="1"/>
      </g>
      <text x="36" y="92" text-anchor="middle" class="token-label">Doc (tab)</text>
    </g>

    <!-- Gear - Active -->
    <g transform="translate(460, 0)">
      <rect width="72" height="72" rx="8" fill="#FFFFFF" stroke="#E0E0E0" stroke-width="1"/>
      <g transform="translate(29, 29)">
        <circle cx="7" cy="7" r="6" fill="none" stroke="#424242" stroke-width="1.5"/>
        <circle cx="7" cy="7" r="2" fill="#424242"/>
      </g>
      <text x="36" y="92" text-anchor="middle" class="token-label">Gear (tab)</text>
    </g>

    <!-- User - Active -->
    <g transform="translate(580, 0)">
      <rect width="72" height="72" rx="8" fill="#FFFFFF" stroke="#E0E0E0" stroke-width="1"/>
      <g transform="translate(29, 29)">
        <circle cx="7" cy="4" r="4" fill="none" stroke="#424242" stroke-width="1.5"/>
        <path d="M0 14 Q7 10 14 14" fill="none" stroke="#424242" stroke-width="1.5"/>
      </g>
      <text x="36" y="92" text-anchor="middle" class="token-label">Profile (tab)</text>
    </g>
  </g>

  <!-- ==================== PLACEHOLDER / SKELETON ==================== -->
  <text x="48" y="968" class="text-primary" font-size="20" font-weight="600">Placeholders &amp; Skeleton Patterns</text>

  <g transform="translate(48, 992)">
    <!-- Avatar circle -->
    <g transform="translate(0, 0)">
      <rect width="160" height="80" rx="8" fill="#FFFFFF" stroke="#E0E0E0" stroke-width="1"/>
      <circle cx="40" cy="40" r="20" fill="#E0E0E0"/>
      <text x="40" y="44" text-anchor="middle" class="text-secondary" font-size="11" font-weight="600">AB</text>
      <text x="72" y="36" class="text-secondary" font-size="12">Avatar</text>
      <text x="72" y="52" class="token-label">Initials or icon</text>
    </g>

    <!-- Logo placeholder -->
    <g transform="translate(200, 0)">
      <rect width="160" height="80" rx="8" fill="#FFFFFF" stroke="#E0E0E0" stroke-width="1"/>
      <rect x="16" y="20" width="40" height="40" rx="8" fill="#E0E0E0"/>
      <text x="36" y="44" text-anchor="middle" class="text-secondary" font-size="10">Logo</text>
      <text x="72" y="36" class="text-secondary" font-size="12">Logo Placeholder</text>
      <text x="72" y="52" class="token-label">Square or circle</text>
    </g>

    <!-- Skeleton text lines -->
    <g transform="translate(400, 0)">
      <rect width="300" height="80" rx="8" fill="#FFFFFF" stroke="#E0E0E0" stroke-width="1"/>
      <rect x="16" y="16" width="200" height="12" rx="4" fill="#E0E0E0"/>
      <rect x="16" y="36" width="260" height="10" rx="4" fill="#F5F5F5"/>
      <rect x="16" y="52" width="180" height="10" rx="4" fill="#F5F5F5"/>
      <text x="200" y="76" text-anchor="middle" class="token-label">Skeleton text (loading state)</text>
    </g>

    <!-- Image placeholder -->
    <g transform="translate(740, 0)">
      <rect width="200" height="80" rx="8" fill="#F5F5F5" stroke="#E0E0E0" stroke-width="1"/>
      <g transform="translate(80, 20)">
        <rect x="0" y="0" width="40" height="32" rx="2" fill="none" stroke="#BDBDBD" stroke-width="1.5"/>
        <circle cx="10" cy="10" r="4" fill="#BDBDBD"/>
        <path d="M0 26 L12 18 L20 24 L28 14 L40 22" fill="none" stroke="#BDBDBD" stroke-width="1.5" stroke-linejoin="round"/>
      </g>
      <text x="100" y="72" text-anchor="middle" class="token-label">Image placeholder</text>
    </g>
  </g>

  <!-- ==================== USAGE NOTES ==================== -->
  <text x="48" y="1120" class="text-primary" font-size="20" font-weight="600">Usage Notes</text>

  <g transform="translate(48, 1144)">
    <rect width="1104" height="220" rx="8" fill="#FFFFFF" stroke="#E0E0E0" stroke-width="1"/>

    <text x="24" y="32" class="text-primary" font-size="14" font-weight="500">Drawing Rules</text>
    <text x="24" y="56" class="text-secondary" font-size="13">1. All icons are inline SVG primitives — no external references, no image tags</text>
    <text x="24" y="76" class="text-secondary" font-size="13">2. Use stroke-based drawing for outlines, fill-based for active/selected states</text>
    <text x="24" y="96" class="text-secondary" font-size="13">3. Standard icon size: 24×24px in wireframes. Tab bar icons: 14×14px.</text>
    <text x="24" y="116" class="text-secondary" font-size="13">4. All strokes use stroke-linecap="round" and stroke-linejoin="round" for softness</text>
    <text x="24" y="136" class="text-secondary" font-size="13">5. Place icons using group transforms: &lt;g transform="translate(x, y)"&gt;</text>

    <line x1="24" y1="152" x2="1080" y2="152" stroke="#F5F5F5" stroke-width="1"/>

    <text x="24" y="176" class="text-primary" font-size="14" font-weight="500">Color Convention</text>
    <text x="24" y="200" class="text-secondary" font-size="13">#424242 (Interactive) for primary icons and active states, #757575 (Secondary) for inactive, #BDBDBD for disabled</text>
  </g>

  <!-- Footer -->
  <text x="48" y="1388" class="text-secondary" font-size="12">Wireframe Icon Set — Generic Template v1.0 — 40+ inline SVG icons</text>

</svg>