<?xml version="1.0" encoding="UTF-8"?>
<svg viewBox="0 0 512 512" xmlns="http://www.w3.org/2000/svg">
 <rect x="0" y="0" width="512" height="512" fill="#333"/>
 <g transform="translate(256, 256) scale(1.6) translate(-256, -256)">
  <path d="m408.73 350.86v-156.17h-17.82v131.35c-0.007812 2.207-0.93359 4.3086-2.5586 5.8047-1.6211 1.4961-3.7969 2.2422-5.9961 2.0664-37.438-3.0156-70.535 2.6836-98.77 16.949zm-305.47-156.17v156.17h125.18c-28.23-14.254-61.332-19.969-98.77-16.949-2.1992 0.17188-4.3711-0.57812-5.9961-2.0703-1.625-1.4961-2.5508-3.5977-2.5586-5.8047v-131.35zm33.664-33.23c43.402-2.2148 80.777 7.6484 111.18 29.34l0.003906 153c-28.402-17.598-61.699-26.473-99.332-26.473-3.9141 0-7.8555 0.09375-11.848 0.29688v-156.17zm238.15 0 0.003907 156.15c-42.531-2.0352-79.797 6.7539-111.18 26.199v-153.02c30.406-21.676 67.758-31.551 111.19-29.336z" fill="#ff59b9" fill-rule="evenodd"/>
 </g>
</svg>
