<?xml version="1.0" encoding="UTF-8" standalone="no"?>
<!DOCTYPE svg PUBLIC "-//W3C//DTD SVG 1.1//EN" "http://www.w3.org/Graphics/SVG/1.1/DTD/svg11.dtd">
<svg width="100%" height="100%" viewBox="0 0 500 500" version="1.1" xmlns="http://www.w3.org/2000/svg" xmlns:xlink="http://www.w3.org/1999/xlink" xml:space="preserve" xmlns:serif="http://www.serif.com/" style="fill-rule:evenodd;clip-rule:evenodd;stroke-linejoin:round;stroke-miterlimit:2;">
    <g transform="matrix(4.936002,0,0,7.782127,-240.94263,-873.539885)">
        <path d="M106.041,147.097C104.5,148.036 102.28,149.142 98.56,149.142C94.294,149.142 91.22,147.716 91.22,145.272C91.22,142.246 94.89,139.773 100.808,139.773C104.294,139.773 105.579,140.704 105.579,141.809C105.579,143.002 104.386,143.672 102.872,143.672C101.817,143.672 101.037,143.293 101.037,142.711C101.037,142.071 101.725,141.809 101.771,141.46C101.771,141.227 101.496,141.082 100.945,141.082C99.615,141.082 97.643,142.624 97.643,144.69C97.643,146.407 99.386,147.192 101.312,147.192C103.331,147.192 105.028,146.319 106.129,145.708C106.299,145.614 106.459,145.532 106.609,145.472C107.786,142.458 109.845,138.347 109.845,135.437C109.845,134.477 109.065,134.011 108.102,134.011C107.689,134.011 107.414,133.895 107.414,133.662C107.414,133.051 109.845,132.091 112.46,132.091C114.891,132.091 116.359,132.906 116.359,134.361C116.359,135.99 114.341,140.355 113.698,141.635C114.845,140.82 117.001,139.831 119.616,139.831C122.139,139.831 123.516,140.558 123.516,141.809C123.516,144.428 122.139,146.028 122.139,149.054C122.139,151.586 124.295,152.692 127.277,152.692C130.213,152.692 132.323,151.266 132.323,149.229C132.323,147.483 130.534,146.698 128.653,146.698C127.644,146.698 127.14,147.047 126.727,147.047C126.497,147.047 126.36,146.93 126.36,146.756C126.36,145.912 128.837,144.399 132.874,144.399C137.737,144.399 141.636,146.378 141.636,149.811C141.636,154.379 136.085,158.074 127.782,158.074C120.671,158.074 115.396,155.194 115.396,150.946C115.396,147.309 117.552,144.981 117.552,142.624C117.552,142.188 117.093,141.926 116.451,141.926C115.488,141.926 114.478,142.566 113.561,143.73C112.735,144.719 111.68,147.687 111.634,148.298C111.634,148.793 111.313,148.909 110.671,148.909C109.249,148.909 107.414,149.054 106.68,149.054C106.129,149.054 105.808,148.909 105.808,148.414C105.808,148.053 105.894,147.607 106.041,147.097ZM67.182,147.396C69.384,147.396 70.99,145.854 70.99,143.759C70.99,139.423 65.164,137.794 65.164,134.477C65.164,131.305 70.164,129.618 73.971,129.618C77.733,129.618 79.935,130.723 79.935,132.789C79.935,134.07 78.651,135.233 76.77,135.233C75.531,135.233 74.522,134.739 74.522,133.953C74.522,132.964 76.082,132.644 76.082,131.887C76.082,131.451 75.806,131.102 74.66,131.102C73.054,131.102 71.632,131.975 71.632,133.255C71.632,136.659 77.871,138.289 77.871,142.537C77.871,146.407 72.87,149.316 66.265,149.316C61.402,149.316 57.227,147.687 57.227,144.835C57.227,142.159 61.769,140.878 64.98,140.878C66.54,140.878 66.999,141.082 66.999,141.344C66.999,141.664 66.677,141.78 66.219,141.955C64.888,142.508 63.65,143.642 63.65,145.01C63.65,146.465 65.118,147.396 67.182,147.396ZM85.44,143.759C84.614,144.748 83.559,147.163 83.559,148.298C83.559,148.793 83.238,148.909 82.55,148.909C81.174,148.909 79.385,149.054 78.697,149.054C78.1,149.054 77.733,148.909 77.733,148.414C77.733,147.338 79.66,143.41 79.66,141.838C79.66,141.344 79.339,141.286 79.339,140.907C79.339,140.267 81.816,139.831 84.477,139.831C85.486,139.831 86.036,140.093 86.036,140.587C86.036,140.966 85.853,141.518 85.761,141.722C86.036,141.373 87.321,139.947 89.798,139.947C91.083,139.947 91.908,140.442 91.908,141.315C91.908,142.391 90.807,143.613 88.926,143.613C87.642,143.613 87,143.031 87,142.508C86.724,142.566 86.128,142.944 85.44,143.759Z" style="fill:none;stroke:rgb(51,51,51);stroke-width:9.82px;"/>
        <path d="M106.041,147.097C104.5,148.036 102.28,149.142 98.56,149.142C94.294,149.142 91.22,147.716 91.22,145.272C91.22,142.246 94.89,139.773 100.808,139.773C104.294,139.773 105.579,140.704 105.579,141.809C105.579,143.002 104.386,143.672 102.872,143.672C101.817,143.672 101.037,143.293 101.037,142.711C101.037,142.071 101.725,141.809 101.771,141.46C101.771,141.227 101.496,141.082 100.945,141.082C99.615,141.082 97.643,142.624 97.643,144.69C97.643,146.407 99.386,147.192 101.312,147.192C103.331,147.192 105.028,146.319 106.129,145.708C106.299,145.614 106.459,145.532 106.609,145.472C107.786,142.458 109.845,138.347 109.845,135.437C109.845,134.477 109.065,134.011 108.102,134.011C107.689,134.011 107.414,133.895 107.414,133.662C107.414,133.051 109.845,132.091 112.46,132.091C114.891,132.091 116.359,132.906 116.359,134.361C116.359,135.99 114.341,140.355 113.698,141.635C114.845,140.82 117.001,139.831 119.616,139.831C122.139,139.831 123.516,140.558 123.516,141.809C123.516,144.428 122.139,146.028 122.139,149.054C122.139,151.586 124.295,152.692 127.277,152.692C130.213,152.692 132.323,151.266 132.323,149.229C132.323,147.483 130.534,146.698 128.653,146.698C127.644,146.698 127.14,147.047 126.727,147.047C126.497,147.047 126.36,146.93 126.36,146.756C126.36,145.912 128.837,144.399 132.874,144.399C137.737,144.399 141.636,146.378 141.636,149.811C141.636,154.379 136.085,158.074 127.782,158.074C120.671,158.074 115.396,155.194 115.396,150.946C115.396,147.309 117.552,144.981 117.552,142.624C117.552,142.188 117.093,141.926 116.451,141.926C115.488,141.926 114.478,142.566 113.561,143.73C112.735,144.719 111.68,147.687 111.634,148.298C111.634,148.793 111.313,148.909 110.671,148.909C109.249,148.909 107.414,149.054 106.68,149.054C106.129,149.054 105.808,148.909 105.808,148.414C105.808,148.053 105.894,147.607 106.041,147.097ZM67.182,147.396C69.384,147.396 70.99,145.854 70.99,143.759C70.99,139.423 65.164,137.794 65.164,134.477C65.164,131.305 70.164,129.618 73.971,129.618C77.733,129.618 79.935,130.723 79.935,132.789C79.935,134.07 78.651,135.233 76.77,135.233C75.531,135.233 74.522,134.739 74.522,133.953C74.522,132.964 76.082,132.644 76.082,131.887C76.082,131.451 75.806,131.102 74.66,131.102C73.054,131.102 71.632,131.975 71.632,133.255C71.632,136.659 77.871,138.289 77.871,142.537C77.871,146.407 72.87,149.316 66.265,149.316C61.402,149.316 57.227,147.687 57.227,144.835C57.227,142.159 61.769,140.878 64.98,140.878C66.54,140.878 66.999,141.082 66.999,141.344C66.999,141.664 66.677,141.78 66.219,141.955C64.888,142.508 63.65,143.642 63.65,145.01C63.65,146.465 65.118,147.396 67.182,147.396ZM85.44,143.759C84.614,144.748 83.559,147.163 83.559,148.298C83.559,148.793 83.238,148.909 82.55,148.909C81.174,148.909 79.385,149.054 78.697,149.054C78.1,149.054 77.733,148.909 77.733,148.414C77.733,147.338 79.66,143.41 79.66,141.838C79.66,141.344 79.339,141.286 79.339,140.907C79.339,140.267 81.816,139.831 84.477,139.831C85.486,139.831 86.036,140.093 86.036,140.587C86.036,140.966 85.853,141.518 85.761,141.722C86.036,141.373 87.321,139.947 89.798,139.947C91.083,139.947 91.908,140.442 91.908,141.315C91.908,142.391 90.807,143.613 88.926,143.613C87.642,143.613 87,143.031 87,142.508C86.724,142.566 86.128,142.944 85.44,143.759Z" style="fill:rgb(221,204,0);"/>
    </g>
</svg>
