<svg width="385" height="285" viewBox="0 0 385 285" fill="none" xmlns="http://www.w3.org/2000/svg">
<rect width="385" height="285" fill="#F5F5F5"/>
<rect x="200" y="285" width="200" height="285" transform="rotate(-180 200 285)" fill="#E9E9E9"/>
<rect x="213" y="231" width="158" height="36" rx="8" fill="#171717"/>
<path d="M269.991 253.5V243.56H273.183C274.742 243.56 275.941 243.994 276.781 244.862C277.621 245.721 278.041 246.948 278.041 248.544C278.041 250.131 277.626 251.353 276.795 252.212C275.974 253.071 274.798 253.5 273.267 253.5H269.991ZM271.503 252.114H273.183C274.284 252.114 275.106 251.82 275.647 251.232C276.198 250.635 276.473 249.739 276.473 248.544C276.473 247.331 276.198 246.43 275.647 245.842C275.106 245.245 274.284 244.946 273.183 244.946H271.503V252.114ZM283.008 253.668C282.28 253.668 281.65 253.509 281.118 253.192C280.596 252.875 280.19 252.422 279.9 251.834C279.62 251.246 279.48 250.56 279.48 249.776C279.48 248.992 279.62 248.311 279.9 247.732C280.19 247.144 280.596 246.691 281.118 246.374C281.641 246.047 282.257 245.884 282.966 245.884C283.638 245.884 284.231 246.043 284.744 246.36C285.258 246.668 285.654 247.116 285.934 247.704C286.224 248.292 286.368 249.001 286.368 249.832V250.21H281.02C281.058 250.938 281.249 251.484 281.594 251.848C281.949 252.212 282.425 252.394 283.022 252.394C283.461 252.394 283.825 252.291 284.114 252.086C284.404 251.881 284.604 251.605 284.716 251.26L286.256 251.358C286.06 252.049 285.673 252.609 285.094 253.038C284.525 253.458 283.83 253.668 283.008 253.668ZM281.02 249.09H284.8C284.754 248.427 284.562 247.937 284.226 247.62C283.9 247.303 283.48 247.144 282.966 247.144C282.434 247.144 281.996 247.312 281.65 247.648C281.314 247.975 281.104 248.455 281.02 249.09ZM290.524 253.5C289.815 253.5 289.292 253.337 288.956 253.01C288.62 252.683 288.452 252.175 288.452 251.484V244.302H289.936V251.372C289.936 251.717 290.011 251.955 290.16 252.086C290.31 252.217 290.538 252.282 290.846 252.282H291.91V253.5H290.524ZM287.318 247.27V246.052H291.91V247.27H287.318ZM295.444 253.668C294.669 253.668 294.048 253.491 293.582 253.136C293.124 252.781 292.896 252.282 292.896 251.638C292.896 250.994 293.087 250.495 293.47 250.14C293.862 249.776 294.464 249.515 295.276 249.356L297.838 248.866C297.838 248.287 297.702 247.858 297.432 247.578C297.161 247.289 296.76 247.144 296.228 247.144C295.752 247.144 295.378 247.251 295.108 247.466C294.837 247.671 294.65 247.979 294.548 248.39L293.022 248.292C293.162 247.545 293.507 246.957 294.058 246.528C294.618 246.099 295.341 245.884 296.228 245.884C297.236 245.884 298.001 246.155 298.524 246.696C299.056 247.228 299.322 247.979 299.322 248.95V251.848C299.322 252.025 299.35 252.151 299.406 252.226C299.471 252.291 299.574 252.324 299.714 252.324H299.98V253.5C299.933 253.509 299.858 253.519 299.756 253.528C299.653 253.537 299.546 253.542 299.434 253.542C299.116 253.542 298.841 253.491 298.608 253.388C298.384 253.285 298.216 253.117 298.104 252.884C297.992 252.641 297.936 252.319 297.936 251.918L298.09 251.988C298.015 252.315 297.852 252.604 297.6 252.856C297.357 253.108 297.044 253.309 296.662 253.458C296.288 253.598 295.882 253.668 295.444 253.668ZM295.682 252.492C296.13 252.492 296.512 252.408 296.83 252.24C297.147 252.063 297.394 251.82 297.572 251.512C297.749 251.204 297.838 250.854 297.838 250.462V249.986L295.654 250.406C295.206 250.49 294.888 250.625 294.702 250.812C294.524 250.989 294.436 251.218 294.436 251.498C294.436 251.815 294.543 252.063 294.758 252.24C294.982 252.408 295.29 252.492 295.682 252.492ZM301.234 253.5V246.052H302.718V253.5H301.234ZM301.206 244.974V243.49H302.746V244.974H301.206ZM306.401 253.5C305.916 253.5 305.524 253.374 305.225 253.122C304.926 252.87 304.777 252.469 304.777 251.918V243.56H306.261V251.778C306.261 251.946 306.303 252.072 306.387 252.156C306.48 252.24 306.611 252.282 306.779 252.282H307.367V253.5H306.401ZM311.572 253.668C310.872 253.668 310.28 253.561 309.794 253.346C309.318 253.131 308.95 252.837 308.688 252.464C308.427 252.081 308.278 251.643 308.24 251.148L309.766 251.078C309.841 251.489 310.018 251.815 310.298 252.058C310.578 252.301 311.003 252.422 311.572 252.422C312.039 252.422 312.408 252.347 312.678 252.198C312.949 252.049 313.084 251.811 313.084 251.484C313.084 251.307 313.038 251.157 312.944 251.036C312.86 250.905 312.692 250.798 312.44 250.714C312.188 250.621 311.815 250.532 311.32 250.448C310.583 250.308 310.004 250.145 309.584 249.958C309.164 249.771 308.866 249.533 308.688 249.244C308.511 248.955 308.422 248.605 308.422 248.194C308.422 247.513 308.674 246.957 309.178 246.528C309.692 246.099 310.429 245.884 311.39 245.884C312.034 245.884 312.576 245.996 313.014 246.22C313.453 246.435 313.794 246.729 314.036 247.102C314.288 247.466 314.447 247.877 314.512 248.334L312.986 248.418C312.94 248.157 312.846 247.933 312.706 247.746C312.576 247.55 312.398 247.401 312.174 247.298C311.95 247.186 311.684 247.13 311.376 247.13C310.9 247.13 310.546 247.223 310.312 247.41C310.079 247.597 309.962 247.839 309.962 248.138C309.962 248.362 310.014 248.544 310.116 248.684C310.228 248.824 310.406 248.941 310.648 249.034C310.891 249.118 311.213 249.193 311.614 249.258C312.389 249.389 312.996 249.552 313.434 249.748C313.873 249.935 314.181 250.168 314.358 250.448C314.536 250.728 314.624 251.069 314.624 251.47C314.624 251.937 314.494 252.333 314.232 252.66C313.971 252.987 313.612 253.239 313.154 253.416C312.697 253.584 312.17 253.668 311.572 253.668Z" fill="white"/>
<path d="M272.733 102.017V100.455H283.643V102.017H279.069V115H277.307V102.017H272.733ZM286.134 115V104.091H287.81V115H286.134ZM286.986 102.273C286.659 102.273 286.378 102.161 286.141 101.939C285.909 101.716 285.793 101.449 285.793 101.136C285.793 100.824 285.909 100.556 286.141 100.334C286.378 100.111 286.659 100 286.986 100C287.313 100 287.592 100.111 287.824 100.334C288.061 100.556 288.179 100.824 288.179 101.136C288.179 101.449 288.061 101.716 287.824 101.939C287.592 102.161 287.313 102.273 286.986 102.273ZM295.624 104.091V105.511H289.971V104.091H295.624ZM291.618 101.477H293.295V111.875C293.295 112.348 293.363 112.704 293.501 112.94C293.643 113.172 293.823 113.329 294.04 113.409C294.263 113.485 294.497 113.523 294.743 113.523C294.928 113.523 295.08 113.513 295.198 113.494C295.316 113.471 295.411 113.452 295.482 113.438L295.823 114.943C295.709 114.986 295.551 115.028 295.347 115.071C295.144 115.118 294.885 115.142 294.573 115.142C294.099 115.142 293.635 115.04 293.181 114.837C292.731 114.633 292.357 114.323 292.059 113.906C291.765 113.49 291.618 112.964 291.618 112.33V101.477ZM300.056 100.455V115H298.38V100.455H300.056ZM307.7 115.227C306.649 115.227 305.742 114.995 304.98 114.531C304.222 114.062 303.637 113.409 303.225 112.571C302.818 111.728 302.615 110.748 302.615 109.631C302.615 108.513 302.818 107.528 303.225 106.676C303.637 105.819 304.21 105.152 304.944 104.673C305.683 104.19 306.544 103.949 307.529 103.949C308.097 103.949 308.659 104.044 309.213 104.233C309.767 104.422 310.271 104.73 310.725 105.156C311.18 105.578 311.542 106.136 311.812 106.832C312.082 107.528 312.217 108.385 312.217 109.403V110.114H303.808V108.665H310.512C310.512 108.049 310.389 107.5 310.143 107.017C309.901 106.534 309.556 106.153 309.106 105.874C308.661 105.594 308.135 105.455 307.529 105.455C306.862 105.455 306.284 105.62 305.796 105.952C305.313 106.278 304.942 106.705 304.681 107.23C304.421 107.756 304.291 108.319 304.291 108.92V109.886C304.291 110.71 304.433 111.409 304.717 111.982C305.006 112.55 305.406 112.983 305.917 113.281C306.428 113.575 307.023 113.722 307.7 113.722C308.14 113.722 308.538 113.66 308.893 113.537C309.253 113.409 309.563 113.22 309.823 112.969C310.084 112.713 310.285 112.396 310.427 112.017L312.046 112.472C311.876 113.021 311.589 113.504 311.187 113.92C310.785 114.332 310.287 114.654 309.695 114.886C309.104 115.114 308.438 115.227 307.7 115.227Z" fill="#333333"/>
<path d="M0 213H200V285H0V213Z" fill="#525252" fill-opacity="0.85"/>
<path d="M69.696 245H68.2983L71.4389 236.273H72.9602L76.1009 245H74.7031L72.2358 237.858H72.1676L69.696 245ZM69.9304 241.582H74.4645V242.69H69.9304V241.582ZM79.6037 245.128C79.0753 245.128 78.6037 244.993 78.1889 244.723C77.777 244.45 77.4531 244.062 77.2173 243.56C76.9844 243.054 76.8679 242.447 76.8679 241.74C76.8679 241.033 76.9858 240.428 77.2216 239.925C77.4602 239.422 77.7869 239.037 78.2017 238.77C78.6165 238.503 79.0866 238.369 79.6122 238.369C80.0185 238.369 80.3452 238.438 80.5923 238.574C80.8423 238.707 81.0355 238.864 81.1719 239.043C81.3111 239.222 81.419 239.379 81.4957 239.516H81.5724V236.273H82.8466V245H81.6023V243.982H81.4957C81.419 244.121 81.3082 244.28 81.1634 244.459C81.0213 244.638 80.8253 244.794 80.5753 244.928C80.3253 245.061 80.0014 245.128 79.6037 245.128ZM79.8849 244.041C80.2514 244.041 80.5611 243.945 80.8139 243.751C81.0696 243.555 81.2628 243.284 81.3935 242.938C81.527 242.591 81.5938 242.187 81.5938 241.727C81.5938 241.273 81.5284 240.875 81.3977 240.534C81.267 240.193 81.0753 239.928 80.8224 239.737C80.5696 239.547 80.2571 239.452 79.8849 239.452C79.5014 239.452 79.1818 239.551 78.9261 239.75C78.6705 239.949 78.4773 240.22 78.3466 240.564C78.2188 240.908 78.1548 241.295 78.1548 241.727C78.1548 242.165 78.2202 242.558 78.3509 242.908C78.4815 243.257 78.6747 243.534 78.9304 243.739C79.1889 243.94 79.5071 244.041 79.8849 244.041ZM87.1154 245.128C86.587 245.128 86.1154 244.993 85.7006 244.723C85.2887 244.45 84.9648 244.062 84.729 243.56C84.4961 243.054 84.3796 242.447 84.3796 241.74C84.3796 241.033 84.4975 240.428 84.7333 239.925C84.9719 239.422 85.2987 239.037 85.7134 238.77C86.1282 238.503 86.5984 238.369 87.1239 238.369C87.5302 238.369 87.8569 238.438 88.104 238.574C88.354 238.707 88.5472 238.864 88.6836 239.043C88.8228 239.222 88.9308 239.379 89.0075 239.516H89.0842V236.273H90.3583V245H89.114V243.982H89.0075C88.9308 244.121 88.82 244.28 88.6751 244.459C88.533 244.638 88.337 244.794 88.087 244.928C87.837 245.061 87.5131 245.128 87.1154 245.128ZM87.3967 244.041C87.7631 244.041 88.0728 243.945 88.3256 243.751C88.5813 243.555 88.7745 243.284 88.9052 242.938C89.0387 242.591 89.1055 242.187 89.1055 241.727C89.1055 241.273 89.0401 240.875 88.9094 240.534C88.7788 240.193 88.587 239.928 88.3342 239.737C88.0813 239.547 87.7688 239.452 87.3967 239.452C87.0131 239.452 86.6935 239.551 86.4379 239.75C86.1822 239.949 85.989 240.22 85.8583 240.564C85.7305 240.908 85.6665 241.295 85.6665 241.727C85.6665 242.165 85.7319 242.558 85.8626 242.908C85.9933 243.257 86.1864 243.534 86.4421 243.739C86.7006 243.94 87.0188 244.041 87.3967 244.041ZM94.9979 245.132C94.353 245.132 93.7976 244.994 93.3317 244.719C92.8686 244.44 92.5107 244.05 92.2578 243.547C92.0078 243.041 91.8828 242.449 91.8828 241.77C91.8828 241.099 92.0078 240.509 92.2578 239.997C92.5107 239.486 92.8629 239.087 93.3146 238.8C93.7692 238.513 94.3004 238.369 94.9084 238.369C95.2777 238.369 95.6357 238.43 95.9822 238.553C96.3288 238.675 96.6399 238.866 96.9155 239.128C97.1911 239.389 97.4084 239.729 97.5675 240.146C97.7266 240.561 97.8061 241.065 97.8061 241.659V242.111H92.603V241.156H96.5575C96.5575 240.821 96.4893 240.524 96.353 240.266C96.2166 240.004 96.0249 239.798 95.7777 239.648C95.5334 239.497 95.2464 239.422 94.9169 239.422C94.5589 239.422 94.2464 239.51 93.9794 239.686C93.7152 239.859 93.5107 240.087 93.3658 240.368C93.2237 240.646 93.1527 240.949 93.1527 241.276V242.021C93.1527 242.459 93.2294 242.831 93.3828 243.138C93.5391 243.445 93.7564 243.679 94.0348 243.841C94.3132 244 94.6385 244.08 95.0107 244.08C95.2521 244.08 95.4723 244.045 95.6712 243.977C95.87 243.906 96.0419 243.801 96.1868 243.662C96.3317 243.523 96.4425 243.351 96.5192 243.146L97.7251 243.364C97.6286 243.719 97.4553 244.03 97.2053 244.297C96.9581 244.561 96.647 244.767 96.272 244.915C95.8999 245.06 95.4751 245.132 94.9979 245.132ZM101.67 245.128C101.142 245.128 100.67 244.993 100.255 244.723C99.8434 244.45 99.5195 244.062 99.2837 243.56C99.0508 243.054 98.9343 242.447 98.9343 241.74C98.9343 241.033 99.0522 240.428 99.288 239.925C99.5266 239.422 99.8533 239.037 100.268 238.77C100.683 238.503 101.153 238.369 101.679 238.369C102.085 238.369 102.412 238.438 102.659 238.574C102.909 238.707 103.102 238.864 103.238 239.043C103.377 239.222 103.485 239.379 103.562 239.516H103.639V236.273H104.913V245H103.669V243.982H103.562C103.485 244.121 103.375 244.28 103.23 244.459C103.088 244.638 102.892 244.794 102.642 244.928C102.392 245.061 102.068 245.128 101.67 245.128ZM101.951 244.041C102.318 244.041 102.627 243.945 102.88 243.751C103.136 243.555 103.329 243.284 103.46 242.938C103.593 242.591 103.66 242.187 103.66 241.727C103.66 241.273 103.595 240.875 103.464 240.534C103.333 240.193 103.142 239.928 102.889 239.737C102.636 239.547 102.324 239.452 101.951 239.452C101.568 239.452 101.248 239.551 100.993 239.75C100.737 239.949 100.544 240.22 100.413 240.564C100.285 240.908 100.221 241.295 100.221 241.727C100.221 242.165 100.287 242.558 100.417 242.908C100.548 243.257 100.741 243.534 100.997 243.739C101.255 243.94 101.574 244.041 101.951 244.041ZM73.7188 258.565C73.6733 258.162 73.4858 257.849 73.1562 257.628C72.8267 257.403 72.4119 257.291 71.9119 257.291C71.554 257.291 71.2443 257.348 70.983 257.462C70.7216 257.572 70.5185 257.726 70.3736 257.922C70.2315 258.115 70.1605 258.335 70.1605 258.582C70.1605 258.79 70.2088 258.969 70.3054 259.119C70.4048 259.27 70.5341 259.396 70.6932 259.499C70.8551 259.598 71.0284 259.682 71.2131 259.75C71.3977 259.815 71.5753 259.869 71.7457 259.912L72.598 260.134C72.8764 260.202 73.1619 260.294 73.4545 260.411C73.7472 260.527 74.0185 260.68 74.2685 260.871C74.5185 261.061 74.7202 261.297 74.8736 261.578C75.0298 261.859 75.108 262.196 75.108 262.588C75.108 263.082 74.9801 263.521 74.7244 263.905C74.4716 264.288 74.1037 264.591 73.6207 264.812C73.1406 265.034 72.5597 265.145 71.8778 265.145C71.2244 265.145 70.6591 265.041 70.1818 264.834C69.7045 264.626 69.331 264.332 69.0611 263.952C68.7912 263.568 68.642 263.114 68.6136 262.588H69.9347C69.9602 262.903 70.0625 263.166 70.2415 263.376C70.4233 263.584 70.6548 263.739 70.9361 263.841C71.2202 263.94 71.5312 263.99 71.8693 263.99C72.2415 263.99 72.5724 263.932 72.8622 263.815C73.1548 263.696 73.3849 263.531 73.5526 263.321C73.7202 263.108 73.804 262.859 73.804 262.575C73.804 262.317 73.7301 262.105 73.5824 261.94C73.4375 261.776 73.2401 261.639 72.9901 261.531C72.7429 261.423 72.4631 261.328 72.1506 261.246L71.1193 260.964C70.4205 260.774 69.8665 260.494 69.4574 260.125C69.0511 259.756 68.848 259.267 68.848 258.659C68.848 258.156 68.9844 257.717 69.2571 257.342C69.5298 256.967 69.8991 256.676 70.3651 256.469C70.831 256.259 71.3565 256.153 71.9418 256.153C72.5327 256.153 73.054 256.257 73.5057 256.464C73.9602 256.672 74.3182 256.957 74.5795 257.321C74.8409 257.682 74.9773 258.097 74.9886 258.565H73.7188ZM79.4002 265.132C78.7553 265.132 78.1999 264.994 77.734 264.719C77.271 264.44 76.913 264.05 76.6602 263.547C76.4102 263.041 76.2852 262.449 76.2852 261.77C76.2852 261.099 76.4102 260.509 76.6602 259.997C76.913 259.486 77.2653 259.087 77.717 258.8C78.1715 258.513 78.7028 258.369 79.3107 258.369C79.68 258.369 80.038 258.43 80.3846 258.553C80.7312 258.675 81.0423 258.866 81.3178 259.128C81.5934 259.389 81.8107 259.729 81.9698 260.146C82.1289 260.561 82.2085 261.065 82.2085 261.659V262.111H77.0053V261.156H80.9599C80.9599 260.821 80.8917 260.524 80.7553 260.266C80.619 260.004 80.4272 259.798 80.18 259.648C79.9357 259.497 79.6488 259.422 79.3192 259.422C78.9613 259.422 78.6488 259.51 78.3817 259.686C78.1175 259.859 77.913 260.087 77.7681 260.368C77.6261 260.646 77.555 260.949 77.555 261.276V262.021C77.555 262.459 77.6317 262.831 77.7852 263.138C77.9414 263.445 78.1587 263.679 78.4371 263.841C78.7156 264 79.0408 264.08 79.413 264.08C79.6545 264.08 79.8746 264.045 80.0735 263.977C80.2724 263.906 80.4442 263.801 80.5891 263.662C80.734 263.523 80.8448 263.351 80.9215 263.146L82.1275 263.364C82.0309 263.719 81.8576 264.03 81.6076 264.297C81.3604 264.561 81.0494 264.767 80.6744 264.915C80.3022 265.06 79.8775 265.132 79.4002 265.132ZM83.6222 267.455V258.455H84.8665V259.516H84.973C85.0469 259.379 85.1534 259.222 85.2926 259.043C85.4318 258.864 85.625 258.707 85.8722 258.574C86.1193 258.438 86.446 258.369 86.8523 258.369C87.3807 258.369 87.8523 258.503 88.267 258.77C88.6818 259.037 89.0071 259.422 89.2429 259.925C89.4815 260.428 89.6009 261.033 89.6009 261.74C89.6009 262.447 89.483 263.054 89.2472 263.56C89.0114 264.062 88.6875 264.45 88.2756 264.723C87.8636 264.993 87.3935 265.128 86.8651 265.128C86.4673 265.128 86.142 265.061 85.8892 264.928C85.6392 264.794 85.4432 264.638 85.3011 264.459C85.1591 264.28 85.0497 264.121 84.973 263.982H84.8963V267.455H83.6222ZM84.8707 261.727C84.8707 262.187 84.9375 262.591 85.071 262.938C85.2045 263.284 85.3977 263.555 85.6506 263.751C85.9034 263.945 86.2131 264.041 86.5795 264.041C86.9602 264.041 87.2784 263.94 87.5341 263.739C87.7898 263.534 87.983 263.257 88.1136 262.908C88.2472 262.558 88.3139 262.165 88.3139 261.727C88.3139 261.295 88.2486 260.908 88.1179 260.564C87.9901 260.22 87.7969 259.949 87.5384 259.75C87.2827 259.551 86.9631 259.452 86.5795 259.452C86.2102 259.452 85.8977 259.547 85.642 259.737C85.3892 259.928 85.1974 260.193 85.0668 260.534C84.9361 260.875 84.8707 261.273 84.8707 261.727ZM94.0838 258.455V259.477H90.5085V258.455H94.0838ZM91.4673 256.886H92.7415V263.078C92.7415 263.325 92.7784 263.511 92.8523 263.636C92.9261 263.759 93.0213 263.842 93.1378 263.888C93.2571 263.93 93.3864 263.952 93.5256 263.952C93.6278 263.952 93.7173 263.945 93.794 263.93C93.8707 263.916 93.9304 263.905 93.973 263.896L94.2031 264.949C94.1293 264.977 94.0241 265.006 93.8878 265.034C93.7514 265.065 93.581 265.082 93.3764 265.085C93.0412 265.091 92.7287 265.031 92.4389 264.906C92.1491 264.781 91.9148 264.588 91.7358 264.327C91.5568 264.065 91.4673 263.737 91.4673 263.342V256.886ZM98.244 265.132C97.5991 265.132 97.0437 264.994 96.5778 264.719C96.1147 264.44 95.7567 264.05 95.5039 263.547C95.2539 263.041 95.1289 262.449 95.1289 261.77C95.1289 261.099 95.2539 260.509 95.5039 259.997C95.7567 259.486 96.109 259.087 96.5607 258.8C97.0153 258.513 97.5465 258.369 98.1545 258.369C98.5238 258.369 98.8817 258.43 99.2283 258.553C99.5749 258.675 99.886 258.866 100.162 259.128C100.437 259.389 100.654 259.729 100.814 260.146C100.973 260.561 101.052 261.065 101.052 261.659V262.111H95.8491V261.156H99.8036C99.8036 260.821 99.7354 260.524 99.5991 260.266C99.4627 260.004 99.271 259.798 99.0238 259.648C98.7795 259.497 98.4925 259.422 98.163 259.422C97.805 259.422 97.4925 259.51 97.2255 259.686C96.9613 259.859 96.7567 260.087 96.6119 260.368C96.4698 260.646 96.3988 260.949 96.3988 261.276V262.021C96.3988 262.459 96.4755 262.831 96.6289 263.138C96.7852 263.445 97.0025 263.679 97.2809 263.841C97.5593 264 97.8846 264.08 98.2567 264.08C98.4982 264.08 98.7184 264.045 98.9173 263.977C99.1161 263.906 99.288 263.801 99.4329 263.662C99.5778 263.523 99.6886 263.351 99.7653 263.146L100.971 263.364C100.875 263.719 100.701 264.03 100.451 264.297C100.204 264.561 99.8931 264.767 99.5181 264.915C99.146 265.06 98.7212 265.132 98.244 265.132ZM102.466 265V258.455H103.689V259.52H103.77C103.906 259.159 104.129 258.878 104.439 258.676C104.749 258.472 105.119 258.369 105.551 258.369C105.989 258.369 106.355 258.472 106.651 258.676C106.949 258.881 107.169 259.162 107.311 259.52H107.379C107.536 259.17 107.784 258.892 108.125 258.685C108.466 258.474 108.872 258.369 109.344 258.369C109.938 258.369 110.422 258.555 110.797 258.928C111.175 259.3 111.364 259.861 111.364 260.611V265H110.089V260.73C110.089 260.287 109.969 259.966 109.727 259.767C109.486 259.568 109.197 259.469 108.862 259.469C108.447 259.469 108.125 259.597 107.895 259.852C107.665 260.105 107.55 260.43 107.55 260.828V265H106.28V260.649C106.28 260.294 106.169 260.009 105.947 259.793C105.726 259.577 105.438 259.469 105.082 259.469C104.841 259.469 104.618 259.533 104.413 259.661C104.212 259.786 104.048 259.96 103.923 260.185C103.801 260.409 103.74 260.669 103.74 260.964V265H102.466ZM113.174 265V256.273H114.448V259.516H114.525C114.598 259.379 114.705 259.222 114.844 259.043C114.983 258.864 115.176 258.707 115.424 258.574C115.671 258.438 115.998 258.369 116.404 258.369C116.932 258.369 117.404 258.503 117.819 258.77C118.233 259.037 118.559 259.422 118.794 259.925C119.033 260.428 119.152 261.033 119.152 261.74C119.152 262.447 119.034 263.054 118.799 263.56C118.563 264.062 118.239 264.45 117.827 264.723C117.415 264.993 116.945 265.128 116.417 265.128C116.019 265.128 115.694 265.061 115.441 264.928C115.191 264.794 114.995 264.638 114.853 264.459C114.711 264.28 114.601 264.121 114.525 263.982H114.418V265H113.174ZM114.422 261.727C114.422 262.187 114.489 262.591 114.623 262.938C114.756 263.284 114.949 263.555 115.202 263.751C115.455 263.945 115.765 264.041 116.131 264.041C116.512 264.041 116.83 263.94 117.086 263.739C117.341 263.534 117.534 263.257 117.665 262.908C117.799 262.558 117.865 262.165 117.865 261.727C117.865 261.295 117.8 260.908 117.669 260.564C117.542 260.22 117.348 259.949 117.09 259.75C116.834 259.551 116.515 259.452 116.131 259.452C115.762 259.452 115.449 259.547 115.194 259.737C114.941 259.928 114.749 260.193 114.618 260.534C114.488 260.875 114.422 261.273 114.422 261.727ZM123.404 265.132C122.759 265.132 122.204 264.994 121.738 264.719C121.275 264.44 120.917 264.05 120.664 263.547C120.414 263.041 120.289 262.449 120.289 261.77C120.289 261.099 120.414 260.509 120.664 259.997C120.917 259.486 121.269 259.087 121.721 258.8C122.175 258.513 122.707 258.369 123.315 258.369C123.684 258.369 124.042 258.43 124.388 258.553C124.735 258.675 125.046 258.866 125.322 259.128C125.597 259.389 125.815 259.729 125.974 260.146C126.133 260.561 126.212 261.065 126.212 261.659V262.111H121.009V261.156H124.964C124.964 260.821 124.896 260.524 124.759 260.266C124.623 260.004 124.431 259.798 124.184 259.648C123.94 259.497 123.653 259.422 123.323 259.422C122.965 259.422 122.653 259.51 122.386 259.686C122.121 259.859 121.917 260.087 121.772 260.368C121.63 260.646 121.559 260.949 121.559 261.276V262.021C121.559 262.459 121.636 262.831 121.789 263.138C121.945 263.445 122.163 263.679 122.441 263.841C122.719 264 123.045 264.08 123.417 264.08C123.658 264.08 123.879 264.045 124.077 263.977C124.276 263.906 124.448 263.801 124.593 263.662C124.738 263.523 124.849 263.351 124.925 263.146L126.131 263.364C126.035 263.719 125.862 264.03 125.612 264.297C125.364 264.561 125.053 264.767 124.678 264.915C124.306 265.06 123.881 265.132 123.404 265.132ZM127.626 265V258.455H128.858V259.494H128.926C129.045 259.142 129.255 258.865 129.556 258.663C129.86 258.459 130.204 258.357 130.588 258.357C130.667 258.357 130.761 258.359 130.869 258.365C130.98 258.371 131.066 258.378 131.129 258.386V259.605C131.078 259.591 130.987 259.575 130.856 259.558C130.725 259.538 130.595 259.528 130.464 259.528C130.163 259.528 129.895 259.592 129.659 259.72C129.426 259.845 129.241 260.02 129.105 260.244C128.968 260.466 128.9 260.719 128.9 261.003V265H127.626ZM135.39 265V264.045L138.343 260.986C138.659 260.653 138.919 260.362 139.123 260.112C139.331 259.859 139.485 259.619 139.588 259.392C139.69 259.165 139.741 258.923 139.741 258.668C139.741 258.378 139.673 258.128 139.537 257.918C139.4 257.705 139.214 257.541 138.978 257.428C138.743 257.311 138.477 257.253 138.181 257.253C137.869 257.253 137.596 257.317 137.363 257.445C137.13 257.572 136.951 257.753 136.826 257.986C136.701 258.219 136.639 258.491 136.639 258.804H135.382C135.382 258.273 135.504 257.808 135.748 257.411C135.993 257.013 136.328 256.705 136.754 256.486C137.18 256.264 137.664 256.153 138.207 256.153C138.755 256.153 139.238 256.263 139.656 256.482C140.076 256.697 140.404 256.993 140.64 257.368C140.876 257.74 140.994 258.161 140.994 258.629C140.994 258.953 140.933 259.27 140.811 259.58C140.691 259.889 140.483 260.234 140.184 260.615C139.886 260.993 139.471 261.452 138.94 261.991L137.206 263.807V263.871H141.135V265H135.39ZM145.652 256.153C146.041 256.156 146.424 256.227 146.802 256.366C147.18 256.506 147.521 256.733 147.825 257.048C148.132 257.364 148.376 257.79 148.558 258.327C148.743 258.861 148.836 259.526 148.839 260.321C148.839 261.085 148.762 261.766 148.609 262.362C148.456 262.956 148.235 263.457 147.949 263.866C147.664 264.276 147.319 264.587 146.913 264.8C146.507 265.013 146.049 265.119 145.541 265.119C145.021 265.119 144.559 265.017 144.156 264.812C143.752 264.608 143.424 264.325 143.172 263.964C142.919 263.601 142.761 263.183 142.699 262.712H143.998C144.083 263.087 144.257 263.391 144.518 263.624C144.782 263.854 145.123 263.969 145.541 263.969C146.18 263.969 146.679 263.69 147.037 263.134C147.395 262.574 147.575 261.793 147.578 260.79H147.51C147.362 261.034 147.177 261.244 146.956 261.42C146.737 261.597 146.491 261.733 146.218 261.83C145.946 261.926 145.654 261.974 145.345 261.974C144.842 261.974 144.385 261.851 143.973 261.604C143.561 261.357 143.233 261.017 142.988 260.585C142.744 260.153 142.622 259.661 142.622 259.107C142.622 258.555 142.747 258.055 142.997 257.607C143.25 257.158 143.602 256.803 144.054 256.541C144.508 256.277 145.041 256.148 145.652 256.153ZM145.656 257.261C145.324 257.261 145.024 257.344 144.757 257.509C144.493 257.67 144.284 257.891 144.13 258.169C143.977 258.445 143.9 258.751 143.9 259.089C143.9 259.428 143.974 259.734 144.122 260.01C144.272 260.283 144.477 260.5 144.735 260.662C144.997 260.821 145.295 260.901 145.63 260.901C145.88 260.901 146.113 260.852 146.329 260.756C146.545 260.659 146.734 260.526 146.896 260.355C147.058 260.182 147.184 259.986 147.275 259.767C147.366 259.548 147.412 259.318 147.412 259.077C147.412 258.756 147.335 258.457 147.181 258.182C147.031 257.906 146.824 257.685 146.559 257.517C146.295 257.347 145.994 257.261 145.656 257.261ZM151.737 263.807L151.673 264.271C151.63 264.612 151.558 264.967 151.456 265.337C151.356 265.709 151.252 266.054 151.145 266.372C151.039 266.69 150.953 266.943 150.885 267.131H149.981C150.018 266.955 150.069 266.716 150.135 266.415C150.2 266.116 150.264 265.783 150.326 265.413C150.389 265.044 150.436 264.668 150.467 264.284L150.51 263.807H151.737ZM156.554 265V264.045L159.507 260.986C159.823 260.653 160.083 260.362 160.287 260.112C160.495 259.859 160.65 259.619 160.752 259.392C160.854 259.165 160.905 258.923 160.905 258.668C160.905 258.378 160.837 258.128 160.701 257.918C160.564 257.705 160.378 257.541 160.142 257.428C159.907 257.311 159.641 257.253 159.346 257.253C159.033 257.253 158.76 257.317 158.527 257.445C158.294 257.572 158.115 257.753 157.99 257.986C157.865 258.219 157.803 258.491 157.803 258.804H156.546C156.546 258.273 156.668 257.808 156.912 257.411C157.157 257.013 157.492 256.705 157.918 256.486C158.344 256.264 158.828 256.153 159.371 256.153C159.919 256.153 160.402 256.263 160.82 256.482C161.24 256.697 161.569 256.993 161.804 257.368C162.04 257.74 162.158 258.161 162.158 258.629C162.158 258.953 162.097 259.27 161.975 259.58C161.855 259.889 161.647 260.234 161.348 260.615C161.05 260.993 160.635 261.452 160.104 261.991L158.37 263.807V263.871H162.299V265H156.554ZM166.952 265.145C166.279 265.142 165.703 264.964 165.226 264.612C164.749 264.26 164.384 263.747 164.131 263.074C163.878 262.401 163.752 261.589 163.752 260.641C163.752 259.695 163.878 258.886 164.131 258.216C164.387 257.545 164.753 257.034 165.23 256.682C165.711 256.33 166.284 256.153 166.952 256.153C167.62 256.153 168.192 256.331 168.669 256.686C169.147 257.038 169.512 257.55 169.765 258.22C170.02 258.888 170.148 259.695 170.148 260.641C170.148 261.592 170.022 262.405 169.769 263.078C169.516 263.749 169.151 264.261 168.674 264.616C168.196 264.969 167.623 265.145 166.952 265.145ZM166.952 264.007C167.543 264.007 168.005 263.719 168.337 263.142C168.672 262.565 168.84 261.732 168.84 260.641C168.84 259.916 168.763 259.304 168.61 258.804C168.459 258.301 168.242 257.92 167.958 257.662C167.676 257.401 167.341 257.27 166.952 257.27C166.364 257.27 165.902 257.56 165.567 258.139C165.232 258.719 165.063 259.553 165.06 260.641C165.06 261.368 165.135 261.983 165.286 262.486C165.439 262.986 165.657 263.365 165.938 263.624C166.219 263.879 166.557 264.007 166.952 264.007ZM171.66 265V264.045L174.613 260.986C174.928 260.653 175.188 260.362 175.393 260.112C175.6 259.859 175.755 259.619 175.857 259.392C175.96 259.165 176.011 258.923 176.011 258.668C176.011 258.378 175.942 258.128 175.806 257.918C175.67 257.705 175.484 257.541 175.248 257.428C175.012 257.311 174.746 257.253 174.451 257.253C174.138 257.253 173.866 257.317 173.633 257.445C173.4 257.572 173.221 257.753 173.096 257.986C172.971 258.219 172.908 258.491 172.908 258.804H171.651C171.651 258.273 171.773 257.808 172.018 257.411C172.262 257.013 172.597 256.705 173.023 256.486C173.45 256.264 173.934 256.153 174.477 256.153C175.025 256.153 175.508 256.263 175.925 256.482C176.346 256.697 176.674 256.993 176.91 257.368C177.146 257.74 177.263 258.161 177.263 258.629C177.263 258.953 177.202 259.27 177.08 259.58C176.961 259.889 176.752 260.234 176.454 260.615C176.156 260.993 175.741 261.452 175.21 261.991L173.475 263.807V263.871H177.404V265H171.66ZM181.9 265.119C181.366 265.119 180.886 265.017 180.46 264.812C180.036 264.605 179.698 264.321 179.445 263.96C179.192 263.599 179.058 263.188 179.04 262.724H180.319C180.35 263.099 180.516 263.408 180.817 263.649C181.119 263.891 181.479 264.011 181.9 264.011C182.235 264.011 182.532 263.935 182.79 263.781C183.052 263.625 183.256 263.411 183.404 263.138C183.555 262.865 183.63 262.554 183.63 262.205C183.63 261.849 183.553 261.533 183.4 261.254C183.246 260.976 183.035 260.757 182.765 260.598C182.498 260.439 182.191 260.358 181.844 260.355C181.58 260.355 181.315 260.401 181.048 260.491C180.781 260.582 180.565 260.702 180.4 260.849L179.194 260.67L179.684 256.273H184.482V257.402H180.779L180.502 259.844H180.553C180.724 259.679 180.95 259.541 181.231 259.43C181.515 259.32 181.819 259.264 182.143 259.264C182.674 259.264 183.147 259.391 183.562 259.643C183.979 259.896 184.308 260.241 184.546 260.679C184.788 261.114 184.907 261.614 184.904 262.179C184.907 262.744 184.779 263.249 184.521 263.692C184.265 264.135 183.91 264.484 183.455 264.74C183.004 264.993 182.485 265.119 181.9 265.119Z" fill="white"/>
<rect x="15" y="224" width="45" height="50" fill="#525252"/>
<rect x="15" y="256" width="45" height="18" fill="#EFEFEF"/>
<path d="M25.369 260.273H26.967L29.7454 267.057H29.8477L32.6261 260.273H34.2241V269H32.9712V262.685H32.8903L30.3164 268.987H29.2766L26.7028 262.68H26.6218V269H25.369V260.273ZM36.1385 269V260.273H39.2493C39.9283 260.273 40.4908 260.396 40.9368 260.643C41.3828 260.891 41.7166 261.229 41.9382 261.658C42.1598 262.084 42.2706 262.564 42.2706 263.098C42.2706 263.635 42.1584 264.118 41.9339 264.547C41.7124 264.973 41.3771 265.311 40.9283 265.561C40.4822 265.808 39.9212 265.932 39.245 265.932H37.1058V264.815H39.1257C39.5547 264.815 39.9027 264.741 40.1697 264.594C40.4368 264.443 40.6328 264.239 40.7578 263.98C40.8828 263.722 40.9453 263.428 40.9453 263.098C40.9453 262.768 40.8828 262.476 40.7578 262.22C40.6328 261.964 40.4354 261.764 40.1655 261.619C39.8984 261.474 39.5462 261.402 39.1087 261.402H37.4553V269H36.1385ZM46.7333 269.119C46.1481 269.119 45.6254 269.018 45.1651 268.817C44.7077 268.615 44.3455 268.335 44.0785 267.977C43.8143 267.616 43.6722 267.199 43.6523 266.724H44.9904C45.0075 266.983 45.0941 267.207 45.2504 267.398C45.4094 267.585 45.6168 267.73 45.8725 267.832C46.1282 267.935 46.4123 267.986 46.7248 267.986C47.0685 267.986 47.3725 267.926 47.6367 267.807C47.9038 267.687 48.1126 267.521 48.2631 267.308C48.4137 267.092 48.489 266.844 48.489 266.562C48.489 266.27 48.4137 266.013 48.2631 265.791C48.1154 265.567 47.8981 265.391 47.6112 265.263C47.3271 265.135 46.9833 265.071 46.5799 265.071H45.8427V263.997H46.5799C46.9038 263.997 47.1879 263.939 47.4322 263.822C47.6793 263.706 47.8725 263.544 48.0117 263.337C48.1509 263.126 48.2205 262.881 48.2205 262.599C48.2205 262.33 48.1594 262.095 48.0373 261.896C47.918 261.695 47.7475 261.537 47.5259 261.423C47.3072 261.31 47.0487 261.253 46.7504 261.253C46.4663 261.253 46.2006 261.305 45.9535 261.411C45.7092 261.513 45.5103 261.661 45.3569 261.854C45.2035 262.044 45.1211 262.273 45.1097 262.54H43.8356C43.8498 262.068 43.989 261.653 44.2532 261.295C44.5202 260.937 44.8725 260.658 45.31 260.456C45.7475 260.254 46.2333 260.153 46.7674 260.153C47.3271 260.153 47.81 260.263 48.2163 260.482C48.6254 260.697 48.9407 260.986 49.1623 261.347C49.3867 261.707 49.4975 262.102 49.4947 262.531C49.4975 263.02 49.3612 263.435 49.0856 263.776C48.8129 264.116 48.4492 264.345 47.9947 264.462V264.53C48.5742 264.618 49.0231 264.848 49.3413 265.22C49.6623 265.592 49.8214 266.054 49.8185 266.605C49.8214 267.085 49.6879 267.516 49.418 267.896C49.1509 268.277 48.7859 268.577 48.3228 268.795C47.8597 269.011 47.3299 269.119 46.7333 269.119Z" fill="#333333"/>
<path d="M44.5833 250.75L37 246.417L29.4166 250.75V233.417C29.4166 232.842 29.6449 232.291 30.0512 231.885C30.4576 231.478 31.0087 231.25 31.5833 231.25H42.4166C42.9913 231.25 43.5424 231.478 43.9487 231.885C44.355 232.291 44.5833 232.842 44.5833 233.417V250.75Z" stroke="#F5F5F5" stroke-width="1.5" stroke-linecap="round" stroke-linejoin="round"/>
</svg>
