<svg width="385" height="285" viewBox="0 0 385 285" fill="none" xmlns="http://www.w3.org/2000/svg">
<rect width="385" height="285" fill="#F5F5F5"/>
<g opacity="0.5">
<rect x="213" y="231" width="158" height="36" rx="8" fill="#171717"/>
<path d="M269.991 253.5V243.56H273.183C274.742 243.56 275.941 243.994 276.781 244.862C277.621 245.721 278.041 246.948 278.041 248.544C278.041 250.131 277.626 251.353 276.795 252.212C275.974 253.071 274.798 253.5 273.267 253.5H269.991ZM271.503 252.114H273.183C274.284 252.114 275.106 251.82 275.647 251.232C276.198 250.635 276.473 249.739 276.473 248.544C276.473 247.331 276.198 246.43 275.647 245.842C275.106 245.245 274.284 244.946 273.183 244.946H271.503V252.114ZM283.008 253.668C282.28 253.668 281.65 253.509 281.118 253.192C280.596 252.875 280.19 252.422 279.9 251.834C279.62 251.246 279.48 250.56 279.48 249.776C279.48 248.992 279.62 248.311 279.9 247.732C280.19 247.144 280.596 246.691 281.118 246.374C281.641 246.047 282.257 245.884 282.966 245.884C283.638 245.884 284.231 246.043 284.744 246.36C285.258 246.668 285.654 247.116 285.934 247.704C286.224 248.292 286.368 249.001 286.368 249.832V250.21H281.02C281.058 250.938 281.249 251.484 281.594 251.848C281.949 252.212 282.425 252.394 283.022 252.394C283.461 252.394 283.825 252.291 284.114 252.086C284.404 251.881 284.604 251.605 284.716 251.26L286.256 251.358C286.06 252.049 285.673 252.609 285.094 253.038C284.525 253.458 283.83 253.668 283.008 253.668ZM281.02 249.09H284.8C284.754 248.427 284.562 247.937 284.226 247.62C283.9 247.303 283.48 247.144 282.966 247.144C282.434 247.144 281.996 247.312 281.65 247.648C281.314 247.975 281.104 248.455 281.02 249.09ZM290.524 253.5C289.815 253.5 289.292 253.337 288.956 253.01C288.62 252.683 288.452 252.175 288.452 251.484V244.302H289.936V251.372C289.936 251.717 290.011 251.955 290.16 252.086C290.31 252.217 290.538 252.282 290.846 252.282H291.91V253.5H290.524ZM287.318 247.27V246.052H291.91V247.27H287.318ZM295.444 253.668C294.669 253.668 294.048 253.491 293.582 253.136C293.124 252.781 292.896 252.282 292.896 251.638C292.896 250.994 293.087 250.495 293.47 250.14C293.862 249.776 294.464 249.515 295.276 249.356L297.838 248.866C297.838 248.287 297.702 247.858 297.432 247.578C297.161 247.289 296.76 247.144 296.228 247.144C295.752 247.144 295.378 247.251 295.108 247.466C294.837 247.671 294.65 247.979 294.548 248.39L293.022 248.292C293.162 247.545 293.507 246.957 294.058 246.528C294.618 246.099 295.341 245.884 296.228 245.884C297.236 245.884 298.001 246.155 298.524 246.696C299.056 247.228 299.322 247.979 299.322 248.95V251.848C299.322 252.025 299.35 252.151 299.406 252.226C299.471 252.291 299.574 252.324 299.714 252.324H299.98V253.5C299.933 253.509 299.858 253.519 299.756 253.528C299.653 253.537 299.546 253.542 299.434 253.542C299.116 253.542 298.841 253.491 298.608 253.388C298.384 253.285 298.216 253.117 298.104 252.884C297.992 252.641 297.936 252.319 297.936 251.918L298.09 251.988C298.015 252.315 297.852 252.604 297.6 252.856C297.357 253.108 297.044 253.309 296.662 253.458C296.288 253.598 295.882 253.668 295.444 253.668ZM295.682 252.492C296.13 252.492 296.512 252.408 296.83 252.24C297.147 252.063 297.394 251.82 297.572 251.512C297.749 251.204 297.838 250.854 297.838 250.462V249.986L295.654 250.406C295.206 250.49 294.888 250.625 294.702 250.812C294.524 250.989 294.436 251.218 294.436 251.498C294.436 251.815 294.543 252.063 294.758 252.24C294.982 252.408 295.29 252.492 295.682 252.492ZM301.234 253.5V246.052H302.718V253.5H301.234ZM301.206 244.974V243.49H302.746V244.974H301.206ZM306.401 253.5C305.916 253.5 305.524 253.374 305.225 253.122C304.926 252.87 304.777 252.469 304.777 251.918V243.56H306.261V251.778C306.261 251.946 306.303 252.072 306.387 252.156C306.48 252.24 306.611 252.282 306.779 252.282H307.367V253.5H306.401ZM311.572 253.668C310.872 253.668 310.28 253.561 309.794 253.346C309.318 253.131 308.95 252.837 308.688 252.464C308.427 252.081 308.278 251.643 308.24 251.148L309.766 251.078C309.841 251.489 310.018 251.815 310.298 252.058C310.578 252.301 311.003 252.422 311.572 252.422C312.039 252.422 312.408 252.347 312.678 252.198C312.949 252.049 313.084 251.811 313.084 251.484C313.084 251.307 313.038 251.157 312.944 251.036C312.86 250.905 312.692 250.798 312.44 250.714C312.188 250.621 311.815 250.532 311.32 250.448C310.583 250.308 310.004 250.145 309.584 249.958C309.164 249.771 308.866 249.533 308.688 249.244C308.511 248.955 308.422 248.605 308.422 248.194C308.422 247.513 308.674 246.957 309.178 246.528C309.692 246.099 310.429 245.884 311.39 245.884C312.034 245.884 312.576 245.996 313.014 246.22C313.453 246.435 313.794 246.729 314.036 247.102C314.288 247.466 314.447 247.877 314.512 248.334L312.986 248.418C312.94 248.157 312.846 247.933 312.706 247.746C312.576 247.55 312.398 247.401 312.174 247.298C311.95 247.186 311.684 247.13 311.376 247.13C310.9 247.13 310.546 247.223 310.312 247.41C310.079 247.597 309.962 247.839 309.962 248.138C309.962 248.362 310.014 248.544 310.116 248.684C310.228 248.824 310.406 248.941 310.648 249.034C310.891 249.118 311.213 249.193 311.614 249.258C312.389 249.389 312.996 249.552 313.434 249.748C313.873 249.935 314.181 250.168 314.358 250.448C314.536 250.728 314.624 251.069 314.624 251.47C314.624 251.937 314.494 252.333 314.232 252.66C313.971 252.987 313.612 253.239 313.154 253.416C312.697 253.584 312.17 253.668 311.572 253.668Z" fill="white"/>
</g>
<rect x="200" y="285" width="200" height="285" transform="rotate(-180 200 285)" fill="#E9E9E9"/>
<path d="M0 213H200V285H0V213Z" fill="#525252" fill-opacity="0.85"/>
<path d="M69.696 245H68.2983L71.4389 236.273H72.9602L76.1009 245H74.7031L72.2358 237.858H72.1676L69.696 245ZM69.9304 241.582H74.4645V242.69H69.9304V241.582ZM79.6037 245.128C79.0753 245.128 78.6037 244.993 78.1889 244.723C77.777 244.45 77.4531 244.062 77.2173 243.56C76.9844 243.054 76.8679 242.447 76.8679 241.74C76.8679 241.033 76.9858 240.428 77.2216 239.925C77.4602 239.422 77.7869 239.037 78.2017 238.77C78.6165 238.503 79.0866 238.369 79.6122 238.369C80.0185 238.369 80.3452 238.438 80.5923 238.574C80.8423 238.707 81.0355 238.864 81.1719 239.043C81.3111 239.222 81.419 239.379 81.4957 239.516H81.5724V236.273H82.8466V245H81.6023V243.982H81.4957C81.419 244.121 81.3082 244.28 81.1634 244.459C81.0213 244.638 80.8253 244.794 80.5753 244.928C80.3253 245.061 80.0014 245.128 79.6037 245.128ZM79.8849 244.041C80.2514 244.041 80.5611 243.945 80.8139 243.751C81.0696 243.555 81.2628 243.284 81.3935 242.938C81.527 242.591 81.5938 242.187 81.5938 241.727C81.5938 241.273 81.5284 240.875 81.3977 240.534C81.267 240.193 81.0753 239.928 80.8224 239.737C80.5696 239.547 80.2571 239.452 79.8849 239.452C79.5014 239.452 79.1818 239.551 78.9261 239.75C78.6705 239.949 78.4773 240.22 78.3466 240.564C78.2188 240.908 78.1548 241.295 78.1548 241.727C78.1548 242.165 78.2202 242.558 78.3509 242.908C78.4815 243.257 78.6747 243.534 78.9304 243.739C79.1889 243.94 79.5071 244.041 79.8849 244.041ZM87.1154 245.128C86.587 245.128 86.1154 244.993 85.7006 244.723C85.2887 244.45 84.9648 244.062 84.729 243.56C84.4961 243.054 84.3796 242.447 84.3796 241.74C84.3796 241.033 84.4975 240.428 84.7333 239.925C84.9719 239.422 85.2987 239.037 85.7134 238.77C86.1282 238.503 86.5984 238.369 87.1239 238.369C87.5302 238.369 87.8569 238.438 88.104 238.574C88.354 238.707 88.5472 238.864 88.6836 239.043C88.8228 239.222 88.9308 239.379 89.0075 239.516H89.0842V236.273H90.3583V245H89.114V243.982H89.0075C88.9308 244.121 88.82 244.28 88.6751 244.459C88.533 244.638 88.337 244.794 88.087 244.928C87.837 245.061 87.5131 245.128 87.1154 245.128ZM87.3967 244.041C87.7631 244.041 88.0728 243.945 88.3256 243.751C88.5813 243.555 88.7745 243.284 88.9052 242.938C89.0387 242.591 89.1055 242.187 89.1055 241.727C89.1055 241.273 89.0401 240.875 88.9094 240.534C88.7788 240.193 88.587 239.928 88.3342 239.737C88.0813 239.547 87.7688 239.452 87.3967 239.452C87.0131 239.452 86.6935 239.551 86.4379 239.75C86.1822 239.949 85.989 240.22 85.8583 240.564C85.7305 240.908 85.6665 241.295 85.6665 241.727C85.6665 242.165 85.7319 242.558 85.8626 242.908C85.9933 243.257 86.1864 243.534 86.4421 243.739C86.7006 243.94 87.0188 244.041 87.3967 244.041ZM94.9979 245.132C94.353 245.132 93.7976 244.994 93.3317 244.719C92.8686 244.44 92.5107 244.05 92.2578 243.547C92.0078 243.041 91.8828 242.449 91.8828 241.77C91.8828 241.099 92.0078 240.509 92.2578 239.997C92.5107 239.486 92.8629 239.087 93.3146 238.8C93.7692 238.513 94.3004 238.369 94.9084 238.369C95.2777 238.369 95.6357 238.43 95.9822 238.553C96.3288 238.675 96.6399 238.866 96.9155 239.128C97.1911 239.389 97.4084 239.729 97.5675 240.146C97.7266 240.561 97.8061 241.065 97.8061 241.659V242.111H92.603V241.156H96.5575C96.5575 240.821 96.4893 240.524 96.353 240.266C96.2166 240.004 96.0249 239.798 95.7777 239.648C95.5334 239.497 95.2464 239.422 94.9169 239.422C94.5589 239.422 94.2464 239.51 93.9794 239.686C93.7152 239.859 93.5107 240.087 93.3658 240.368C93.2237 240.646 93.1527 240.949 93.1527 241.276V242.021C93.1527 242.459 93.2294 242.831 93.3828 243.138C93.5391 243.445 93.7564 243.679 94.0348 243.841C94.3132 244 94.6385 244.08 95.0107 244.08C95.2521 244.08 95.4723 244.045 95.6712 243.977C95.87 243.906 96.0419 243.801 96.1868 243.662C96.3317 243.523 96.4425 243.351 96.5192 243.146L97.7251 243.364C97.6286 243.719 97.4553 244.03 97.2053 244.297C96.9581 244.561 96.647 244.767 96.272 244.915C95.8999 245.06 95.4751 245.132 94.9979 245.132ZM101.67 245.128C101.142 245.128 100.67 244.993 100.255 244.723C99.8434 244.45 99.5195 244.062 99.2837 243.56C99.0508 243.054 98.9343 242.447 98.9343 241.74C98.9343 241.033 99.0522 240.428 99.288 239.925C99.5266 239.422 99.8533 239.037 100.268 238.77C100.683 238.503 101.153 238.369 101.679 238.369C102.085 238.369 102.412 238.438 102.659 238.574C102.909 238.707 103.102 238.864 103.238 239.043C103.377 239.222 103.485 239.379 103.562 239.516H103.639V236.273H104.913V245H103.669V243.982H103.562C103.485 244.121 103.375 244.28 103.23 244.459C103.088 244.638 102.892 244.794 102.642 244.928C102.392 245.061 102.068 245.128 101.67 245.128ZM101.951 244.041C102.318 244.041 102.627 243.945 102.88 243.751C103.136 243.555 103.329 243.284 103.46 242.938C103.593 242.591 103.66 242.187 103.66 241.727C103.66 241.273 103.595 240.875 103.464 240.534C103.333 240.193 103.142 239.928 102.889 239.737C102.636 239.547 102.324 239.452 101.951 239.452C101.568 239.452 101.248 239.551 100.993 239.75C100.737 239.949 100.544 240.22 100.413 240.564C100.285 240.908 100.221 241.295 100.221 241.727C100.221 242.165 100.287 242.558 100.417 242.908C100.548 243.257 100.741 243.534 100.997 243.739C101.255 243.94 101.574 244.041 101.951 244.041ZM73.7188 258.565C73.6733 258.162 73.4858 257.849 73.1562 257.628C72.8267 257.403 72.4119 257.291 71.9119 257.291C71.554 257.291 71.2443 257.348 70.983 257.462C70.7216 257.572 70.5185 257.726 70.3736 257.922C70.2315 258.115 70.1605 258.335 70.1605 258.582C70.1605 258.79 70.2088 258.969 70.3054 259.119C70.4048 259.27 70.5341 259.396 70.6932 259.499C70.8551 259.598 71.0284 259.682 71.2131 259.75C71.3977 259.815 71.5753 259.869 71.7457 259.912L72.598 260.134C72.8764 260.202 73.1619 260.294 73.4545 260.411C73.7472 260.527 74.0185 260.68 74.2685 260.871C74.5185 261.061 74.7202 261.297 74.8736 261.578C75.0298 261.859 75.108 262.196 75.108 262.588C75.108 263.082 74.9801 263.521 74.7244 263.905C74.4716 264.288 74.1037 264.591 73.6207 264.812C73.1406 265.034 72.5597 265.145 71.8778 265.145C71.2244 265.145 70.6591 265.041 70.1818 264.834C69.7045 264.626 69.331 264.332 69.0611 263.952C68.7912 263.568 68.642 263.114 68.6136 262.588H69.9347C69.9602 262.903 70.0625 263.166 70.2415 263.376C70.4233 263.584 70.6548 263.739 70.9361 263.841C71.2202 263.94 71.5312 263.99 71.8693 263.99C72.2415 263.99 72.5724 263.932 72.8622 263.815C73.1548 263.696 73.3849 263.531 73.5526 263.321C73.7202 263.108 73.804 262.859 73.804 262.575C73.804 262.317 73.7301 262.105 73.5824 261.94C73.4375 261.776 73.2401 261.639 72.9901 261.531C72.7429 261.423 72.4631 261.328 72.1506 261.246L71.1193 260.964C70.4205 260.774 69.8665 260.494 69.4574 260.125C69.0511 259.756 68.848 259.267 68.848 258.659C68.848 258.156 68.9844 257.717 69.2571 257.342C69.5298 256.967 69.8991 256.676 70.3651 256.469C70.831 256.259 71.3565 256.153 71.9418 256.153C72.5327 256.153 73.054 256.257 73.5057 256.464C73.9602 256.672 74.3182 256.957 74.5795 257.321C74.8409 257.682 74.9773 258.097 74.9886 258.565H73.7188ZM79.4002 265.132C78.7553 265.132 78.1999 264.994 77.734 264.719C77.271 264.44 76.913 264.05 76.6602 263.547C76.4102 263.041 76.2852 262.449 76.2852 261.77C76.2852 261.099 76.4102 260.509 76.6602 259.997C76.913 259.486 77.2653 259.087 77.717 258.8C78.1715 258.513 78.7028 258.369 79.3107 258.369C79.68 258.369 80.038 258.43 80.3846 258.553C80.7312 258.675 81.0423 258.866 81.3178 259.128C81.5934 259.389 81.8107 259.729 81.9698 260.146C82.1289 260.561 82.2085 261.065 82.2085 261.659V262.111H77.0053V261.156H80.9599C80.9599 260.821 80.8917 260.524 80.7553 260.266C80.619 260.004 80.4272 259.798 80.18 259.648C79.9357 259.497 79.6488 259.422 79.3192 259.422C78.9613 259.422 78.6488 259.51 78.3817 259.686C78.1175 259.859 77.913 260.087 77.7681 260.368C77.6261 260.646 77.555 260.949 77.555 261.276V262.021C77.555 262.459 77.6317 262.831 77.7852 263.138C77.9414 263.445 78.1587 263.679 78.4371 263.841C78.7156 264 79.0408 264.08 79.413 264.08C79.6545 264.08 79.8746 264.045 80.0735 263.977C80.2724 263.906 80.4442 263.801 80.5891 263.662C80.734 263.523 80.8448 263.351 80.9215 263.146L82.1275 263.364C82.0309 263.719 81.8576 264.03 81.6076 264.297C81.3604 264.561 81.0494 264.767 80.6744 264.915C80.3022 265.06 79.8775 265.132 79.4002 265.132ZM83.6222 267.455V258.455H84.8665V259.516H84.973C85.0469 259.379 85.1534 259.222 85.2926 259.043C85.4318 258.864 85.625 258.707 85.8722 258.574C86.1193 258.438 86.446 258.369 86.8523 258.369C87.3807 258.369 87.8523 258.503 88.267 258.77C88.6818 259.037 89.0071 259.422 89.2429 259.925C89.4815 260.428 89.6009 261.033 89.6009 261.74C89.6009 262.447 89.483 263.054 89.2472 263.56C89.0114 264.062 88.6875 264.45 88.2756 264.723C87.8636 264.993 87.3935 265.128 86.8651 265.128C86.4673 265.128 86.142 265.061 85.8892 264.928C85.6392 264.794 85.4432 264.638 85.3011 264.459C85.1591 264.28 85.0497 264.121 84.973 263.982H84.8963V267.455H83.6222ZM84.8707 261.727C84.8707 262.187 84.9375 262.591 85.071 262.938C85.2045 263.284 85.3977 263.555 85.6506 263.751C85.9034 263.945 86.2131 264.041 86.5795 264.041C86.9602 264.041 87.2784 263.94 87.5341 263.739C87.7898 263.534 87.983 263.257 88.1136 262.908C88.2472 262.558 88.3139 262.165 88.3139 261.727C88.3139 261.295 88.2486 260.908 88.1179 260.564C87.9901 260.22 87.7969 259.949 87.5384 259.75C87.2827 259.551 86.9631 259.452 86.5795 259.452C86.2102 259.452 85.8977 259.547 85.642 259.737C85.3892 259.928 85.1974 260.193 85.0668 260.534C84.9361 260.875 84.8707 261.273 84.8707 261.727ZM94.0838 258.455V259.477H90.5085V258.455H94.0838ZM91.4673 256.886H92.7415V263.078C92.7415 263.325 92.7784 263.511 92.8523 263.636C92.9261 263.759 93.0213 263.842 93.1378 263.888C93.2571 263.93 93.3864 263.952 93.5256 263.952C93.6278 263.952 93.7173 263.945 93.794 263.93C93.8707 263.916 93.9304 263.905 93.973 263.896L94.2031 264.949C94.1293 264.977 94.0241 265.006 93.8878 265.034C93.7514 265.065 93.581 265.082 93.3764 265.085C93.0412 265.091 92.7287 265.031 92.4389 264.906C92.1491 264.781 91.9148 264.588 91.7358 264.327C91.5568 264.065 91.4673 263.737 91.4673 263.342V256.886ZM98.244 265.132C97.5991 265.132 97.0437 264.994 96.5778 264.719C96.1147 264.44 95.7567 264.05 95.5039 263.547C95.2539 263.041 95.1289 262.449 95.1289 261.77C95.1289 261.099 95.2539 260.509 95.5039 259.997C95.7567 259.486 96.109 259.087 96.5607 258.8C97.0153 258.513 97.5465 258.369 98.1545 258.369C98.5238 258.369 98.8817 258.43 99.2283 258.553C99.5749 258.675 99.886 258.866 100.162 259.128C100.437 259.389 100.654 259.729 100.814 260.146C100.973 260.561 101.052 261.065 101.052 261.659V262.111H95.8491V261.156H99.8036C99.8036 260.821 99.7354 260.524 99.5991 260.266C99.4627 260.004 99.271 259.798 99.0238 259.648C98.7795 259.497 98.4925 259.422 98.163 259.422C97.805 259.422 97.4925 259.51 97.2255 259.686C96.9613 259.859 96.7567 260.087 96.6119 260.368C96.4698 260.646 96.3988 260.949 96.3988 261.276V262.021C96.3988 262.459 96.4755 262.831 96.6289 263.138C96.7852 263.445 97.0025 263.679 97.2809 263.841C97.5593 264 97.8846 264.08 98.2567 264.08C98.4982 264.08 98.7184 264.045 98.9173 263.977C99.1161 263.906 99.288 263.801 99.4329 263.662C99.5778 263.523 99.6886 263.351 99.7653 263.146L100.971 263.364C100.875 263.719 100.701 264.03 100.451 264.297C100.204 264.561 99.8931 264.767 99.5181 264.915C99.146 265.06 98.7212 265.132 98.244 265.132ZM102.466 265V258.455H103.689V259.52H103.77C103.906 259.159 104.129 258.878 104.439 258.676C104.749 258.472 105.119 258.369 105.551 258.369C105.989 258.369 106.355 258.472 106.651 258.676C106.949 258.881 107.169 259.162 107.311 259.52H107.379C107.536 259.17 107.784 258.892 108.125 258.685C108.466 258.474 108.872 258.369 109.344 258.369C109.938 258.369 110.422 258.555 110.797 258.928C111.175 259.3 111.364 259.861 111.364 260.611V265H110.089V260.73C110.089 260.287 109.969 259.966 109.727 259.767C109.486 259.568 109.197 259.469 108.862 259.469C108.447 259.469 108.125 259.597 107.895 259.852C107.665 260.105 107.55 260.43 107.55 260.828V265H106.28V260.649C106.28 260.294 106.169 260.009 105.947 259.793C105.726 259.577 105.438 259.469 105.082 259.469C104.841 259.469 104.618 259.533 104.413 259.661C104.212 259.786 104.048 259.96 103.923 260.185C103.801 260.409 103.74 260.669 103.74 260.964V265H102.466ZM113.174 265V256.273H114.448V259.516H114.525C114.598 259.379 114.705 259.222 114.844 259.043C114.983 258.864 115.176 258.707 115.424 258.574C115.671 258.438 115.998 258.369 116.404 258.369C116.932 258.369 117.404 258.503 117.819 258.77C118.233 259.037 118.559 259.422 118.794 259.925C119.033 260.428 119.152 261.033 119.152 261.74C119.152 262.447 119.034 263.054 118.799 263.56C118.563 264.062 118.239 264.45 117.827 264.723C117.415 264.993 116.945 265.128 116.417 265.128C116.019 265.128 115.694 265.061 115.441 264.928C115.191 264.794 114.995 264.638 114.853 264.459C114.711 264.28 114.601 264.121 114.525 263.982H114.418V265H113.174ZM114.422 261.727C114.422 262.187 114.489 262.591 114.623 262.938C114.756 263.284 114.949 263.555 115.202 263.751C115.455 263.945 115.765 264.041 116.131 264.041C116.512 264.041 116.83 263.94 117.086 263.739C117.341 263.534 117.534 263.257 117.665 262.908C117.799 262.558 117.865 262.165 117.865 261.727C117.865 261.295 117.8 260.908 117.669 260.564C117.542 260.22 117.348 259.949 117.09 259.75C116.834 259.551 116.515 259.452 116.131 259.452C115.762 259.452 115.449 259.547 115.194 259.737C114.941 259.928 114.749 260.193 114.618 260.534C114.488 260.875 114.422 261.273 114.422 261.727ZM123.404 265.132C122.759 265.132 122.204 264.994 121.738 264.719C121.275 264.44 120.917 264.05 120.664 263.547C120.414 263.041 120.289 262.449 120.289 261.77C120.289 261.099 120.414 260.509 120.664 259.997C120.917 259.486 121.269 259.087 121.721 258.8C122.175 258.513 122.707 258.369 123.315 258.369C123.684 258.369 124.042 258.43 124.388 258.553C124.735 258.675 125.046 258.866 125.322 259.128C125.597 259.389 125.815 259.729 125.974 260.146C126.133 260.561 126.212 261.065 126.212 261.659V262.111H121.009V261.156H124.964C124.964 260.821 124.896 260.524 124.759 260.266C124.623 260.004 124.431 259.798 124.184 259.648C123.94 259.497 123.653 259.422 123.323 259.422C122.965 259.422 122.653 259.51 122.386 259.686C122.121 259.859 121.917 260.087 121.772 260.368C121.63 260.646 121.559 260.949 121.559 261.276V262.021C121.559 262.459 121.636 262.831 121.789 263.138C121.945 263.445 122.163 263.679 122.441 263.841C122.719 264 123.045 264.08 123.417 264.08C123.658 264.08 123.879 264.045 124.077 263.977C124.276 263.906 124.448 263.801 124.593 263.662C124.738 263.523 124.849 263.351 124.925 263.146L126.131 263.364C126.035 263.719 125.862 264.03 125.612 264.297C125.364 264.561 125.053 264.767 124.678 264.915C124.306 265.06 123.881 265.132 123.404 265.132ZM127.626 265V258.455H128.858V259.494H128.926C129.045 259.142 129.255 258.865 129.556 258.663C129.86 258.459 130.204 258.357 130.588 258.357C130.667 258.357 130.761 258.359 130.869 258.365C130.98 258.371 131.066 258.378 131.129 258.386V259.605C131.078 259.591 130.987 259.575 130.856 259.558C130.725 259.538 130.595 259.528 130.464 259.528C130.163 259.528 129.895 259.592 129.659 259.72C129.426 259.845 129.241 260.02 129.105 260.244C128.968 260.466 128.9 260.719 128.9 261.003V265H127.626ZM135.39 265V264.045L138.343 260.986C138.659 260.653 138.919 260.362 139.123 260.112C139.331 259.859 139.485 259.619 139.588 259.392C139.69 259.165 139.741 258.923 139.741 258.668C139.741 258.378 139.673 258.128 139.537 257.918C139.4 257.705 139.214 257.541 138.978 257.428C138.743 257.311 138.477 257.253 138.181 257.253C137.869 257.253 137.596 257.317 137.363 257.445C137.13 257.572 136.951 257.753 136.826 257.986C136.701 258.219 136.639 258.491 136.639 258.804H135.382C135.382 258.273 135.504 257.808 135.748 257.411C135.993 257.013 136.328 256.705 136.754 256.486C137.18 256.264 137.664 256.153 138.207 256.153C138.755 256.153 139.238 256.263 139.656 256.482C140.076 256.697 140.404 256.993 140.64 257.368C140.876 257.74 140.994 258.161 140.994 258.629C140.994 258.953 140.933 259.27 140.811 259.58C140.691 259.889 140.483 260.234 140.184 260.615C139.886 260.993 139.471 261.452 138.94 261.991L137.206 263.807V263.871H141.135V265H135.39ZM145.652 256.153C146.041 256.156 146.424 256.227 146.802 256.366C147.18 256.506 147.521 256.733 147.825 257.048C148.132 257.364 148.376 257.79 148.558 258.327C148.743 258.861 148.836 259.526 148.839 260.321C148.839 261.085 148.762 261.766 148.609 262.362C148.456 262.956 148.235 263.457 147.949 263.866C147.664 264.276 147.319 264.587 146.913 264.8C146.507 265.013 146.049 265.119 145.541 265.119C145.021 265.119 144.559 265.017 144.156 264.812C143.752 264.608 143.424 264.325 143.172 263.964C142.919 263.601 142.761 263.183 142.699 262.712H143.998C144.083 263.087 144.257 263.391 144.518 263.624C144.782 263.854 145.123 263.969 145.541 263.969C146.18 263.969 146.679 263.69 147.037 263.134C147.395 262.574 147.575 261.793 147.578 260.79H147.51C147.362 261.034 147.177 261.244 146.956 261.42C146.737 261.597 146.491 261.733 146.218 261.83C145.946 261.926 145.654 261.974 145.345 261.974C144.842 261.974 144.385 261.851 143.973 261.604C143.561 261.357 143.233 261.017 142.988 260.585C142.744 260.153 142.622 259.661 142.622 259.107C142.622 258.555 142.747 258.055 142.997 257.607C143.25 257.158 143.602 256.803 144.054 256.541C144.508 256.277 145.041 256.148 145.652 256.153ZM145.656 257.261C145.324 257.261 145.024 257.344 144.757 257.509C144.493 257.67 144.284 257.891 144.13 258.169C143.977 258.445 143.9 258.751 143.9 259.089C143.9 259.428 143.974 259.734 144.122 260.01C144.272 260.283 144.477 260.5 144.735 260.662C144.997 260.821 145.295 260.901 145.63 260.901C145.88 260.901 146.113 260.852 146.329 260.756C146.545 260.659 146.734 260.526 146.896 260.355C147.058 260.182 147.184 259.986 147.275 259.767C147.366 259.548 147.412 259.318 147.412 259.077C147.412 258.756 147.335 258.457 147.181 258.182C147.031 257.906 146.824 257.685 146.559 257.517C146.295 257.347 145.994 257.261 145.656 257.261ZM151.737 263.807L151.673 264.271C151.63 264.612 151.558 264.967 151.456 265.337C151.356 265.709 151.252 266.054 151.145 266.372C151.039 266.69 150.953 266.943 150.885 267.131H149.981C150.018 266.955 150.069 266.716 150.135 266.415C150.2 266.116 150.264 265.783 150.326 265.413C150.389 265.044 150.436 264.668 150.467 264.284L150.51 263.807H151.737ZM156.554 265V264.045L159.507 260.986C159.823 260.653 160.083 260.362 160.287 260.112C160.495 259.859 160.65 259.619 160.752 259.392C160.854 259.165 160.905 258.923 160.905 258.668C160.905 258.378 160.837 258.128 160.701 257.918C160.564 257.705 160.378 257.541 160.142 257.428C159.907 257.311 159.641 257.253 159.346 257.253C159.033 257.253 158.76 257.317 158.527 257.445C158.294 257.572 158.115 257.753 157.99 257.986C157.865 258.219 157.803 258.491 157.803 258.804H156.546C156.546 258.273 156.668 257.808 156.912 257.411C157.157 257.013 157.492 256.705 157.918 256.486C158.344 256.264 158.828 256.153 159.371 256.153C159.919 256.153 160.402 256.263 160.82 256.482C161.24 256.697 161.569 256.993 161.804 257.368C162.04 257.74 162.158 258.161 162.158 258.629C162.158 258.953 162.097 259.27 161.975 259.58C161.855 259.889 161.647 260.234 161.348 260.615C161.05 260.993 160.635 261.452 160.104 261.991L158.37 263.807V263.871H162.299V265H156.554ZM166.952 265.145C166.279 265.142 165.703 264.964 165.226 264.612C164.749 264.26 164.384 263.747 164.131 263.074C163.878 262.401 163.752 261.589 163.752 260.641C163.752 259.695 163.878 258.886 164.131 258.216C164.387 257.545 164.753 257.034 165.23 256.682C165.711 256.33 166.284 256.153 166.952 256.153C167.62 256.153 168.192 256.331 168.669 256.686C169.147 257.038 169.512 257.55 169.765 258.22C170.02 258.888 170.148 259.695 170.148 260.641C170.148 261.592 170.022 262.405 169.769 263.078C169.516 263.749 169.151 264.261 168.674 264.616C168.196 264.969 167.623 265.145 166.952 265.145ZM166.952 264.007C167.543 264.007 168.005 263.719 168.337 263.142C168.672 262.565 168.84 261.732 168.84 260.641C168.84 259.916 168.763 259.304 168.61 258.804C168.459 258.301 168.242 257.92 167.958 257.662C167.676 257.401 167.341 257.27 166.952 257.27C166.364 257.27 165.902 257.56 165.567 258.139C165.232 258.719 165.063 259.553 165.06 260.641C165.06 261.368 165.135 261.983 165.286 262.486C165.439 262.986 165.657 263.365 165.938 263.624C166.219 263.879 166.557 264.007 166.952 264.007ZM171.66 265V264.045L174.613 260.986C174.928 260.653 175.188 260.362 175.393 260.112C175.6 259.859 175.755 259.619 175.857 259.392C175.96 259.165 176.011 258.923 176.011 258.668C176.011 258.378 175.942 258.128 175.806 257.918C175.67 257.705 175.484 257.541 175.248 257.428C175.012 257.311 174.746 257.253 174.451 257.253C174.138 257.253 173.866 257.317 173.633 257.445C173.4 257.572 173.221 257.753 173.096 257.986C172.971 258.219 172.908 258.491 172.908 258.804H171.651C171.651 258.273 171.773 257.808 172.018 257.411C172.262 257.013 172.597 256.705 173.023 256.486C173.45 256.264 173.934 256.153 174.477 256.153C175.025 256.153 175.508 256.263 175.925 256.482C176.346 256.697 176.674 256.993 176.91 257.368C177.146 257.74 177.263 258.161 177.263 258.629C177.263 258.953 177.202 259.27 177.08 259.58C176.961 259.889 176.752 260.234 176.454 260.615C176.156 260.993 175.741 261.452 175.21 261.991L173.475 263.807V263.871H177.404V265H171.66ZM181.9 265.119C181.366 265.119 180.886 265.017 180.46 264.812C180.036 264.605 179.698 264.321 179.445 263.96C179.192 263.599 179.058 263.188 179.04 262.724H180.319C180.35 263.099 180.516 263.408 180.817 263.649C181.119 263.891 181.479 264.011 181.9 264.011C182.235 264.011 182.532 263.935 182.79 263.781C183.052 263.625 183.256 263.411 183.404 263.138C183.555 262.865 183.63 262.554 183.63 262.205C183.63 261.849 183.553 261.533 183.4 261.254C183.246 260.976 183.035 260.757 182.765 260.598C182.498 260.439 182.191 260.358 181.844 260.355C181.58 260.355 181.315 260.401 181.048 260.491C180.781 260.582 180.565 260.702 180.4 260.849L179.194 260.67L179.684 256.273H184.482V257.402H180.779L180.502 259.844H180.553C180.724 259.679 180.95 259.541 181.231 259.43C181.515 259.32 181.819 259.264 182.143 259.264C182.674 259.264 183.147 259.391 183.562 259.643C183.979 259.896 184.308 260.241 184.546 260.679C184.788 261.114 184.907 261.614 184.904 262.179C184.907 262.744 184.779 263.249 184.521 263.692C184.265 264.135 183.91 264.484 183.455 264.74C183.004 264.993 182.485 265.119 181.9 265.119Z" fill="white"/>
<rect x="15" y="224" width="45" height="50" fill="#525252"/>
<rect x="15" y="256" width="45" height="18" fill="#EFEFEF"/>
<path d="M44.5834 250.75L37.0001 246.417L29.4167 250.75V233.417C29.4167 232.842 29.645 232.291 30.0513 231.885C30.4577 231.478 31.0088 231.25 31.5834 231.25H42.4167C42.9914 231.25 43.5425 231.478 43.9488 231.885C44.3551 232.291 44.5834 232.842 44.5834 233.417V250.75Z" stroke="#F5F5F5" stroke-width="1.5" stroke-linecap="round" stroke-linejoin="round"/>
<path d="M260.705 90C260.548 89.5218 260.342 89.0933 260.087 88.7145C259.836 88.331 259.535 88.0043 259.185 87.7344C258.839 87.4645 258.446 87.2585 258.006 87.1165C257.565 86.9744 257.082 86.9034 256.557 86.9034C255.695 86.9034 254.911 87.1259 254.206 87.571C253.5 88.0161 252.939 88.6719 252.523 89.5384C252.106 90.4048 251.898 91.4678 251.898 92.7273C251.898 93.9867 252.108 95.0497 252.53 95.9162C252.951 96.7827 253.522 97.4384 254.241 97.8835C254.961 98.3286 255.771 98.5511 256.67 98.5511C257.504 98.5511 258.238 98.3736 258.872 98.0185C259.511 97.6586 260.009 97.152 260.364 96.4986C260.723 95.8404 260.903 95.0663 260.903 94.1761L261.443 94.2898H257.068V92.7273H262.608V94.2898C262.608 95.4877 262.352 96.5294 261.841 97.4148C261.334 98.3002 260.634 98.9867 259.739 99.4744C258.848 99.9574 257.826 100.199 256.67 100.199C255.383 100.199 254.251 99.8958 253.276 99.2898C252.305 98.6837 251.547 97.822 251.003 96.7045C250.463 95.5871 250.193 94.2614 250.193 92.7273C250.193 91.5767 250.347 90.5421 250.655 89.6236C250.967 88.7003 251.408 87.9143 251.976 87.2656C252.544 86.617 253.216 86.1198 253.993 85.7741C254.769 85.4285 255.624 85.2557 256.557 85.2557C257.324 85.2557 258.039 85.3717 258.702 85.6037C259.369 85.831 259.964 86.1553 260.484 86.5767C261.01 86.9934 261.448 87.4929 261.798 88.0753C262.149 88.6529 262.39 89.2945 262.523 90H260.705ZM269.971 100.227C268.92 100.227 268.013 99.9953 267.251 99.5312C266.493 99.0625 265.909 98.4091 265.497 97.571C265.09 96.7282 264.886 95.7481 264.886 94.6307C264.886 93.5133 265.09 92.5284 265.497 91.6761C265.909 90.8191 266.482 90.1515 267.216 89.6733C267.954 89.1903 268.816 88.9489 269.801 88.9489C270.369 88.9489 270.93 89.0436 271.484 89.233C272.038 89.4223 272.542 89.7301 272.997 90.1562C273.451 90.5777 273.814 91.1364 274.083 91.8324C274.353 92.5284 274.488 93.3854 274.488 94.4034V95.1136H266.079V93.6648H272.784C272.784 93.0492 272.661 92.5 272.414 92.017C272.173 91.5341 271.827 91.1529 271.377 90.8736C270.932 90.5942 270.407 90.4545 269.801 90.4545C269.133 90.4545 268.556 90.6203 268.068 90.9517C267.585 91.2784 267.213 91.7045 266.953 92.2301C266.692 92.7557 266.562 93.3191 266.562 93.9205V94.8864C266.562 95.7102 266.704 96.4086 266.988 96.9815C267.277 97.5497 267.677 97.983 268.189 98.2812C268.7 98.5748 269.294 98.7216 269.971 98.7216C270.412 98.7216 270.809 98.66 271.164 98.5369C271.524 98.4091 271.834 98.2197 272.095 97.9688C272.355 97.7131 272.556 97.3958 272.699 97.017L274.318 97.4716C274.147 98.0208 273.861 98.5038 273.458 98.9205C273.056 99.3324 272.559 99.6544 271.967 99.8864C271.375 100.114 270.71 100.227 269.971 100.227ZM278.714 93.4375V100H277.038V89.0909H278.657V90.7955H278.799C279.055 90.2415 279.443 89.7964 279.964 89.4602C280.485 89.1193 281.157 88.9489 281.981 88.9489C282.72 88.9489 283.366 89.1004 283.92 89.4034C284.474 89.7017 284.905 90.1562 285.213 90.767C285.52 91.3731 285.674 92.1402 285.674 93.0682V100H283.998V93.1818C283.998 92.3248 283.776 91.6572 283.331 91.179C282.886 90.696 282.275 90.4545 281.498 90.4545C280.963 90.4545 280.485 90.5705 280.064 90.8026C279.647 91.0346 279.318 91.3731 279.076 91.8182C278.835 92.2633 278.714 92.803 278.714 93.4375ZM293.311 100.227C292.26 100.227 291.353 99.9953 290.591 99.5312C289.833 99.0625 289.249 98.4091 288.837 97.571C288.429 96.7282 288.226 95.7481 288.226 94.6307C288.226 93.5133 288.429 92.5284 288.837 91.6761C289.249 90.8191 289.821 90.1515 290.555 89.6733C291.294 89.1903 292.156 88.9489 293.141 88.9489C293.709 88.9489 294.27 89.0436 294.824 89.233C295.378 89.4223 295.882 89.7301 296.337 90.1562C296.791 90.5777 297.153 91.1364 297.423 91.8324C297.693 92.5284 297.828 93.3854 297.828 94.4034V95.1136H289.419V93.6648H296.124C296.124 93.0492 296 92.5 295.754 92.017C295.513 91.5341 295.167 91.1529 294.717 90.8736C294.272 90.5942 293.747 90.4545 293.141 90.4545C292.473 90.4545 291.895 90.6203 291.408 90.9517C290.925 91.2784 290.553 91.7045 290.293 92.2301C290.032 92.7557 289.902 93.3191 289.902 93.9205V94.8864C289.902 95.7102 290.044 96.4086 290.328 96.9815C290.617 97.5497 291.017 97.983 291.528 98.2812C292.04 98.5748 292.634 98.7216 293.311 98.7216C293.751 98.7216 294.149 98.66 294.504 98.5369C294.864 98.4091 295.174 98.2197 295.435 97.9688C295.695 97.7131 295.896 97.3958 296.038 97.017L297.658 97.4716C297.487 98.0208 297.201 98.5038 296.798 98.9205C296.396 99.3324 295.899 99.6544 295.307 99.8864C294.715 100.114 294.05 100.227 293.311 100.227ZM300.378 100V89.0909H301.997V90.7386H302.111C302.31 90.1989 302.67 89.7609 303.19 89.4247C303.711 89.0885 304.298 88.9205 304.952 88.9205C305.075 88.9205 305.229 88.9228 305.413 88.9276C305.598 88.9323 305.738 88.9394 305.832 88.9489V90.6534C305.776 90.6392 305.645 90.6179 305.442 90.5895C305.243 90.5563 305.032 90.5398 304.81 90.5398C304.279 90.5398 303.806 90.651 303.389 90.8736C302.977 91.0914 302.651 91.3944 302.409 91.7827C302.172 92.1662 302.054 92.6042 302.054 93.0966V100H300.378ZM311.029 100.256C310.338 100.256 309.711 100.125 309.147 99.8651C308.584 99.5999 308.136 99.2188 307.805 98.7216C307.474 98.2197 307.308 97.6136 307.308 96.9034C307.308 96.2784 307.431 95.7718 307.677 95.3835C307.923 94.9905 308.252 94.6828 308.664 94.4602C309.076 94.2377 309.531 94.072 310.028 93.9631C310.53 93.8494 311.034 93.7595 311.541 93.6932C312.204 93.608 312.741 93.544 313.153 93.5014C313.57 93.4541 313.873 93.3759 314.062 93.267C314.256 93.1581 314.353 92.9687 314.353 92.6989V92.642C314.353 91.9413 314.162 91.3968 313.778 91.0085C313.399 90.6203 312.824 90.4261 312.052 90.4261C311.252 90.4261 310.625 90.6013 310.17 90.9517C309.716 91.3021 309.396 91.6761 309.211 92.0739L307.62 91.5057C307.904 90.8428 308.283 90.3267 308.757 89.9574C309.235 89.5833 309.756 89.3229 310.319 89.1761C310.887 89.0246 311.446 88.9489 311.995 88.9489C312.346 88.9489 312.748 88.9915 313.203 89.0767C313.662 89.1572 314.105 89.3253 314.531 89.581C314.962 89.8366 315.319 90.2225 315.603 90.7386C315.887 91.2547 316.029 91.946 316.029 92.8125V100H314.353V98.5227H314.268C314.154 98.7595 313.965 99.0128 313.7 99.2827C313.435 99.5526 313.082 99.7822 312.642 99.9716C312.201 100.161 311.664 100.256 311.029 100.256ZM311.285 98.75C311.948 98.75 312.507 98.6198 312.961 98.3594C313.421 98.099 313.766 97.7628 313.998 97.3509C314.235 96.9389 314.353 96.5057 314.353 96.0511V94.517C314.282 94.6023 314.126 94.6804 313.885 94.7514C313.648 94.8177 313.373 94.8769 313.061 94.929C312.753 94.9763 312.452 95.0189 312.159 95.0568C311.87 95.09 311.636 95.1184 311.456 95.142C311.02 95.1989 310.613 95.2912 310.234 95.419C309.86 95.5421 309.557 95.7292 309.325 95.9801C309.098 96.2263 308.984 96.5625 308.984 96.9886C308.984 97.571 309.199 98.0114 309.63 98.3097C310.066 98.6032 310.618 98.75 311.285 98.75ZM323.833 89.0909V90.5114H318.18V89.0909H323.833ZM319.827 86.4773H321.504V96.875C321.504 97.3485 321.572 97.7036 321.71 97.9403C321.852 98.1723 322.031 98.3286 322.249 98.4091C322.472 98.4848 322.706 98.5227 322.952 98.5227C323.137 98.5227 323.289 98.5133 323.407 98.4943C323.525 98.4706 323.62 98.4517 323.691 98.4375L324.032 99.9432C323.918 99.9858 323.76 100.028 323.556 100.071C323.353 100.118 323.094 100.142 322.782 100.142C322.308 100.142 321.844 100.04 321.39 99.8366C320.94 99.633 320.566 99.3229 320.268 98.9062C319.974 98.4896 319.827 97.964 319.827 97.3295V86.4773ZM326.354 100V89.0909H328.031V100H326.354ZM327.207 87.2727C326.88 87.2727 326.598 87.1615 326.362 86.9389C326.129 86.7164 326.013 86.4489 326.013 86.1364C326.013 85.8239 326.129 85.5563 326.362 85.3338C326.598 85.1113 326.88 85 327.207 85C327.533 85 327.813 85.1113 328.045 85.3338C328.281 85.5563 328.4 85.8239 328.4 86.1364C328.4 86.4489 328.281 86.7164 328.045 86.9389C327.813 87.1615 327.533 87.2727 327.207 87.2727ZM332.777 93.4375V100H331.1V89.0909H332.72V90.7955H332.862C333.118 90.2415 333.506 89.7964 334.027 89.4602C334.547 89.1193 335.22 88.9489 336.044 88.9489C336.782 88.9489 337.429 89.1004 337.983 89.4034C338.537 89.7017 338.967 90.1562 339.275 90.767C339.583 91.3731 339.737 92.1402 339.737 93.0682V100H338.061V93.1818C338.061 92.3248 337.838 91.6572 337.393 91.179C336.948 90.696 336.337 90.4545 335.561 90.4545C335.026 90.4545 334.547 90.5705 334.126 90.8026C333.709 91.0346 333.38 91.3731 333.139 91.8182C332.897 92.2633 332.777 92.803 332.777 93.4375ZM347.203 104.318C346.393 104.318 345.697 104.214 345.115 104.006C344.533 103.802 344.047 103.532 343.659 103.196C343.276 102.865 342.97 102.509 342.743 102.131L344.078 101.193C344.23 101.392 344.421 101.619 344.653 101.875C344.885 102.135 345.203 102.36 345.605 102.55C346.012 102.744 346.545 102.841 347.203 102.841C348.084 102.841 348.811 102.628 349.384 102.202C349.956 101.776 350.243 101.108 350.243 100.199V97.983H350.101C349.978 98.1818 349.803 98.428 349.575 98.7216C349.353 99.0104 349.031 99.2685 348.609 99.4957C348.193 99.7183 347.629 99.8295 346.919 99.8295C346.038 99.8295 345.248 99.6212 344.547 99.2045C343.851 98.7879 343.299 98.1818 342.892 97.3864C342.49 96.5909 342.288 95.625 342.288 94.4886C342.288 93.3712 342.485 92.3982 342.878 91.5696C343.271 90.7363 343.818 90.0923 344.518 89.6378C345.219 89.1785 346.029 88.9489 346.947 88.9489C347.658 88.9489 348.221 89.0672 348.638 89.304C349.059 89.536 349.381 89.8011 349.604 90.0994C349.831 90.393 350.006 90.6345 350.129 90.8239H350.3V89.0909H351.919V100.312C351.919 101.25 351.706 102.012 351.28 102.599C350.858 103.191 350.29 103.625 349.575 103.899C348.865 104.179 348.074 104.318 347.203 104.318ZM347.146 98.3239C347.819 98.3239 348.387 98.17 348.851 97.8622C349.315 97.5545 349.668 97.1117 349.909 96.5341C350.151 95.9564 350.271 95.2652 350.271 94.4602C350.271 93.6742 350.153 92.9806 349.916 92.3793C349.679 91.7779 349.329 91.3068 348.865 90.9659C348.401 90.625 347.828 90.4545 347.146 90.4545C346.436 90.4545 345.844 90.6345 345.371 90.9943C344.902 91.3542 344.549 91.8371 344.312 92.4432C344.08 93.0492 343.964 93.7216 343.964 94.4602C343.964 95.2178 344.083 95.8878 344.32 96.4702C344.561 97.0478 344.916 97.5024 345.385 97.8338C345.858 98.1605 346.446 98.3239 347.146 98.3239ZM250.761 128V113.455H259.54V115.017H252.523V119.932H259.085V121.494H252.523V126.438H259.653V128H250.761ZM262.487 128V117.091H264.107V118.795H264.249C264.476 118.213 264.843 117.761 265.349 117.439C265.856 117.112 266.464 116.949 267.175 116.949C267.894 116.949 268.493 117.112 268.972 117.439C269.455 117.761 269.831 118.213 270.101 118.795H270.214C270.494 118.232 270.913 117.785 271.472 117.453C272.03 117.117 272.7 116.949 273.482 116.949C274.457 116.949 275.255 117.254 275.875 117.865C276.495 118.471 276.805 119.416 276.805 120.699V128H275.129V120.699C275.129 119.894 274.909 119.319 274.469 118.973C274.028 118.627 273.51 118.455 272.913 118.455C272.146 118.455 271.552 118.687 271.131 119.151C270.709 119.61 270.499 120.192 270.499 120.898V128H268.794V120.528C268.794 119.908 268.593 119.409 268.19 119.03C267.788 118.646 267.269 118.455 266.635 118.455C266.199 118.455 265.792 118.571 265.413 118.803C265.039 119.035 264.736 119.357 264.504 119.768C264.277 120.176 264.163 120.647 264.163 121.182V128H262.487ZM280.097 128V113.455H281.773V118.824H281.915C282.039 118.634 282.209 118.393 282.427 118.099C282.649 117.801 282.967 117.536 283.379 117.304C283.795 117.067 284.359 116.949 285.069 116.949C285.987 116.949 286.797 117.179 287.498 117.638C288.199 118.097 288.746 118.748 289.138 119.591C289.531 120.434 289.728 121.428 289.728 122.574C289.728 123.729 289.531 124.731 289.138 125.578C288.746 126.421 288.201 127.074 287.505 127.538C286.809 127.998 286.006 128.227 285.097 128.227C284.397 128.227 283.835 128.111 283.414 127.879C282.993 127.643 282.668 127.375 282.441 127.077C282.214 126.774 282.039 126.523 281.915 126.324H281.717V128H280.097ZM281.745 122.545C281.745 123.369 281.866 124.096 282.107 124.726C282.349 125.351 282.701 125.841 283.165 126.196C283.629 126.546 284.198 126.722 284.87 126.722C285.571 126.722 286.156 126.537 286.624 126.168C287.098 125.794 287.453 125.292 287.69 124.662C287.931 124.027 288.052 123.322 288.052 122.545C288.052 121.778 287.933 121.087 287.697 120.472C287.465 119.851 287.112 119.361 286.638 119.001C286.17 118.637 285.58 118.455 284.87 118.455C284.188 118.455 283.615 118.627 283.151 118.973C282.687 119.314 282.337 119.792 282.1 120.408C281.863 121.018 281.745 121.731 281.745 122.545ZM296.866 128.227C295.815 128.227 294.908 127.995 294.146 127.531C293.388 127.062 292.803 126.409 292.391 125.571C291.984 124.728 291.781 123.748 291.781 122.631C291.781 121.513 291.984 120.528 292.391 119.676C292.803 118.819 293.376 118.152 294.11 117.673C294.849 117.19 295.71 116.949 296.695 116.949C297.263 116.949 297.825 117.044 298.379 117.233C298.933 117.422 299.437 117.73 299.891 118.156C300.346 118.578 300.708 119.136 300.978 119.832C301.248 120.528 301.383 121.385 301.383 122.403V123.114H292.974V121.665H299.678C299.678 121.049 299.555 120.5 299.309 120.017C299.067 119.534 298.722 119.153 298.272 118.874C297.827 118.594 297.301 118.455 296.695 118.455C296.028 118.455 295.45 118.62 294.962 118.952C294.479 119.278 294.108 119.705 293.847 120.23C293.587 120.756 293.457 121.319 293.457 121.92V122.886C293.457 123.71 293.599 124.409 293.883 124.982C294.172 125.55 294.572 125.983 295.083 126.281C295.594 126.575 296.189 126.722 296.866 126.722C297.306 126.722 297.704 126.66 298.059 126.537C298.419 126.409 298.729 126.22 298.989 125.969C299.25 125.713 299.451 125.396 299.593 125.017L301.212 125.472C301.042 126.021 300.755 126.504 300.353 126.92C299.951 127.332 299.453 127.654 298.862 127.886C298.27 128.114 297.604 128.227 296.866 128.227ZM308.052 128.227C307.143 128.227 306.34 127.998 305.644 127.538C304.948 127.074 304.404 126.421 304.011 125.578C303.618 124.731 303.421 123.729 303.421 122.574C303.421 121.428 303.618 120.434 304.011 119.591C304.404 118.748 304.951 118.097 305.651 117.638C306.352 117.179 307.162 116.949 308.08 116.949C308.79 116.949 309.352 117.067 309.763 117.304C310.18 117.536 310.497 117.801 310.715 118.099C310.938 118.393 311.111 118.634 311.234 118.824H311.376V113.455H313.052V128H311.433V126.324H311.234C311.111 126.523 310.935 126.774 310.708 127.077C310.481 127.375 310.156 127.643 309.735 127.879C309.314 128.111 308.753 128.227 308.052 128.227ZM308.279 126.722C308.951 126.722 309.52 126.546 309.984 126.196C310.448 125.841 310.8 125.351 311.042 124.726C311.283 124.096 311.404 123.369 311.404 122.545C311.404 121.731 311.286 121.018 311.049 120.408C310.812 119.792 310.462 119.314 309.998 118.973C309.534 118.627 308.961 118.455 308.279 118.455C307.569 118.455 306.977 118.637 306.504 119.001C306.035 119.361 305.682 119.851 305.445 120.472C305.213 121.087 305.097 121.778 305.097 122.545C305.097 123.322 305.216 124.027 305.452 124.662C305.694 125.292 306.049 125.794 306.518 126.168C306.991 126.537 307.578 126.722 308.279 126.722ZM320.474 128.227C319.565 128.227 318.762 127.998 318.066 127.538C317.37 127.074 316.826 126.421 316.433 125.578C316.04 124.731 315.843 123.729 315.843 122.574C315.843 121.428 316.04 120.434 316.433 119.591C316.826 118.748 317.372 118.097 318.073 117.638C318.774 117.179 319.584 116.949 320.502 116.949C321.212 116.949 321.773 117.067 322.185 117.304C322.602 117.536 322.919 117.801 323.137 118.099C323.36 118.393 323.532 118.634 323.656 118.824H323.798V113.455H325.474V128H323.854V126.324H323.656C323.532 126.523 323.357 126.774 323.13 127.077C322.903 127.375 322.578 127.643 322.157 127.879C321.736 128.111 321.174 128.227 320.474 128.227ZM320.701 126.722C321.373 126.722 321.942 126.546 322.406 126.196C322.87 125.841 323.222 125.351 323.464 124.726C323.705 124.096 323.826 123.369 323.826 122.545C323.826 121.731 323.708 121.018 323.471 120.408C323.234 119.792 322.884 119.314 322.42 118.973C321.956 118.627 321.383 118.455 320.701 118.455C319.991 118.455 319.399 118.637 318.925 119.001C318.457 119.361 318.104 119.851 317.867 120.472C317.635 121.087 317.519 121.778 317.519 122.545C317.519 123.322 317.638 124.027 317.874 124.662C318.116 125.292 318.471 125.794 318.94 126.168C319.413 126.537 320 126.722 320.701 126.722ZM328.776 128V117.091H330.452V128H328.776ZM329.629 115.273C329.302 115.273 329.02 115.161 328.783 114.939C328.551 114.716 328.435 114.449 328.435 114.136C328.435 113.824 328.551 113.556 328.783 113.334C329.02 113.111 329.302 113 329.629 113C329.955 113 330.235 113.111 330.467 113.334C330.703 113.556 330.822 113.824 330.822 114.136C330.822 114.449 330.703 114.716 330.467 114.939C330.235 115.161 329.955 115.273 329.629 115.273ZM335.199 121.438V128H333.522V117.091H335.142V118.795H335.284C335.539 118.241 335.928 117.796 336.449 117.46C336.969 117.119 337.642 116.949 338.466 116.949C339.204 116.949 339.85 117.1 340.404 117.403C340.958 117.702 341.389 118.156 341.697 118.767C342.005 119.373 342.159 120.14 342.159 121.068V128H340.483V121.182C340.483 120.325 340.26 119.657 339.815 119.179C339.37 118.696 338.759 118.455 337.983 118.455C337.448 118.455 336.969 118.571 336.548 118.803C336.131 119.035 335.802 119.373 335.561 119.818C335.319 120.263 335.199 120.803 335.199 121.438ZM349.625 132.318C348.815 132.318 348.119 132.214 347.537 132.006C346.955 131.802 346.469 131.532 346.081 131.196C345.697 130.865 345.392 130.509 345.165 130.131L346.5 129.193C346.652 129.392 346.843 129.619 347.075 129.875C347.307 130.135 347.625 130.36 348.027 130.55C348.434 130.744 348.967 130.841 349.625 130.841C350.506 130.841 351.232 130.628 351.805 130.202C352.378 129.776 352.665 129.108 352.665 128.199V125.983H352.523C352.4 126.182 352.224 126.428 351.997 126.722C351.775 127.01 351.453 127.268 351.031 127.496C350.615 127.718 350.051 127.83 349.341 127.83C348.46 127.83 347.67 127.621 346.969 127.205C346.273 126.788 345.721 126.182 345.314 125.386C344.911 124.591 344.71 123.625 344.71 122.489C344.71 121.371 344.907 120.398 345.3 119.57C345.693 118.736 346.24 118.092 346.94 117.638C347.641 117.179 348.451 116.949 349.369 116.949C350.08 116.949 350.643 117.067 351.06 117.304C351.481 117.536 351.803 117.801 352.026 118.099C352.253 118.393 352.428 118.634 352.551 118.824H352.722V117.091H354.341V128.312C354.341 129.25 354.128 130.012 353.702 130.599C353.28 131.191 352.712 131.625 351.997 131.899C351.287 132.179 350.496 132.318 349.625 132.318ZM349.568 126.324C350.241 126.324 350.809 126.17 351.273 125.862C351.737 125.554 352.089 125.112 352.331 124.534C352.572 123.956 352.693 123.265 352.693 122.46C352.693 121.674 352.575 120.981 352.338 120.379C352.101 119.778 351.751 119.307 351.287 118.966C350.823 118.625 350.25 118.455 349.568 118.455C348.858 118.455 348.266 118.634 347.793 118.994C347.324 119.354 346.971 119.837 346.734 120.443C346.502 121.049 346.386 121.722 346.386 122.46C346.386 123.218 346.505 123.888 346.741 124.47C346.983 125.048 347.338 125.502 347.807 125.834C348.28 126.161 348.867 126.324 349.568 126.324ZM365.136 119.534L363.631 119.96C363.536 119.709 363.396 119.465 363.212 119.229C363.032 118.987 362.786 118.788 362.473 118.632C362.161 118.476 361.76 118.398 361.273 118.398C360.605 118.398 360.049 118.552 359.604 118.859C359.163 119.162 358.943 119.548 358.943 120.017C358.943 120.434 359.095 120.763 359.398 121.004C359.701 121.246 360.174 121.447 360.818 121.608L362.438 122.006C363.413 122.242 364.14 122.605 364.618 123.092C365.096 123.575 365.335 124.198 365.335 124.96C365.335 125.585 365.155 126.144 364.795 126.636C364.44 127.129 363.943 127.517 363.304 127.801C362.665 128.085 361.921 128.227 361.074 128.227C359.961 128.227 359.04 127.986 358.311 127.503C357.582 127.02 357.12 126.314 356.926 125.386L358.517 124.989C358.669 125.576 358.955 126.016 359.376 126.31C359.803 126.603 360.359 126.75 361.045 126.75C361.827 126.75 362.447 126.584 362.906 126.253C363.37 125.917 363.602 125.514 363.602 125.045C363.602 124.667 363.47 124.349 363.205 124.094C362.939 123.833 362.532 123.639 361.983 123.511L360.165 123.085C359.166 122.848 358.432 122.482 357.963 121.984C357.499 121.482 357.267 120.855 357.267 120.102C357.267 119.487 357.44 118.942 357.786 118.469C358.136 117.995 358.612 117.624 359.213 117.354C359.819 117.084 360.506 116.949 361.273 116.949C362.352 116.949 363.2 117.186 363.815 117.659C364.436 118.133 364.876 118.758 365.136 119.534Z" fill="#333333"/>
<path d="M228 97V101" stroke="#525252" stroke-width="1.5" stroke-linecap="round" stroke-linejoin="round"/>
<path d="M232.2 102.8L235.1 99.9004" stroke="#525252" stroke-width="1.5" stroke-linecap="round" stroke-linejoin="round"/>
<path d="M234 107H238" stroke="#525252" stroke-width="1.5" stroke-linecap="round" stroke-linejoin="round"/>
<path d="M232.2 111.2L235.1 114.1" stroke="#525252" stroke-width="1.5" stroke-linecap="round" stroke-linejoin="round"/>
<path d="M228 113V117" stroke="#525252" stroke-width="1.5" stroke-linecap="round" stroke-linejoin="round"/>
<path d="M220.9 114.1L223.8 111.2" stroke="#525252" stroke-width="1.5" stroke-linecap="round" stroke-linejoin="round"/>
<path d="M218 107H222" stroke="#525252" stroke-width="1.5" stroke-linecap="round" stroke-linejoin="round"/>
<path d="M220.9 99.9004L223.8 102.8" stroke="#525252" stroke-width="1.5" stroke-linecap="round" stroke-linejoin="round"/>
<rect x="216" y="154" width="154" height="12" rx="6" fill="white"/>
<rect x="216" y="154" width="77" height="12" rx="6" fill="#BDBDBD"/>
</svg>
